<svg width="101" height="94" viewBox="0 0 101 94" fill="none" xmlns="http://www.w3.org/2000/svg">
<path fill-rule="evenodd" clip-rule="evenodd" d="M46.57 58.12C46.94 58.12 47.3 58.12 47.67 58.12C48.04 58.12 48.4 58.12 48.77 58.12C49.42 58.12 50.06 58.09 50.68 58.03C51.31 57.97 51.93 57.88 52.54 57.75C53.17 57.62 53.75 57.45 54.29 57.24C54.83 57.03 55.33 56.77 55.79 56.45C56.27 56.14 56.7 55.78 57.07 55.36C57.44 54.94 57.77 54.47 58.05 53.94C58.35 53.42 58.56 52.84 58.7 52.19C58.84 51.54 58.9 50.82 58.9 50.02C58.9 49.15 58.78 48.34 58.54 47.59C58.3 46.84 57.94 46.16 57.46 45.55C56.98 44.92 56.4 44.38 55.72 43.91C55.04 43.44 54.26 43.05 53.39 42.74C54.26 42.39 55.02 41.95 55.66 41.44C56.3 40.93 56.83 40.34 57.24 39.67C57.67 38.99 57.98 38.26 58.19 37.47C58.4 36.69 58.5 35.86 58.5 34.97C58.5 34.34 58.43 33.75 58.29 33.2C58.15 32.65 57.95 32.14 57.69 31.68C57.56 31.46 57.42 31.25 57.28 31.05C57.14 30.85 56.99 30.67 56.84 30.5C57.19 31.98 56.93 33.43 56.06 34.85C55.19 36.27 53.7 37.67 51.59 39.04C50.89 36.9 50.73 34.94 51.12 33.16C51.51 31.39 52.44 29.81 53.92 28.42C53.68 28.31 53.43 28.21 53.17 28.11C52.91 28.01 52.64 27.92 52.37 27.83C51.78 27.66 51.19 27.54 50.59 27.46C49.99 27.38 49.39 27.34 48.78 27.34H38.8H28.82V36.59V45.84H32.89H36.96H39.36H41.76H44.15H46.54C47.78 45.84 48.67 46.22 49.24 46.78C49.81 47.34 50.07 48.09 50.05 48.83C50.03 49.53 49.78 50.22 49.21 50.73C48.64 51.24 47.75 51.57 46.46 51.57H45.83H45.2H41.96H38.7C38.71 51.66 38.75 51.84 38.83 52.04C38.92 52.24 39.05 52.46 39.28 52.65C39.56 52.88 39.88 52.91 40.25 52.88C40.62 52.85 41.02 52.75 41.46 52.73C42.22 52.69 42.93 52.86 43.52 53.09C44.11 53.33 44.59 53.63 44.89 53.87C45.73 54.54 46.16 55.48 46.37 56.31C46.58 57.14 46.58 57.86 46.57 58.12ZM46.6 39.66H41.77H36.94V36.59V33.52H41.77H46.6C47.1 33.52 47.55 33.57 47.96 33.66C48.37 33.76 48.74 33.9 49.07 34.11C49.4 34.33 49.65 34.64 49.82 35.04C49.99 35.44 50.07 35.94 50.07 36.55C50.07 37.16 49.99 37.67 49.82 38.08C49.65 38.49 49.4 38.81 49.07 39.03C48.74 39.23 48.37 39.39 47.96 39.5C47.55 39.61 47.09 39.66 46.6 39.66Z" fill="white"/>
<path d="M28.01 54.37C28.01 54.02 28.03 53.67 28.04 53.32C28.06 52.97 28.08 52.63 28.1 52.28C28.12 51.93 28.15 51.59 28.18 51.24C28.21 50.89 28.24 50.55 28.27 50.2C28.3 49.86 28.34 49.51 28.38 49.17C28.42 48.83 28.46 48.48 28.5 48.14C28.54 47.8 28.59 47.45 28.63 47.11C28.68 46.77 28.72 46.42 28.77 46.08C28.79 45.95 28.85 45.84 28.94 45.76C29.03 45.68 29.15 45.64 29.28 45.64C29.5 45.64 29.71 45.64 29.93 45.64C30.15 45.64 30.37 45.64 30.59 45.64H30.76H30.93L31.1 45.65L31.27 45.66C31.38 45.67 31.5 45.68 31.61 45.69C31.72 45.7 31.83 45.72 31.95 45.73C32.4 45.78 32.84 45.86 33.28 45.97C33.72 46.07 34.15 46.2 34.57 46.35C34.99 46.5 35.41 46.67 35.81 46.86C36.21 47.05 36.6 47.27 36.98 47.5C37.36 47.74 37.72 47.99 38.07 48.26C38.42 48.53 38.75 48.83 39.05 49.15C38.67 48.93 38.28 48.73 37.9 48.53C37.51 48.34 37.12 48.16 36.73 47.99C36.34 47.82 35.94 47.67 35.53 47.54C35.12 47.41 34.72 47.29 34.31 47.18C33.9 47.07 33.49 46.99 33.08 46.92C32.67 46.85 32.25 46.79 31.83 46.75C31.73 46.74 31.62 46.73 31.52 46.72C31.42 46.71 31.31 46.7 31.21 46.7L31.05 46.69L30.89 46.68H30.73H30.57C30.36 46.68 30.15 46.67 29.93 46.67C29.71 46.67 29.49 46.67 29.28 46.67L29.54 46.45L29.8 46.23C29.74 46.57 29.68 46.91 29.62 47.25C29.56 47.59 29.5 47.93 29.43 48.27C29.36 48.61 29.3 48.95 29.23 49.29C29.16 49.63 29.09 49.97 29.02 50.31C28.95 50.65 28.87 50.99 28.79 51.32C28.71 51.66 28.63 52 28.55 52.33C28.47 52.67 28.38 53 28.29 53.34C28.21 53.7 28.12 54.04 28.01 54.37Z" fill="white"/>
<path d="M45.59 54.05C45.66 54.15 45.72 54.26 45.78 54.37C45.84 54.48 45.88 54.59 45.93 54.7L45.96 54.78L45.99 54.86L46 54.94L46.02 55.02L46.07 55.17L46.12 55.32L46.31 55.92L46.5 56.52L46.68 57.13L46.86 57.74V57.75V57.76C46.88 57.83 46.87 57.91 46.84 57.97C46.81 58.03 46.75 58.08 46.67 58.1C46.66 58.1 46.64 58.11 46.62 58.11C46.6 58.11 46.59 58.11 46.57 58.11C46.26 58.1 44.74 58.11 43.22 58.12C41.7 58.13 40.18 58.14 39.87 58.1C40.18 58.07 41.7 57.93 43.22 57.8C44.74 57.67 46.26 57.54 46.57 57.53L46.43 57.72L46.29 57.91L46.05 57.33L45.81 56.75L45.58 56.16L45.35 55.57L45.29 55.42L45.23 55.27L45.2 55.2L45.17 55.13L45.14 55.07L45.11 55.01C45.07 54.93 45.03 54.85 44.99 54.78C44.95 54.71 44.89 54.63 44.84 54.56C44.73 54.42 44.61 54.29 44.48 54.18C44.35 54.07 44.2 53.97 44.04 53.9C43.96 53.86 43.88 53.83 43.8 53.8C43.72 53.77 43.64 53.75 43.55 53.73C43.53 53.72 43.51 53.72 43.49 53.72C43.47 53.72 43.45 53.71 43.43 53.71C43.41 53.71 43.39 53.7 43.37 53.7C43.35 53.7 43.32 53.69 43.3 53.69L43.14 53.67L43 53.64L42.38 53.56L41.76 53.48C41.34 53.43 40.93 53.37 40.51 53.32C40.09 53.26 39.68 53.21 39.26 53.15C39.13 53.13 39.02 53.07 38.94 52.97C38.86 52.87 38.81 52.76 38.81 52.63C38.81 52.42 38.8 52.21 38.79 52C38.78 51.79 38.75 51.6 38.7 51.4C38.66 51.21 38.6 51.03 38.53 50.87C38.46 50.71 38.36 50.57 38.25 50.45C38.14 50.33 38.01 50.24 37.85 50.18C37.7 50.11 37.52 50.07 37.33 50.05L37.26 50.04L37.19 50.03H37.11H37.03L36.86 50.02L36.69 50.01L36.35 50H36.01C35.78 49.99 35.56 49.98 35.33 49.97C35.1 49.96 34.88 49.95 34.65 49.93C34.42 49.92 34.2 49.91 33.97 49.89C33.74 49.88 33.52 49.86 33.29 49.85C32.84 49.82 32.39 49.79 31.94 49.75C31.49 49.71 31.04 49.67 30.59 49.62C31.04 49.57 31.49 49.53 31.94 49.49C32.39 49.45 32.84 49.42 33.29 49.39C33.52 49.37 33.74 49.36 33.97 49.35C34.2 49.34 34.42 49.33 34.65 49.31C34.88 49.3 35.1 49.28 35.33 49.27C35.56 49.26 35.78 49.25 36.01 49.24L36.35 49.23L36.69 49.22L36.86 49.21L37.03 49.2H37.11H37.19H37.29H37.39C37.52 49.2 37.65 49.21 37.79 49.24C37.93 49.27 38.06 49.3 38.19 49.34C38.32 49.39 38.45 49.45 38.58 49.52C38.71 49.59 38.82 49.68 38.93 49.78C39.14 49.98 39.31 50.21 39.43 50.45C39.56 50.69 39.64 50.94 39.7 51.19C39.76 51.44 39.8 51.68 39.83 51.93C39.86 52.18 39.87 52.41 39.87 52.65L39.64 52.39L39.41 52.13C39.83 52.18 40.25 52.24 40.66 52.3C41.08 52.36 41.49 52.42 41.91 52.48L42.53 52.57L43.15 52.66L43.31 52.68L43.47 52.7C43.49 52.7 43.52 52.71 43.55 52.71C43.58 52.72 43.61 52.72 43.64 52.73C43.67 52.74 43.7 52.74 43.73 52.75C43.76 52.76 43.79 52.77 43.82 52.78C43.94 52.81 44.06 52.85 44.17 52.9C44.28 52.95 44.4 53 44.5 53.06C44.72 53.18 44.92 53.33 45.1 53.49C45.28 53.65 45.45 53.85 45.59 54.05Z" fill="white"/>
<path d="M0.859985 57.65C1.31999 57.58 7.68999 57.48 14.06 57.38C20.43 57.29 26.8 57.21 27.26 57.19C28.19 57.15 29.12 57.13 30.04 57.13C30.97 57.12 31.9 57.13 32.82 57.15L32.57 57.4L32.32 57.65C32.32 57.28 32.41 56.92 32.57 56.59C32.73 56.26 32.95 55.97 33.23 55.74C33.37 55.62 33.52 55.52 33.67 55.44C33.83 55.36 33.99 55.29 34.16 55.24C34.25 55.22 34.33 55.2 34.42 55.18C34.51 55.16 34.59 55.16 34.68 55.15C34.72 55.15 34.77 55.15 34.81 55.15C34.85 55.15 34.9 55.15 34.94 55.15L35.05 55.16L35.16 55.17L35.27 55.18L35.38 55.19C35.42 55.2 35.47 55.2 35.51 55.2C35.55 55.2 35.59 55.21 35.64 55.22C35.72 55.24 35.81 55.26 35.89 55.28C35.97 55.3 36.05 55.33 36.13 55.36C36.29 55.42 36.44 55.5 36.57 55.6C36.71 55.7 36.83 55.81 36.94 55.93C37.17 56.17 37.33 56.45 37.42 56.75C37.52 57.05 37.54 57.37 37.5 57.66C37.48 57.51 37.44 57.37 37.39 57.23C37.34 57.09 37.28 56.96 37.21 56.84C37.14 56.72 37.05 56.61 36.96 56.51C36.87 56.41 36.77 56.32 36.66 56.24C36.55 56.16 36.44 56.09 36.32 56.04C36.2 55.99 36.08 55.94 35.95 55.91C35.89 55.9 35.82 55.88 35.76 55.88C35.7 55.87 35.63 55.87 35.57 55.86C35.54 55.86 35.51 55.86 35.48 55.86C35.45 55.86 35.42 55.86 35.39 55.86L35.28 55.87L35.17 55.88L35.06 55.89L34.95 55.9C34.92 55.9 34.89 55.91 34.86 55.91C34.83 55.91 34.8 55.92 34.77 55.92C34.71 55.93 34.65 55.95 34.59 55.96C34.53 55.98 34.48 56 34.42 56.02C34.31 56.06 34.2 56.12 34.1 56.19C34 56.26 33.91 56.33 33.83 56.41C33.66 56.58 33.54 56.77 33.45 56.99C33.36 57.2 33.32 57.43 33.33 57.66C33.33 57.8 33.28 57.92 33.2 58.01C33.12 58.1 32.99 58.16 32.86 58.16H32.85H32.84C31.91 58.18 30.98 58.18 30.06 58.18C29.13 58.17 28.2 58.15 27.28 58.12C26.82 58.1 20.45 58.02 14.08 57.93C7.68999 57.82 1.32999 57.72 0.859985 57.65Z" fill="white"/>
<path fill-rule="evenodd" clip-rule="evenodd" d="M77.14 31.71H77.12H77.1H74.62H72.14V32.36V33.01H69.77H67.4V30.64V28.27H69.77H72.14V28.92V29.57C74.03 29.57 76.21 29.57 78.39 29.57C80.57 29.57 82.75 29.57 84.64 29.57V28.46V27.35C81.18 27.35 77.04 27.35 72.89 27.35C68.74 27.35 64.59 27.35 61.12 27.35C60.64 27.35 60.13 27.38 59.6 27.44C59.07 27.5 58.53 27.59 57.97 27.72C57.4 27.83 56.85 28 56.32 28.22C55.79 28.44 55.28 28.73 54.79 29.08C54.29 29.41 53.84 29.81 53.43 30.28C53.02 30.75 52.66 31.28 52.35 31.89C52.02 32.48 51.78 33.18 51.62 33.96C51.46 34.75 51.39 35.62 51.39 36.59C51.39 37.57 51.46 38.46 51.62 39.25C51.78 40.05 52.02 40.75 52.35 41.36C52.66 41.97 53.02 42.51 53.43 42.97C53.84 43.44 54.29 43.83 54.79 44.17C55.29 44.51 55.8 44.79 56.32 45.02C56.84 45.25 57.39 45.43 57.97 45.54C58.52 45.67 59.07 45.76 59.6 45.82C60.13 45.88 60.64 45.91 61.12 45.91H65.71H70.3C70.76 45.91 71.19 45.96 71.58 46.05C71.97 46.15 72.33 46.29 72.67 46.5C72.98 46.68 73.22 46.96 73.37 47.33C73.52 47.7 73.6 48.16 73.6 48.72C73.6 49.27 73.53 49.74 73.37 50.11C73.22 50.48 72.99 50.77 72.67 50.97C72.36 51.15 72.01 51.3 71.64 51.4C71.27 51.5 70.86 51.56 70.42 51.56H65.54H60.66C60.55 52.61 60.23 53.88 59.57 55.07C58.91 56.26 57.9 57.37 56.4 58.11H64.28H72.16C72.64 58.11 73.15 58.08 73.68 58.02C74.21 57.96 74.75 57.87 75.31 57.74C75.88 57.61 76.44 57.43 76.97 57.2C77.51 56.97 78.02 56.68 78.52 56.33C79 56 79.44 55.59 79.85 55.11C80.26 54.63 80.63 54.09 80.96 53.48C81.27 52.85 81.51 52.14 81.68 51.34C81.84 50.54 81.93 49.67 81.93 48.71C81.93 47.73 81.85 46.84 81.68 46.05C81.52 45.25 81.28 44.55 80.96 43.94C80.63 43.35 80.26 42.81 79.85 42.34C79.44 41.87 79 41.45 78.52 41.1C78.02 40.77 77.5 40.48 76.97 40.24C76.43 40 75.88 39.82 75.31 39.69C74.76 39.58 74.21 39.49 73.68 39.42C73.15 39.36 72.64 39.32 72.16 39.32H67.59H63.02C62.59 39.32 62.19 39.27 61.8 39.18C61.42 39.08 61.06 38.93 60.72 38.73C60.41 38.53 60.17 38.24 60 37.88C59.84 37.52 59.75 37.08 59.75 36.59C59.75 36.1 59.82 35.67 59.98 35.32C60.13 34.97 60.36 34.71 60.68 34.52C60.99 34.32 61.34 34.17 61.71 34.07C62.08 33.97 62.48 33.93 62.9 33.93H70.02H77.14" fill="black"/>
<path d="M84.81 27.37C84.82 27.36 84.83 27.35 84.85 27.35C84.86 27.35 84.88 27.35 84.89 27.36C85.19 27.49 85.49 27.61 85.79 27.74C86.09 27.87 86.39 27.99 86.69 28.12C86.71 28.13 86.72 28.14 86.73 28.15C86.74 28.16 86.74 28.18 86.74 28.2C86.74 28.54 86.74 28.88 86.74 29.22C86.74 29.56 86.74 29.9 86.74 30.24C86.74 30.27 86.74 30.29 86.72 30.3C86.71 30.31 86.69 30.31 86.65 30.29C86.36 30.17 86.07 30.06 85.78 29.94C85.49 29.82 85.2 29.71 84.91 29.59C84.88 29.58 84.86 29.57 84.84 29.55C84.82 29.53 84.81 29.51 84.8 29.49C84.8 29.14 84.8 28.78 84.8 28.43C84.8 28.08 84.81 27.72 84.81 27.37Z" fill="black"/>
<path d="M86.99 29.21C86.99 29.04 86.99 28.87 86.99 28.7C86.99 28.53 86.99 28.36 86.99 28.19C86.99 28.17 86.99 28.15 87 28.14C87.01 28.13 87.02 28.12 87.04 28.11C87.34 27.98 87.64 27.86 87.94 27.73C88.24 27.6 88.54 27.48 88.84 27.35C88.87 27.34 88.89 27.34 88.9 27.34C88.91 27.34 88.92 27.37 88.92 27.4C88.92 27.74 88.92 28.08 88.92 28.42C88.92 28.76 88.92 29.1 88.92 29.44C88.92 29.47 88.91 29.5 88.9 29.53C88.89 29.55 88.86 29.57 88.83 29.59C88.54 29.71 88.24 29.83 87.95 29.94C87.66 30.05 87.36 30.18 87.07 30.29C87.05 30.3 87.03 30.3 87.02 30.29C87.01 30.28 87 30.26 87 30.23C87 30.08 87 29.94 87 29.79C87 29.64 87 29.5 87 29.35C87 29.32 87 29.3 87 29.27C87 29.24 86.99 29.24 86.99 29.21Z" fill="black"/>
<path d="M86.87 26.25C86.88 26.25 86.89 26.26 86.91 26.26C86.92 26.26 86.93 26.27 86.94 26.27C87.22 26.4 87.51 26.54 87.79 26.67C88.07 26.8 88.36 26.94 88.64 27.07C88.65 27.07 88.66 27.08 88.67 27.09C88.68 27.1 88.68 27.11 88.69 27.12C88.69 27.13 88.68 27.13 88.68 27.14C88.68 27.15 88.66 27.16 88.65 27.16C88.36 27.28 88.07 27.4 87.79 27.52C87.5 27.64 87.21 27.76 86.93 27.88C86.91 27.89 86.9 27.89 86.88 27.89C86.86 27.89 86.85 27.89 86.83 27.88C86.54 27.76 86.25 27.64 85.96 27.51C85.67 27.39 85.38 27.27 85.09 27.15C85.08 27.15 85.07 27.14 85.06 27.13C85.05 27.12 85.04 27.11 85.05 27.1C85.05 27.09 85.06 27.08 85.07 27.07C85.08 27.06 85.09 27.06 85.1 27.05C85.38 26.92 85.67 26.78 85.95 26.65C86.23 26.52 86.52 26.38 86.8 26.25C86.81 26.24 86.82 26.24 86.84 26.24C86.84 26.26 86.85 26.25 86.87 26.25Z" fill="black"/>
<path d="M77.25 31.74C77.26 31.73 77.27 31.72 77.29 31.72C77.3 31.72 77.32 31.72 77.33 31.73C77.63 31.86 77.93 31.98 78.23 32.11C78.53 32.24 78.83 32.36 79.13 32.49C79.15 32.5 79.16 32.51 79.17 32.52C79.18 32.53 79.18 32.55 79.18 32.57C79.18 32.91 79.18 33.25 79.18 33.59C79.18 33.93 79.18 34.27 79.18 34.61C79.18 34.64 79.18 34.66 79.16 34.67C79.14 34.68 79.13 34.68 79.09 34.66C78.8 34.54 78.51 34.43 78.22 34.31C77.93 34.19 77.64 34.08 77.35 33.96C77.32 33.95 77.3 33.94 77.28 33.92C77.26 33.9 77.25 33.88 77.24 33.86C77.24 33.51 77.24 33.15 77.24 32.8C77.25 32.45 77.25 32.1 77.25 31.74Z" fill="black"/>
<path d="M79.43 33.59C79.43 33.42 79.43 33.25 79.43 33.08C79.43 32.91 79.43 32.74 79.43 32.57C79.43 32.55 79.43 32.53 79.44 32.52C79.45 32.51 79.46 32.5 79.48 32.49C79.78 32.36 80.08 32.24 80.38 32.11C80.68 31.98 80.98 31.86 81.28 31.73C81.31 31.72 81.33 31.72 81.34 31.72C81.35 31.73 81.36 31.75 81.36 31.78C81.36 32.12 81.36 32.46 81.36 32.8C81.36 33.14 81.36 33.48 81.36 33.82C81.36 33.85 81.35 33.88 81.34 33.91C81.33 33.94 81.3 33.95 81.27 33.97C80.98 34.09 80.68 34.21 80.39 34.32C80.1 34.44 79.8 34.56 79.51 34.67C79.49 34.68 79.47 34.68 79.46 34.67C79.45 34.66 79.44 34.64 79.44 34.61C79.44 34.46 79.44 34.32 79.44 34.17C79.44 34.02 79.44 33.88 79.44 33.73C79.44 33.7 79.44 33.68 79.44 33.65C79.44 33.62 79.43 33.61 79.43 33.59Z" fill="black"/>
<path d="M79.3 30.62C79.31 30.62 79.32 30.63 79.34 30.63C79.35 30.63 79.36 30.64 79.37 30.64C79.65 30.77 79.94 30.91 80.22 31.04C80.5 31.17 80.79 31.31 81.07 31.44C81.08 31.44 81.09 31.45 81.1 31.46C81.11 31.47 81.11 31.48 81.12 31.49C81.12 31.5 81.11 31.5 81.11 31.51C81.1 31.52 81.09 31.53 81.08 31.53C80.79 31.65 80.5 31.77 80.22 31.89C79.93 32.01 79.64 32.13 79.36 32.25C79.34 32.26 79.33 32.26 79.31 32.26C79.29 32.26 79.28 32.26 79.26 32.25C78.97 32.13 78.68 32.01 78.39 31.88C78.1 31.76 77.81 31.64 77.52 31.52C77.51 31.52 77.5 31.51 77.49 31.5C77.48 31.49 77.47 31.48 77.48 31.47C77.48 31.46 77.49 31.45 77.5 31.44C77.51 31.43 77.52 31.43 77.53 31.42C77.81 31.29 78.1 31.15 78.38 31.02C78.66 30.89 78.95 30.75 79.23 30.62C79.24 30.61 79.25 30.61 79.27 30.61C79.28 30.63 79.29 30.63 79.3 30.62Z" fill="black"/>
<path d="M67.75 29.72C67.76 29.71 67.77 29.7 67.79 29.7C67.8 29.7 67.82 29.7 67.83 29.71C68.13 29.84 68.43 29.96 68.73 30.09C69.03 30.22 69.33 30.34 69.63 30.47C69.65 30.48 69.66 30.49 69.67 30.5C69.68 30.51 69.68 30.53 69.68 30.55C69.68 30.89 69.68 31.23 69.68 31.57C69.68 31.91 69.68 32.25 69.68 32.59C69.68 32.62 69.68 32.64 69.66 32.65C69.64 32.66 69.63 32.66 69.59 32.64C69.3 32.52 69.01 32.41 68.72 32.29C68.43 32.17 68.14 32.06 67.85 31.94C67.82 31.93 67.8 31.92 67.78 31.9C67.76 31.88 67.75 31.86 67.74 31.84C67.74 31.49 67.74 31.13 67.74 30.78C67.74 30.43 67.75 30.07 67.75 29.72Z" fill="black"/>
<path d="M69.93 31.56C69.93 31.39 69.93 31.22 69.93 31.05C69.93 30.88 69.93 30.71 69.93 30.54C69.93 30.52 69.93 30.5 69.94 30.49C69.95 30.48 69.96 30.47 69.98 30.46C70.28 30.33 70.58 30.21 70.88 30.08C71.18 29.95 71.48 29.83 71.78 29.7C71.81 29.69 71.83 29.69 71.84 29.69C71.85 29.7 71.86 29.72 71.86 29.75C71.86 30.09 71.86 30.43 71.86 30.77C71.86 31.11 71.86 31.45 71.86 31.79C71.86 31.82 71.85 31.85 71.84 31.88C71.83 31.91 71.8 31.92 71.77 31.94C71.48 32.06 71.18 32.18 70.89 32.29C70.6 32.41 70.3 32.53 70.01 32.64C69.99 32.65 69.97 32.65 69.96 32.64C69.95 32.63 69.94 32.61 69.94 32.58C69.94 32.43 69.94 32.29 69.94 32.14C69.94 31.99 69.94 31.85 69.94 31.7C69.94 31.67 69.94 31.65 69.94 31.62C69.93 31.61 69.93 31.59 69.93 31.56Z" fill="black"/>
<path d="M69.8 28.59C69.81 28.59 69.82 28.6 69.84 28.6C69.86 28.6 69.86 28.61 69.87 28.61C70.15 28.74 70.44 28.88 70.72 29.01C71 29.14 71.29 29.28 71.57 29.41C71.58 29.41 71.59 29.42 71.6 29.43C71.61 29.44 71.61 29.45 71.62 29.46C71.62 29.47 71.61 29.47 71.61 29.48C71.6 29.49 71.59 29.5 71.58 29.5C71.29 29.62 71 29.74 70.72 29.86C70.43 29.98 70.14 30.1 69.86 30.22C69.84 30.23 69.83 30.23 69.81 30.23C69.79 30.23 69.78 30.23 69.76 30.22C69.47 30.1 69.18 29.98 68.89 29.85C68.6 29.73 68.31 29.61 68.02 29.49C68.01 29.49 68 29.48 67.99 29.47C67.98 29.46 67.97 29.45 67.98 29.44C67.98 29.43 67.99 29.42 68 29.41C68.01 29.4 68.02 29.4 68.03 29.39C68.31 29.26 68.6 29.12 68.88 28.99C69.16 28.86 69.45 28.72 69.73 28.59C69.74 28.58 69.75 28.58 69.77 28.58C69.78 28.6 69.79 28.6 69.8 28.59Z" fill="black"/>
<path d="M25.83 65.92C25.83 66.21 25.78 66.48 25.68 66.73C25.58 66.98 25.42 67.21 25.22 67.41C25.01 67.62 24.78 67.77 24.54 67.88C24.29 67.98 24.02 68.04 23.73 68.04H21.93H20.13V64.73V61.42H21.93H23.73C24.02 61.42 24.29 61.47 24.54 61.58C24.79 61.69 25.02 61.84 25.22 62.05C25.43 62.26 25.58 62.49 25.68 62.73C25.78 62.98 25.83 63.25 25.83 63.54C25.83 63.76 25.8 63.97 25.74 64.17C25.68 64.37 25.59 64.56 25.46 64.74C25.58 64.92 25.68 65.11 25.74 65.31C25.8 65.49 25.83 65.7 25.83 65.92ZM21.95 63.93H22.81H23.67C23.72 63.93 23.76 63.92 23.8 63.9C23.84 63.88 23.88 63.86 23.91 63.82C23.94 63.78 23.97 63.75 23.99 63.7C24.01 63.66 24.02 63.61 24.02 63.56C24.02 63.51 24.01 63.46 23.99 63.42C23.97 63.38 23.95 63.34 23.91 63.3C23.88 63.26 23.84 63.24 23.8 63.22C23.76 63.2 23.72 63.19 23.67 63.19H22.81H21.95V63.56V63.93ZM23.68 66.25C23.73 66.25 23.77 66.24 23.81 66.22C23.85 66.2 23.89 66.17 23.92 66.14C23.95 66.1 23.98 66.07 24 66.02C24.02 65.98 24.03 65.93 24.03 65.88C24.03 65.83 24.02 65.78 24 65.74C23.98 65.7 23.96 65.66 23.92 65.62C23.89 65.58 23.85 65.56 23.81 65.54C23.77 65.52 23.73 65.51 23.68 65.51H22.82H21.96V65.88V66.25H22.82H23.68Z" fill="white"/>
<path d="M27.05 61.41H27.97H28.89V64.72V68.03H27.97H27.05V64.72V61.41Z" fill="white"/>
<path d="M30.11 64.81C30.11 64.8 30.11 64.78 30.11 64.77C30.11 64.76 30.11 64.74 30.11 64.73C30.11 64.72 30.11 64.7 30.11 64.69C30.11 64.68 30.11 64.66 30.11 64.65C30.11 64.64 30.11 64.62 30.11 64.61C30.11 64.6 30.11 64.58 30.11 64.57C30.13 64.15 30.22 63.75 30.38 63.39C30.54 63.03 30.77 62.7 31.07 62.39C31.37 62.09 31.7 61.86 32.07 61.7C32.44 61.54 32.83 61.45 33.25 61.43C33.26 61.43 33.27 61.43 33.28 61.43C33.29 61.43 33.31 61.43 33.32 61.43C33.33 61.43 33.34 61.43 33.34 61.43C33.35 61.43 33.37 61.43 33.38 61.43C33.39 61.43 33.41 61.43 33.42 61.43C33.88 61.43 34.3 61.51 34.69 61.67C35.08 61.83 35.44 62.07 35.76 62.4L35.11 63.05L34.46 63.7C34.36 63.6 34.25 63.52 34.13 63.45C34.01 63.38 33.88 63.34 33.74 63.31C33.61 63.28 33.47 63.27 33.34 63.27C33.21 63.28 33.08 63.3 32.94 63.35C32.93 63.35 32.93 63.36 32.92 63.36C32.92 63.36 32.91 63.37 32.9 63.37C32.89 63.37 32.88 63.38 32.88 63.38C32.87 63.38 32.86 63.39 32.86 63.39C32.85 63.39 32.85 63.39 32.85 63.39C32.85 63.39 32.85 63.39 32.84 63.4C32.84 63.4 32.83 63.41 32.82 63.41C32.81 63.41 32.8 63.42 32.8 63.42C32.79 63.42 32.79 63.43 32.78 63.43C32.78 63.43 32.78 63.43 32.77 63.43C32.52 63.55 32.33 63.71 32.2 63.9C32.07 64.09 31.98 64.33 31.95 64.6C31.95 64.61 31.95 64.62 31.95 64.63C31.95 64.64 31.95 64.65 31.95 64.66C31.95 64.67 31.95 64.68 31.95 64.7C31.95 64.71 31.95 64.72 31.95 64.74C31.95 64.75 31.95 64.76 31.95 64.78C31.95 64.79 31.95 64.8 31.95 64.82C31.95 64.83 31.95 64.84 31.95 64.86C31.95 64.87 31.95 64.88 31.95 64.89C31.97 65.08 32.02 65.25 32.1 65.4C32.18 65.55 32.29 65.7 32.43 65.82C32.57 65.95 32.72 66.04 32.89 66.11C33.06 66.18 33.23 66.21 33.42 66.21C33.7 66.21 33.95 66.15 34.16 66.03C34.37 65.91 34.55 65.72 34.69 65.48H34.33H33.97V64.74V64H35.35H36.73V66.03V68.06H35.81H34.9V67.89V67.72C34.67 67.84 34.43 67.92 34.18 67.98C33.93 68.04 33.68 68.07 33.42 68.07C32.96 68.07 32.54 67.99 32.15 67.83C31.76 67.67 31.4 67.42 31.08 67.1C30.78 66.8 30.55 66.47 30.39 66.1C30.23 65.73 30.14 65.34 30.12 64.92C30.12 64.91 30.12 64.89 30.12 64.88C30.11 64.84 30.11 64.83 30.11 64.81Z" fill="white"/>
<path d="M40.08 65.65C39.79 65.65 39.52 65.6 39.27 65.49C39.02 65.38 38.79 65.23 38.59 65.02C38.38 64.81 38.23 64.58 38.12 64.34C38.02 64.09 37.96 63.82 37.96 63.53C37.96 63.24 38.01 62.97 38.12 62.72C38.22 62.47 38.38 62.24 38.59 62.04C38.8 61.83 39.03 61.68 39.27 61.57C39.51 61.46 39.79 61.41 40.08 61.41H41.92H43.76V62.33V63.25H41.92H40.08C40.04 63.25 40.01 63.26 39.97 63.27C39.94 63.28 39.91 63.3 39.88 63.33C39.85 63.36 39.83 63.39 39.82 63.42C39.81 63.45 39.8 63.49 39.8 63.53C39.8 63.57 39.81 63.6 39.82 63.63C39.83 63.66 39.85 63.69 39.88 63.72C39.91 63.75 39.94 63.77 39.97 63.78C40 63.79 40.04 63.8 40.08 63.8H41.05H42.02C42.31 63.8 42.58 63.85 42.83 63.96C43.08 64.06 43.31 64.22 43.51 64.43C43.72 64.64 43.87 64.87 43.98 65.11C44.08 65.36 44.14 65.63 44.14 65.92C44.14 66.21 44.09 66.48 43.98 66.73C43.88 66.98 43.72 67.21 43.51 67.41C43.3 67.62 43.07 67.77 42.83 67.88C42.58 67.98 42.31 68.04 42.02 68.04H40.18H38.34V67.12V66.2H40.18H42.02C42.06 66.2 42.09 66.19 42.13 66.18C42.16 66.17 42.19 66.15 42.22 66.12C42.25 66.09 42.27 66.06 42.28 66.03C42.29 66 42.3 65.96 42.3 65.92C42.3 65.88 42.29 65.85 42.28 65.82C42.27 65.79 42.25 65.76 42.22 65.73C42.19 65.7 42.16 65.68 42.13 65.67C42.1 65.66 42.06 65.65 42.02 65.65H41.05H40.08Z" fill="white"/>
<path d="M45.35 61.41H46.27H47.19V64.72V68.03H46.27H45.35V64.72V61.41Z" fill="white"/>
<path d="M54.07 61.41L52.78 63.8L51.49 66.19H52.84H54.19V67.11V68.03H51.3H48.41L49.7 65.64L50.99 63.25H49.74H48.49V62.33V61.41H51.28H54.07Z" fill="white"/>
<path d="M61.11 61.41V62.33V63.25H59.18H57.25V63.62V63.99H58.57H59.89V64.73V65.47H58.57H57.25V65.84V66.21H59.18H61.11V67.13V68.05H58.26H55.4V64.74V61.43H58.25H61.11V61.41Z" fill="white"/>
<path d="M67.47 65.65C67.18 65.65 66.91 65.6 66.66 65.49C66.41 65.39 66.18 65.23 65.98 65.02C65.77 64.81 65.62 64.58 65.51 64.34C65.41 64.09 65.35 63.82 65.35 63.53C65.35 63.24 65.4 62.97 65.51 62.72C65.61 62.47 65.77 62.24 65.98 62.04C66.19 61.83 66.42 61.68 66.66 61.57C66.91 61.47 67.18 61.41 67.47 61.41H69.31H71.15V62.33V63.25H69.31H67.47C67.43 63.25 67.4 63.26 67.36 63.27C67.32 63.28 67.3 63.3 67.27 63.33C67.24 63.36 67.22 63.39 67.21 63.42C67.2 63.45 67.19 63.49 67.19 63.53C67.19 63.57 67.2 63.6 67.21 63.63C67.22 63.66 67.24 63.69 67.27 63.72C67.3 63.75 67.33 63.77 67.36 63.78C67.39 63.79 67.43 63.8 67.47 63.8H68.44H69.41C69.7 63.8 69.97 63.85 70.22 63.96C70.47 64.06 70.7 64.22 70.9 64.43C71.11 64.64 71.26 64.87 71.37 65.11C71.47 65.36 71.53 65.63 71.53 65.92C71.53 66.21 71.48 66.48 71.37 66.73C71.27 66.98 71.11 67.21 70.9 67.41C70.69 67.62 70.46 67.77 70.22 67.88C69.97 67.98 69.7 68.04 69.41 68.04H67.57H65.73V67.12V66.2H67.57H69.41C69.45 66.2 69.48 66.19 69.52 66.18C69.55 66.17 69.58 66.15 69.61 66.12C69.64 66.09 69.66 66.06 69.67 66.03C69.68 66 69.69 65.96 69.69 65.92C69.69 65.88 69.68 65.85 69.67 65.82C69.66 65.79 69.64 65.76 69.61 65.73C69.58 65.7 69.55 65.68 69.52 65.67C69.49 65.66 69.45 65.65 69.41 65.65H68.44H67.47Z" fill="white"/>
<path d="M78.81 61.41V64.72V68.03H77.89H76.97V66.83V65.63H75.77H74.57V66.83V68.03H73.65H72.73V64.72V61.41H73.65H74.57V62.61V63.81H75.77H76.97V62.61V61.41H77.89H78.81Z" fill="white"/>
<path d="M80.03 61.41H80.95H81.87V64.72V68.03H80.95H80.03V64.72V61.41Z" fill="white"/>
<path d="M84.93 68.04H84.01H83.09V64.73V61.42H84.7H86.31C86.65 61.42 86.97 61.48 87.26 61.6C87.55 61.72 87.82 61.9 88.06 62.15C88.3 62.39 88.48 62.66 88.61 62.95C88.73 63.24 88.79 63.56 88.79 63.9C88.79 64.24 88.73 64.56 88.61 64.85C88.49 65.14 88.31 65.41 88.06 65.65C87.82 65.89 87.55 66.07 87.26 66.2C86.97 66.32 86.65 66.38 86.31 66.38H85.62H84.93V67.21V68.04ZM84.93 64.54H85.62H86.31C86.4 64.54 86.48 64.52 86.56 64.49C86.64 64.46 86.7 64.41 86.77 64.35C86.83 64.29 86.88 64.22 86.91 64.14C86.94 64.06 86.96 63.98 86.96 63.89C86.96 63.8 86.94 63.72 86.91 63.64C86.88 63.56 86.83 63.49 86.77 63.43C86.71 63.37 86.64 63.32 86.56 63.29C86.48 63.26 86.4 63.24 86.31 63.24H85.62H84.93V63.88V64.54Z" fill="white"/>
<path fill-rule="evenodd" clip-rule="evenodd" d="M19.89 70.83C20.36 70.83 20.82 70.94 21.23 71.14C21.64 71.34 22.01 71.64 22.29 72.02C25.98 76.83 30.74 80.79 36.21 83.55C41.68 86.31 47.87 87.86 54.42 87.86C65.57 87.86 75.68 83.34 83 76.02C90.32 68.71 94.85 58.6 94.85 47.42C94.85 46 94.78 44.59 94.63 43.21C94.48 41.83 94.27 40.46 93.98 39.13C93.78 38.19 94.04 37.28 94.59 36.6C95.14 35.92 95.98 35.48 96.94 35.48H97H97.05C97.77 35.48 98.43 35.73 98.96 36.16C99.49 36.59 99.87 37.19 100.01 37.89C100.33 39.43 100.58 41 100.75 42.59C100.92 44.18 101 45.8 101 47.43C101 60.3 95.78 71.94 87.35 80.36C78.92 88.79 67.28 93.99 54.43 93.99C46.87 93.99 39.73 92.2 33.42 89.01C27.11 85.82 21.63 81.25 17.38 75.67C16.62 74.68 16.6 73.46 17.07 72.5C17.54 71.54 18.53 70.82 19.78 70.82H19.83H19.89V70.83Z" fill="black"/>
<path fill-rule="evenodd" clip-rule="evenodd" d="M8.92001 57.43C8.89001 57.35 8.87001 57.27 8.85001 57.2C8.83001 57.13 8.82001 57.06 8.81001 57.01C8.49001 55.46 8.24001 53.89 8.07001 52.29C7.90001 50.69 7.82001 49.07 7.82001 47.42C7.82001 34.55 13.04 22.91 21.48 14.49C29.92 6.06999 41.57 0.859985 54.44 0.859985C61.98 0.859985 69.11 2.64998 75.41 5.83998C81.71 9.02998 87.19 13.6 91.45 19.18C92.21 20.17 92.23 21.39 91.76 22.35C91.28 23.32 90.3 24.03 89.05 24.03H89H88.95C88.48 24.03 88.02 23.92 87.61 23.72C87.2 23.52 86.83 23.22 86.55 22.84C82.86 18.03 78.1 14.07 72.64 11.31C67.14 8.54999 60.97 6.99998 54.43 6.99998C43.26 6.99998 33.14 11.52 25.81 18.84C18.48 26.15 13.95 36.26 13.95 47.44C13.95 48.87 14.07 50.67 14.25 52.44C14.44 54.22 14.7 55.98 14.98 57.32" fill="white"/>
</svg>
