<svg width="861" height="394" viewBox="0 0 861 394" fill="none" xmlns="http://www.w3.org/2000/svg">
<g style="mix-blend-mode:darken" opacity="0.2">
<path d="M587.813 359.722H594.021V335.496H619.599V336.358H622.472V340.076H619.599V342.154H622.472V345.87H619.599V347.948H622.472V351.666H619.599V353.742H622.472V357.46H619.599V359.722H625.807V330.278H608.218V321.239H605.402V322.692H602.529V321.239H599.711V322.692H596.839V321.239H594.021V322.692H591.148V321.239H587.813V359.722ZM594.021 353.742V357.46H591.148V353.742H594.021ZM594.021 347.948V351.666H591.148V347.948H594.021ZM594.021 342.154V345.87H591.148V342.154H594.021ZM594.021 336.358V340.076H591.148V336.358H594.021ZM594.021 330.564V334.281H591.148V330.564H594.021ZM599.711 330.564V334.281H596.839V330.564H599.711ZM605.402 330.564V334.281H602.529V330.564H605.402ZM611.091 330.564V334.281H608.218V330.564H611.091ZM616.782 330.564V334.281H613.908V330.564H616.782ZM622.472 330.564V334.281H619.599V330.564H622.472ZM594.021 324.769V328.487H591.148V324.769H594.021ZM599.711 324.769V328.487H596.839V324.769H599.711ZM605.402 324.769V328.487H602.529V324.769H605.402Z" fill="#E5E8E5"/>
<path d="M594.021 365.035H599.717V364.185H599.608V361.052H599.717V360.479H594.021V365.035ZM597.507 361.052V364.185H596.318V361.052H597.507ZM613.904 365.035H619.599V360.479H613.904V361.052H613.957V364.185H613.904V365.035ZM617.247 361.052V364.185H616.058V361.052H617.247ZM594.021 359.722H599.717V352.048H613.904V359.722H619.599V357.46V353.742V351.666V347.948V345.87V342.154V340.076V336.358V335.496H594.021V359.722ZM599.711 353.742V357.46H596.839V353.742H599.711ZM616.782 353.742V357.46H613.908V353.742H616.782ZM599.711 347.948V351.666H596.839V347.948H599.711ZM605.402 347.948V351.666H602.529V347.948H605.402ZM611.091 347.948V351.666H608.218V347.948H611.091ZM616.782 347.948V351.666H613.908V347.948H616.782ZM599.711 342.154V345.87H596.839V342.154H599.711ZM605.402 342.154V345.87H602.529V342.154H605.402ZM611.091 342.154V345.87H608.218V342.154H611.091ZM616.782 342.154V345.87H613.908V342.154H616.782ZM599.711 336.358V340.076H596.839V336.358H599.711ZM605.402 336.358V340.076H602.529V336.358H605.402ZM611.091 336.358V340.076H608.218V336.358H611.091ZM616.782 336.358V340.076H613.908V336.358H616.782Z" fill="#E5E8E5"/>
<path d="M599.717 368.383H601.976V365.764H599.717V368.383ZM611.644 368.383H613.904V365.764H611.644V368.383ZM599.717 365.035H601.976V360.479H599.717V361.052H600.796V364.185H599.717V365.035ZM611.644 365.035H613.904V364.185H612.767V361.052H613.904V360.479H611.644V365.035ZM599.717 359.722H613.904V352.048H599.717V359.722ZM605.402 353.742V357.46H602.529V353.742H605.402ZM611.091 353.742V357.46H608.218V353.742H611.091Z" fill="#E5E8E5"/>
<path d="M601.976 371.416H605.124V368.942H601.976V371.416ZM606.174 371.416H607.446V368.942H606.174V371.416ZM608.496 371.416H611.644V368.942H608.496V371.416ZM601.976 368.383H607.446V365.764H601.976V368.383ZM608.496 368.383H611.644V365.764H608.496V368.383ZM601.976 365.035H611.644V360.479H601.976V365.035ZM604.087 361.052V364.185H602.897V361.052H604.087ZM607.377 361.052V364.185H606.188V361.052H607.377ZM610.666 361.052V364.185H609.478V361.052H610.666Z" fill="#E5E8E5"/>
<path d="M607.446 376.338H608.496L608.496 368.942H607.446V371.416L607.446 376.338ZM607.446 368.383H608.496V365.764H607.446V368.383Z" fill="#E5E8E5"/>
<path d="M605.124 380.245H606.174V368.942H605.124V371.416V380.245Z" fill="#E5E8E5"/>
<path d="M586.8 360.479H626.82V359.722H586.8V360.479Z" fill="#E5E8E5"/>
<path d="M593.088 365.764H620.532V365.035H593.088V365.764Z" fill="#E5E8E5"/>
<path d="M599.121 368.942H614.938V368.383H599.121V368.942Z" fill="#E5E8E5"/>
<path d="M617.247 364.185H616.058V361.052H617.247V364.185Z" fill="#E5E8E5"/>
<path d="M613.957 364.185H613.904V361.052H613.957V364.185Z" fill="#E5E8E5"/>
<path d="M613.904 364.185H612.767V361.052H613.904V364.185Z" fill="#E5E8E5"/>
<path d="M610.666 364.185H609.478V361.052H610.666V364.185Z" fill="#E5E8E5"/>
<path d="M607.377 364.185H606.188V361.052H607.377V364.185Z" fill="#E5E8E5"/>
<path d="M604.087 364.185H602.897V361.052H604.087V364.185Z" fill="#E5E8E5"/>
<path d="M599.717 364.185H599.608V361.052H599.717V364.185Z" fill="#E5E8E5"/>
<path d="M600.796 364.185H599.717V361.052H600.796V364.185Z" fill="#E5E8E5"/>
<path d="M597.507 364.185H596.318V361.052H597.507V364.185Z" fill="#E5E8E5"/>
<path d="M622.472 357.46H619.599V353.742H622.472V357.46Z" fill="#E5E8E5"/>
<path d="M616.782 357.46H613.908V353.742H616.782V357.46Z" fill="#E5E8E5"/>
<path d="M611.091 357.46H608.218V353.742H611.091V357.46Z" fill="#E5E8E5"/>
<path d="M605.402 357.46H602.529V353.742H605.402V357.46Z" fill="#E5E8E5"/>
<path d="M599.711 357.46H596.839V353.742H599.711V357.46Z" fill="#E5E8E5"/>
<path d="M594.021 357.46H591.148V353.742H594.021V357.46Z" fill="#E5E8E5"/>
<path d="M622.472 351.666H619.599V347.948H622.472V351.666Z" fill="#E5E8E5"/>
<path d="M616.782 351.666H613.908V347.948H616.782V351.666Z" fill="#E5E8E5"/>
<path d="M611.091 351.666H608.218V347.948H611.091V351.666Z" fill="#E5E8E5"/>
<path d="M605.402 351.666H602.529V347.948H605.402V351.666Z" fill="#E5E8E5"/>
<path d="M599.711 351.666H596.839V347.948H599.711V351.666Z" fill="#E5E8E5"/>
<path d="M594.021 351.666H591.148V347.948H594.021V351.666Z" fill="#E5E8E5"/>
<path d="M622.472 345.87H619.599V342.154H622.472V345.87Z" fill="#E5E8E5"/>
<path d="M616.782 345.87H613.908V342.154H616.782V345.87Z" fill="#E5E8E5"/>
<path d="M611.091 345.87H608.218V342.154H611.091V345.87Z" fill="#E5E8E5"/>
<path d="M605.402 345.87H602.529V342.154H605.402V345.87Z" fill="#E5E8E5"/>
<path d="M599.711 345.87H596.839V342.154H599.711V345.87Z" fill="#E5E8E5"/>
<path d="M594.021 345.87H591.148V342.154H594.021V345.87Z" fill="#E5E8E5"/>
<path d="M622.472 340.076H619.599V336.358H622.472V340.076Z" fill="#E5E8E5"/>
<path d="M616.782 340.076H613.908V336.358H616.782V340.076Z" fill="#E5E8E5"/>
<path d="M611.091 340.076H608.218V336.358H611.091V340.076Z" fill="#E5E8E5"/>
<path d="M605.402 340.076H602.529V336.358H605.402V340.076Z" fill="#E5E8E5"/>
<path d="M599.711 340.076H596.839V336.358H599.711V340.076Z" fill="#E5E8E5"/>
<path d="M594.021 340.076H591.148V336.358H594.021V340.076Z" fill="#E5E8E5"/>
<path d="M622.472 334.281H619.599V330.564H622.472V334.281Z" fill="#E5E8E5"/>
<path d="M616.782 334.281H613.908V330.564H616.782V334.281Z" fill="#E5E8E5"/>
<path d="M611.091 334.281H608.218V330.564H611.091V334.281Z" fill="#E5E8E5"/>
<path d="M605.402 334.281H602.529V330.564H605.402V334.281Z" fill="#E5E8E5"/>
<path d="M599.711 334.281H596.839V330.564H599.711V334.281Z" fill="#E5E8E5"/>
<path d="M594.021 334.281H591.148V330.564H594.021V334.281Z" fill="#E5E8E5"/>
<path d="M605.402 328.487H602.529V324.769H605.402V328.487Z" fill="#E5E8E5"/>
<path d="M599.711 328.487H596.839V324.769H599.711V328.487Z" fill="#E5E8E5"/>
<path d="M594.021 328.487H591.148V324.769H594.021V328.487Z" fill="#E5E8E5"/>
<path d="M605.402 322.692H602.529V321.239H605.402V322.692Z" fill="#E5E8E5"/>
<path d="M599.711 322.692H596.839V321.239H599.711V322.692Z" fill="#E5E8E5"/>
<path d="M594.021 322.692H591.148V321.239H594.021V322.692Z" fill="#E5E8E5"/>
<path d="M675.074 356.927H677.127V352.737H734.096V356.927H736.149V331.698H729.726V327.425H720.429V331.698H715.649V327.425H710.869V331.698H705.611V327.425H694.617V325.85H729.726H696.291V315.94H691.15V314.245H685.56V306H675.074V356.927Z" fill="#E5E8E5"/>
<path d="M673.338 358.622H677.127V356.927H673.338V358.622ZM734.096 358.622H737.884V356.927H736.149H734.096V358.622Z" fill="#E5E8E5"/>
<path d="M677.127 360.79H707.176V355.286H729.735V360.79H734.096L734.096 358.622V356.927V352.737H677.127V356.927V358.622L677.127 360.79Z" fill="#E5E8E5"/>
<path d="M707.176 364.086H718.656L716.68 361.605H723.207V359.765H724.473V361.605H729.735V364.086L729.735 360.79V355.286H707.176V360.79L707.176 364.086Z" fill="#E5E8E5"/>
<path d="M720.372 366.238H723.207V361.605H716.68L718.656 364.086L720.372 366.238ZM724.473 366.238H729.735V364.086V361.605H724.473V366.238Z" fill="#E5E8E5"/>
<path d="M723.207 370.082H724.473V359.765H723.207V361.605V366.238V370.082Z" fill="#E5E8E5"/>
<path d="M723.84 371.152C724.468 371.152 724.977 370.912 724.977 370.617C724.977 370.322 724.468 370.082 723.84 370.082C723.213 370.082 722.704 370.322 722.704 370.617C722.704 370.912 723.213 371.152 723.84 371.152Z" fill="#E5E8E5"/>
<path d="M244.51 381.219L242.419 359.134C238.924 358.848 235.525 358.39 232.268 357.769L230.56 359.726C231.982 360.024 232.973 360.696 232.973 361.474C232.973 362.532 231.152 363.388 228.906 363.388C226.66 363.388 224.839 362.532 224.839 361.474C224.839 360.418 226.66 359.561 228.906 359.561C229.335 359.561 229.749 359.593 230.138 359.651L231.85 357.688C225.874 356.519 220.386 354.797 215.672 352.578C215.34 352.423 215.015 352.265 214.693 352.105L211.581 353.479C212.172 353.811 212.529 354.24 212.529 354.706C212.529 355.764 210.709 356.621 208.463 356.621C206.216 356.621 204.396 355.764 204.396 354.706C204.396 353.65 206.216 352.793 208.463 352.793C209.552 352.793 210.54 352.995 211.27 353.324L214.384 351.95C209.856 349.66 206.401 347.017 204.133 344.156L200.155 344.845C200.271 345.023 200.333 345.211 200.333 345.406C200.333 346.463 198.512 347.319 196.266 347.319C194.02 347.319 192.199 346.463 192.199 345.406C192.199 344.349 194.02 343.492 196.266 343.492C197.938 343.492 199.375 343.967 199.999 344.646L203.978 343.957C202.016 341.409 200.993 338.694 200.993 335.905C200.993 335.685 201 335.465 201.014 335.245L196.251 335.172C196.077 336.154 194.331 336.926 192.199 336.926C189.953 336.926 188.132 336.068 188.132 335.012C188.132 333.954 189.953 333.098 192.199 333.098C194.408 333.098 196.205 333.927 196.263 334.959L201.028 335.033C201.268 331.908 202.795 328.889 205.489 326.114L201.117 325.163C200.539 325.887 199.053 326.404 197.31 326.404C195.064 326.404 193.244 325.547 193.244 324.49C193.244 323.434 195.064 322.576 197.31 322.576C199.556 322.576 201.378 323.434 201.378 324.49C201.378 324.652 201.334 324.81 201.254 324.959L205.679 325.92C208.121 323.466 211.478 321.204 215.672 319.231C216.003 319.075 216.338 318.922 216.677 318.772L212.674 316.761C212.017 316.977 211.219 317.103 210.358 317.103C208.112 317.103 206.291 316.246 206.291 315.188C206.291 314.132 208.112 313.275 210.358 313.275C212.604 313.275 214.425 314.132 214.425 315.188C214.425 315.763 213.886 316.28 213.032 316.63L217.006 318.625C218.521 317.962 220.11 317.347 221.763 316.783V314.651H215.117V313.077H221.763H218.895V309.139L206.784 298.635H195.477V308.844H182.383V320.834H174.373V331.312H175.829V333.007H172.65V335.176H169.312V373.874L244.51 381.219ZM242.357 358.481L241.709 351.632C240.486 351.471 239.291 351.278 238.127 351.056L232.783 357.179C235.858 357.764 239.063 358.202 242.357 358.481ZM232.365 357.098L237.709 350.976C233.234 350.092 229.233 348.779 225.939 347.147L215.683 351.67C215.994 351.824 216.309 351.977 216.63 352.127C221.215 354.284 226.553 355.959 232.365 357.098ZM215.372 351.515L225.631 346.991C222.607 345.454 220.203 343.644 218.605 341.649L205.406 343.935C207.611 346.717 210.972 349.288 215.372 351.515ZM241.677 351.296L241.309 347.41L238.384 350.762C239.456 350.965 240.555 351.144 241.677 351.296ZM237.966 350.681L241.261 346.905L240.67 340.652L226.433 346.929C229.662 348.528 233.581 349.814 237.966 350.681ZM226.125 346.774L240.643 340.372L240.406 337.872L219.241 341.539C220.807 343.494 223.163 345.267 226.125 346.774ZM205.251 343.736L218.448 341.449C217.115 339.717 216.387 337.85 216.387 335.905C216.387 335.763 216.392 335.621 216.398 335.48L202.368 335.266C202.357 335.477 202.349 335.691 202.349 335.905C202.349 338.617 203.345 341.259 205.251 343.736ZM219.083 341.339L240.386 337.648L240.214 335.844L217.077 335.49C217.068 335.629 217.064 335.766 217.064 335.905C217.064 337.812 217.778 339.642 219.083 341.339ZM240.195 335.631L240.003 333.61L220.108 329.288C218.328 331.126 217.268 333.15 217.094 335.278L240.195 335.631ZM216.416 335.267C216.594 333.096 217.676 331.031 219.492 329.154L206.72 326.38C204.101 329.08 202.616 332.015 202.382 335.054L216.416 335.267ZM239.98 333.372L239.693 330.329L227.676 324.295C224.626 325.658 222.114 327.285 220.299 329.096L239.98 333.372ZM239.661 330.002L239.367 326.894L233.844 322.104C231.745 322.688 229.789 323.375 228.007 324.15L239.661 330.002ZM219.683 328.962C221.534 327.114 224.101 325.454 227.214 324.062L217.604 319.236C217.276 319.384 216.951 319.531 216.63 319.683C212.552 321.601 209.285 323.801 206.91 326.188L219.683 328.962ZM239.276 325.923L238.807 320.969C237.364 321.234 235.969 321.542 234.628 321.893L239.276 325.923ZM227.545 323.918C229.366 323.124 231.37 322.421 233.521 321.824L230.179 318.925H221.763V317.578C220.441 318.048 219.162 318.553 217.932 319.091L227.545 323.918ZM234.306 321.612C235.737 321.239 237.229 320.911 238.775 320.633L238.681 319.636L238.147 318.925H231.207L234.306 321.612ZM218.895 308.247V298.635H207.813L218.895 308.247Z" fill="#E5E8E5"/>
<path d="M501.736 403H503.572V392.35H516.618V372.882H523.358V348.489H503.596V346.372H497.69V345.084H493.03V344.365H497.69V309.244H473.014V298.635H465.718V337.014H460.532V336.188L456.926 336.604V343.416H460.988V372.882H471.473V380.775H475.219V392.35H495.856V400.859H497.693V392.35H501.736V403Z" fill="#E5E8E5"/>
<path d="M22.7155 294.174H32.9965L30.4394 286.126H22.7155V294.174ZM802.076 294.174H821.506V292.23H817.025V291.045H802.076V294.174Z" fill="#E5E8E5"/>
<path d="M367.515 320.754H372.903L378.045 308.319V302.818H367.515V320.754Z" fill="#DFE3E0"/>
<path d="M11.4715 286.126L30.4394 286.126L28.4937 280H11.4715V286.126ZM840.105 286.126H850.165V280.403H840.105V286.126ZM79.2196 284.804H107.182V282.724H79.2196V284.804ZM283.661 284.804H296.269V283.687H294.336V283.376H283.661V284.804ZM340.583 284.804H351.314V276.09H340.583V283.008H342.516V283.687H340.583V284.804ZM394.492 284.804H401.503V283.376H394.492V284.804ZM465.718 284.804H473.014V277.533H465.718V284.804ZM585.379 284.804H608.218V277.533H589.564L585.379 284.804ZM799.476 284.804H817.025V278.358H799.476V284.804Z" fill="#DFE3E0"/>
<path d="M399.866 382.311H400.417V374.215H402.55V369.491H408.627V363.869H419.897V349.1H422.24V340.595L421.447 340.687V342.297H416.26V341.283L406.689 342.385V343.945H401.503V298.635H394.493V302.818H378.045V308.319L378.045 349.1H380.301V363.869H391.658V369.491H397.734V374.215H399.866V382.311Z" fill="#DFE3E0"/>
<path d="M340.583 332.134H370.001V331.664H367.515L367.515 320.754V302.818H351.314V298.635H340.583V301.294H342.516V301.973H340.583V310.437H342.516V311.116H340.583V319.58H342.516V320.259H340.583V328.722H342.516V329.401H340.583V332.134Z" fill="#DFE3E0"/>
<path d="M565.705 321.239H608.218L608.218 314.717H593.047V284.804H608.218H585.379L580.267 293.688H568.697V315.898H565.705V321.239Z" fill="#DFE3E0"/>
<path d="M660.396 298.635H648.75V291.116H660.396V298.635Z" fill="#DFE3E0"/>
<path d="M642.28 342.269H648.015V339.12H652.556V328.38H653.511V339.12H655.662V330.18H656.619V339.12H659.262V342.269H660.681V306H656.257V304.764H660.396V298.635H648.75L648.75 332.167H650.221V332.83H642.28V342.269Z" fill="#DFE3E0"/>
<path d="M655.662 353.907H656.619V344.968H655.662V353.907ZM655.662 339.12H656.619V330.18H655.662V339.12Z" fill="#DFE3E0"/>
<path d="M652.556 352.108H653.511V344.968H652.556V352.108ZM652.556 339.12H653.511V328.38H652.556V339.12Z" fill="#DFE3E0"/>
<path d="M648.015 344.968H659.262L659.262 339.12H648.015V342.269L648.015 344.968Z" fill="#DFE3E0"/>
<path d="M608.218 314.717H593.047V284.804H608.218L608.218 314.717Z" fill="#DFE3E0"/>
<path d="M497.69 346.372H503.596L503.596 345.084H497.69V346.372ZM551.899 346.372H557.805V345.084H551.899V346.372ZM497.69 344.365H503.596V338.234H551.899V344.365H557.805V315.898H542.642V321.196H541.925V315.898H540.371V312.383H539.057V314.1H538.101V312.383H529.135V311.833H531.161V306.373H527.748V289.744H503.596V298.635H500.04V309.244H497.69V344.365Z" fill="#DFE3E0"/>
<path d="M503.596 348.489H551.899L551.899 345.084H503.596L503.596 346.372V348.489ZM503.596 344.365H551.899V338.234H503.596V344.365Z" fill="#DFE3E0"/>
<path d="M493.03 345.084H562.464V344.365L493.03 344.365V345.084Z" fill="#DFE3E0"/>
<path d="M540.371 315.898H541.925L541.925 312.383L540.371 312.383V315.898ZM542.642 315.898H557.805H565.705H568.697V293.688L562.464 293.688V306.373H544.179V311.833H546.377V312.383H542.642V315.898Z" fill="#DFE3E0"/>
<path d="M771.573 317.079H761.057V306.639H771.573V317.079Z" fill="#DFE3E0"/>
<path d="M696.291 325.85H729.726V323.376H758.189V325.85H761.057L761.057 317.079V306.639H747.09V284.804H713.781V314.245H703.628V315.94L696.291 315.94V325.85Z" fill="#DFE3E0"/>
<path d="M694.617 327.425H705.611L705.611 326.638H710.869L710.869 327.425H715.649L715.649 326.638H720.429L720.429 327.425H729.726V325.85H694.617V327.425ZM758.189 327.425H764.835V325.85L758.189 325.85L758.189 327.425Z" fill="#DFE3E0"/>
<path d="M729.726 331.698L758.189 331.698L758.189 323.376H729.726V325.85V327.425V331.698Z" fill="#DFE3E0"/>
<path d="M715.649 331.698H720.429L720.429 326.638H715.649L715.649 327.425V331.698Z" fill="#DFE3E0"/>
<path d="M705.611 331.698H710.869L710.869 326.638H705.611L705.611 327.425V331.698Z" fill="#DFE3E0"/>
<path d="M786.007 297.287H775.136V289.392H786.007V297.287Z" fill="#DFE3E0"/>
<path d="M786.007 302.571H802.076V291.045H794.041V289.392H786.007V297.287L786.007 302.571Z" fill="#DFE3E0"/>
<path d="M794.041 291.045H817.025V284.804H799.476L799.476 289.392H794.041V291.045Z" fill="#DFE3E0"/>
<path d="M195.477 298.635H206.784L201.641 294.174H197.24V293.566H195.477L195.477 298.635ZM207.813 298.635H218.895L218.895 294.174H202.669L207.813 298.635ZM283.661 298.635H294.398L296.269 297.012V294.174H283.661V298.635ZM295.427 298.635H296.269V297.905L295.427 298.635ZM340.583 298.635H351.314L351.314 284.804H340.583V292.15H342.516V292.829H340.583V298.635ZM394.493 298.635H401.503L401.503 284.804H394.492L394.493 298.635ZM465.718 298.635H473.014L473.014 284.804H465.718L465.718 298.635ZM500.04 298.635H503.596V289.744H500.04V298.635ZM195.477 292.359H218.895V291.648L195.477 286.766V292.359ZM283.661 292.359H294.336V292.15H296.269V284.804H283.661L283.661 292.359Z" fill="#DFE3E0"/>
<path d="M248.937 365.977C251.184 365.977 253.005 365.12 253.005 364.063C253.005 363.1 251.489 362.302 249.517 362.169L249.704 359.476C250.17 359.481 250.637 359.485 251.106 359.485C256.794 359.485 262.338 359.042 267.559 358.191L269.198 360.38C267.72 360.665 266.678 361.35 266.678 362.15C266.678 363.207 268.498 364.063 270.745 364.063C272.991 364.063 274.812 363.207 274.812 362.15C274.812 361.093 272.991 360.236 270.745 360.236C270.356 360.236 269.982 360.262 269.625 360.31L267.986 358.12C274.317 357.057 280.165 355.391 285.206 353.184L288.178 354.676C287.512 355.017 287.106 355.471 287.106 355.97C287.106 357.027 288.927 357.883 291.174 357.883C293.419 357.883 295.24 357.027 295.24 355.97C295.24 354.914 293.419 354.056 291.174 354.056C290.15 354.056 289.217 354.235 288.501 354.528L285.535 353.039C285.873 352.888 286.209 352.734 286.54 352.578C290.734 350.606 294.092 348.344 296.531 345.889L300.309 346.71C300.172 346.901 300.097 347.106 300.097 347.319C300.097 348.376 301.917 349.233 304.164 349.233C306.41 349.233 308.231 348.376 308.231 347.319C308.231 346.262 306.41 345.406 304.164 345.406C302.531 345.406 301.124 345.859 300.477 346.512L296.722 345.697C298.269 344.102 299.433 342.428 300.187 340.7H298.802C298.067 342.334 296.956 343.918 295.49 345.429L282.72 342.655C284.535 340.779 285.617 338.714 285.795 336.542L296.269 336.702V336.489L285.813 336.33C285.821 336.188 285.824 336.046 285.824 335.905C285.824 333.959 285.096 332.092 283.764 330.36L296.269 328.194V327.968L283.607 330.161C282.009 328.166 279.604 326.355 276.58 324.818L286.838 320.295C290.897 322.349 294.071 324.694 296.269 327.228V325.66C294.114 323.56 291.283 321.607 287.827 319.859L290.941 318.487C291.67 318.815 292.66 319.016 293.749 319.016C294.7 319.016 295.576 318.863 296.269 318.605V315.6C295.576 315.342 294.7 315.188 293.749 315.188C291.503 315.188 289.682 316.046 289.682 317.103C289.682 317.57 290.039 318 290.632 318.332L287.517 319.704C287.197 319.545 286.872 319.387 286.54 319.231C283.365 317.737 279.838 316.469 276.048 315.442L276.961 314.651H275.932L275.261 315.232C274.957 315.153 274.65 315.076 274.341 314.999V315.724C274.433 315.747 274.524 315.771 274.615 315.795L274.341 316.031V316.923L275.402 316.003C279.078 317.001 282.501 318.232 285.582 319.683C285.903 319.833 286.218 319.986 286.529 320.14L276.273 324.662C274.045 323.559 271.493 322.601 268.69 321.824L272.033 318.925H271.006L267.906 321.612C266.807 321.325 265.671 321.065 264.503 320.835L269.083 315.586V315.026L264.084 320.754C260.47 320.065 256.555 319.657 252.459 319.582L252.8 314.651H252.348L252.009 319.574C251.708 319.57 251.408 319.568 251.106 319.568C247.141 319.568 243.33 319.883 239.778 320.461L238.626 318.925H238.147L238.681 319.636L239.352 320.533C239.158 320.565 238.966 320.599 238.775 320.633C237.229 320.911 235.737 321.239 234.306 321.612L231.207 318.925H230.179L233.521 321.824C231.37 322.421 229.366 323.124 227.545 323.918L217.932 319.091C219.162 318.553 220.441 318.048 221.763 317.578V316.783C220.11 317.347 218.521 317.962 217.006 318.625L213.032 316.63C213.886 316.28 214.425 315.763 214.425 315.188C214.425 314.132 212.604 313.275 210.358 313.275C208.112 313.275 206.291 314.132 206.291 315.188C206.291 316.246 208.112 317.103 210.358 317.103C211.219 317.103 212.017 316.977 212.674 316.761L216.677 318.772C216.338 318.922 216.003 319.075 215.672 319.231C211.478 321.204 208.121 323.466 205.679 325.92L201.254 324.959C201.334 324.81 201.378 324.652 201.378 324.49C201.378 323.434 199.556 322.576 197.31 322.576C195.064 322.576 193.244 323.434 193.244 324.49C193.244 325.547 195.064 326.404 197.31 326.404C199.053 326.404 200.539 325.887 201.117 325.163L205.489 326.114C202.795 328.889 201.268 331.908 201.028 335.033L196.263 334.959C196.205 333.927 194.408 333.098 192.199 333.098C189.953 333.098 188.132 333.954 188.132 335.012C188.132 336.068 189.953 336.926 192.199 336.926C194.331 336.926 196.077 336.154 196.251 335.172L201.014 335.245C201 335.465 200.993 335.685 200.993 335.905C200.993 338.694 202.016 341.409 203.978 343.957L199.999 344.646C199.375 343.967 197.938 343.492 196.266 343.492C194.02 343.492 192.199 344.349 192.199 345.406C192.199 346.463 194.02 347.319 196.266 347.319C198.512 347.319 200.333 346.463 200.333 345.406C200.333 345.211 200.271 345.023 200.155 344.845L204.133 344.156C206.401 347.017 209.856 349.66 214.384 351.95L211.27 353.324C210.54 352.995 209.552 352.793 208.463 352.793C206.216 352.793 204.396 353.65 204.396 354.706C204.396 355.764 206.216 356.621 208.463 356.621C210.709 356.621 212.529 355.764 212.529 354.706C212.529 354.24 212.172 353.811 211.581 353.479L214.693 352.105C215.015 352.265 215.34 352.423 215.672 352.578C220.386 354.797 225.874 356.519 231.85 357.688L230.138 359.651C229.749 359.593 229.335 359.561 228.906 359.561C226.66 359.561 224.839 360.418 224.839 361.474C224.839 362.532 226.66 363.388 228.906 363.388C231.152 363.388 232.973 362.532 232.973 361.474C232.973 360.696 231.982 360.024 230.56 359.726L232.268 357.769C235.525 358.39 238.924 358.848 242.419 359.134C244.662 359.317 246.942 359.43 249.252 359.469L249.067 362.151L248.937 362.15C246.691 362.15 244.871 363.006 244.871 364.063C244.871 365.12 246.691 365.977 248.937 365.977ZM262.433 351.348L267.108 357.588C262.03 358.415 256.637 358.847 251.106 358.847C250.651 358.847 250.199 358.844 249.748 358.838L250.204 352.236C250.503 352.24 250.804 352.242 251.106 352.242C255.07 352.242 258.881 351.926 262.433 351.348ZM241.709 351.632C244.283 351.973 246.976 352.178 249.752 352.228L249.296 358.831C246.949 358.792 244.632 358.674 242.357 358.481C239.063 358.202 235.858 357.764 232.783 357.179L238.127 351.056C239.291 351.278 240.486 351.471 241.709 351.632ZM274.667 347.893L284.279 352.718C279.377 354.864 273.691 356.485 267.534 357.518L262.86 351.277C267.28 350.527 271.284 349.366 274.667 347.893ZM225.939 347.147C229.233 348.779 233.234 350.092 237.709 350.976L232.365 357.098C226.553 355.959 221.215 354.284 216.63 352.127C216.309 351.977 215.994 351.824 215.683 351.67L225.939 347.147ZM282.529 342.848L295.301 345.622C292.927 348.009 289.66 350.208 285.582 352.127C285.261 352.279 284.936 352.427 284.608 352.573L274.998 347.748C278.111 346.355 280.676 344.695 282.529 342.848ZM251.799 337.15L262.208 351.047C258.726 351.614 254.992 351.923 251.106 351.923C250.811 351.923 250.519 351.921 250.225 351.917L251.243 337.19C251.434 337.185 251.619 337.172 251.799 337.15ZM250.28 337.131C250.445 337.157 250.615 337.173 250.792 337.183L249.774 351.909C246.976 351.858 244.264 351.647 241.677 351.296C240.555 351.144 239.456 350.965 238.384 350.762L241.309 347.41L250.28 337.131ZM218.605 341.649C220.203 343.644 222.607 345.454 225.631 346.991L215.372 351.515C210.972 349.288 207.611 346.717 205.406 343.935L218.605 341.649ZM252.803 336.913L274.204 347.66C270.889 349.103 266.965 350.241 262.634 350.976L252.225 337.078C252.433 337.035 252.627 336.979 252.803 336.913ZM241.261 346.905L237.966 350.681C233.581 349.814 229.662 348.528 226.433 346.929L240.67 340.652L249.272 336.859C249.449 336.934 249.647 336.999 249.862 337.05L241.261 346.905ZM253.485 336.539L281.913 342.714C280.099 344.525 277.585 346.151 274.535 347.514L253.134 336.768C253.269 336.697 253.386 336.621 253.485 336.539ZM240.643 340.372L226.125 346.774C223.163 345.267 220.807 343.494 219.241 341.539L240.406 337.872L248.627 336.448C248.718 336.54 248.832 336.625 248.963 336.704L240.643 340.372ZM202.368 335.266L216.398 335.48C216.392 335.621 216.387 335.763 216.387 335.905C216.387 337.85 217.115 339.717 218.448 341.449L205.251 343.736C203.345 341.259 202.349 338.617 202.349 335.905C202.349 335.691 202.357 335.477 202.368 335.266ZM253.821 336.053L285.118 336.531C284.943 338.659 283.883 340.683 282.105 342.521L253.675 336.346C253.747 336.252 253.796 336.154 253.821 336.053ZM240.386 337.648L219.083 341.339C217.778 339.642 217.064 337.812 217.064 335.905C217.064 335.766 217.068 335.629 217.077 335.49L240.214 335.844L248.375 335.97C248.385 336.065 248.418 336.159 248.471 336.248L240.386 337.648ZM283.128 330.47C284.433 332.168 285.146 333.998 285.146 335.905C285.146 336.043 285.143 336.181 285.135 336.319L253.837 335.841C253.826 335.744 253.794 335.651 253.742 335.561L283.128 330.47ZM240.003 333.61L248.536 335.464C248.464 335.556 248.414 335.655 248.39 335.756L240.195 335.631L217.094 335.278C217.268 333.15 218.328 331.126 220.108 329.288L240.003 333.61ZM276.086 325.036C279.049 326.542 281.404 328.316 282.97 330.272L253.585 335.362C253.511 335.288 253.424 335.218 253.322 335.152L253.509 334.99L276.086 325.036ZM239.693 330.329L248.326 334.665L248.888 335.153L248.726 335.271L239.98 333.372L220.299 329.096C222.114 327.285 224.626 325.658 227.676 324.295L239.693 330.329ZM206.72 326.38L219.492 329.154C217.676 331.031 216.594 333.096 216.416 335.267L202.382 335.054C202.616 332.015 204.101 329.08 206.72 326.38ZM239.578 320.834L249.987 334.731C249.837 334.762 249.695 334.8 249.561 334.844L239.276 325.923L234.628 321.893C235.969 321.542 237.364 321.234 238.807 320.969C239.062 320.923 239.319 320.878 239.578 320.834ZM264.245 321.129C265.391 321.355 266.505 321.611 267.582 321.893L252.651 334.844C252.555 334.813 252.454 334.785 252.35 334.759L264.245 321.129ZM252.437 319.9C256.449 319.973 260.285 320.375 263.827 321.048L251.932 334.678C251.768 334.654 251.597 334.636 251.421 334.627L252.437 319.9ZM251.106 319.886C251.4 319.886 251.694 319.889 251.986 319.892L250.968 334.62C250.778 334.624 250.592 334.637 250.413 334.66L240.004 320.763C243.484 320.195 247.22 319.886 251.106 319.886ZM268.367 322.104C271.105 322.866 273.6 323.802 275.778 324.88L254.192 334.399L268.367 322.104ZM239.367 326.894L247.475 333.926L239.661 330.002L228.007 324.15C229.789 323.375 231.745 322.688 233.844 322.104L239.367 326.894ZM217.604 319.236L227.214 324.062C224.101 325.454 221.534 327.114 219.683 328.962L206.91 326.188C209.285 323.801 212.552 321.601 216.63 319.683C216.951 319.531 217.276 319.384 217.604 319.236ZM218.895 309.139V308.247L207.813 298.635L202.669 294.174H218.895V292.359H195.477V293.566H197.24V294.174H201.641L206.784 298.635L218.895 309.139ZM283.661 308.84L295.427 298.635L296.269 297.905V297.012L294.398 298.635L283.661 307.947V308.84ZM283.661 294.174H296.269V292.829H294.336L294.336 292.359H283.661V294.174Z" fill="#DFE3E0"/>
<path d="M182.383 320.834H174.373L174.373 308.844L182.383 308.844V320.834Z" fill="#DFE3E0"/>
<path d="M119.29 306.825H107.182V296.778H119.29V306.825Z" fill="#DFE3E0"/>
<path d="M119.29 355.097H123.273V346.582H124.547V355.097H127.575V350.681H128.85V355.097H131.479V343.945H132.753V344.631C132.926 344.53 133.17 344.468 133.439 344.468C133.965 344.468 134.392 344.708 134.392 345.003C134.392 345.298 133.965 345.538 133.439 345.538C133.17 345.538 132.926 345.476 132.753 345.376V355.097H156.254V335.176H147.426V338.471H137.789L136.349 340.624H133.969V344.468H132.907V340.624H128.49V335.992V335.176H124.83V333.007H121.649V331.312H123.106V296.778L119.29 296.778V306.825V355.097Z" fill="#DFE3E0"/>
<path d="M70.2178 325.85H71.5833V324.662H76.3627V325.85H77.5468V324.662H80.8919V325.85H87.823V322.702H105.269V325.85H107.182L107.182 306.825V296.778L107.182 284.804H79.2196L79.7774 284.804V294.174H79.2197V314.1H80.8919V315.498H67.2441L70.2178 325.85Z" fill="#DFE3E0"/>
<path d="M79.7774 294.174H79.2197L79.2196 284.804L79.7774 284.804V294.174Z" fill="#DFE3E0"/>
<path d="M127.575 369.783H128.85L128.85 350.681H127.575V355.097L127.575 369.783Z" fill="#DFE3E0"/>
<path d="M123.273 365.684H124.547V346.582H123.273V355.097L123.273 365.684Z" fill="#DFE3E0"/>
<path d="M131.479 363.046H132.753L132.753 345.376C132.586 345.279 132.484 345.148 132.484 345.003C132.484 344.858 132.586 344.727 132.753 344.631V343.945H131.479V355.097L131.479 363.046Z" fill="#DFE3E0"/>
<path d="M87.8229 329.168H89.7358V327.838H103.357V329.168H105.269L105.269 325.85V322.702H87.823V325.85L87.8229 329.168Z" fill="#DFE3E0"/>
<path d="M89.7358 331.473H103.357L103.357 327.838H89.7358V329.168L89.7358 331.473Z" fill="#DFE3E0"/>
<path d="M77.5466 327.273H80.8918L80.8919 324.662H77.5468V325.85L77.5466 327.273Z" fill="#DFE3E0"/>
<path d="M71.5833 329.656H76.3627V324.662H71.5833V325.85V329.656Z" fill="#DFE3E0"/>
<path d="M296.269 338.161H340.583V329.401L296.269 329.401L296.269 336.489V336.702L296.269 338.161ZM305.698 330.584V335.953H301.094V330.584H305.698ZM315.998 330.584V335.953H311.393V330.584H315.998ZM326.296 330.584V335.953H321.691V330.584H326.296ZM336.595 330.584V335.953H331.991V330.584H336.595ZM296.269 328.722H340.583V320.259L296.269 320.259L296.269 325.66V327.228V327.968V328.194L296.269 328.722ZM305.698 321.806V327.176H301.094V321.806H305.698ZM315.998 321.806V327.176H311.393V321.806H315.998ZM326.296 321.806V327.176H321.691V321.806H326.296ZM336.595 321.806V327.176H331.991V321.806H336.595ZM296.269 319.58H340.583V311.116H296.269L296.269 315.6V318.605L296.269 319.58ZM305.698 312.662V318.033H301.094V312.662H305.698ZM315.998 312.662V318.033H311.393V312.662H315.998ZM326.296 312.662V318.033H321.691V312.662H326.296ZM336.595 312.662V318.033H331.991V312.662H336.595ZM296.269 310.437L340.583 310.437V301.973H296.269V310.437ZM305.698 303.521V308.889H301.094V303.521H305.698ZM315.998 303.521V308.889H311.393V303.521H315.998ZM326.296 303.521V308.889H321.691V303.521H326.296ZM336.595 303.521V308.889H331.991V303.521H336.595ZM296.269 301.294H340.583V298.635V292.829L296.269 292.829V294.174V297.012V297.905V298.635L296.269 301.294ZM305.698 294.377V299.747H301.094V294.377H305.698ZM315.998 294.377V299.747H311.393V294.377H315.998ZM326.296 294.377V299.747H321.691V294.377H326.296ZM336.595 294.377V299.747H331.991V294.377H336.595ZM296.269 292.15H340.583V284.804V283.687H296.269V284.804V292.15ZM305.698 285.234V290.604H301.094V285.234H305.698ZM315.998 285.234V290.604H311.393V285.234H315.998ZM326.296 285.234V290.604H321.691V285.234H326.296ZM336.595 285.234V290.604H331.991V285.234H336.595ZM304.398 283.008L340.583 283.008V276.09L336.595 276.09V281.461H331.991V276.09H326.296V281.461H321.691V276.09V272.031H340.583H296.269H304.398V276.09H305.698V281.461H304.398V283.008ZM315.998 276.09V281.461H311.393V276.09H315.998Z" fill="#D6DCD9"/>
<path d="M292.96 338.842H343.893V338.161H292.96V338.842Z" fill="#D6DCD9"/>
<path d="M294.336 329.401H342.516V328.722H294.336V329.401Z" fill="#D6DCD9"/>
<path d="M294.336 320.259H342.516V319.58H294.336V320.259Z" fill="#D6DCD9"/>
<path d="M294.336 311.116H342.516V310.437L294.336 310.437V311.116Z" fill="#D6DCD9"/>
<path d="M294.336 301.973H342.516V301.294H294.336V301.973Z" fill="#D6DCD9"/>
<path d="M294.336 292.829L342.516 292.829V292.15H294.336V292.359L294.336 292.829Z" fill="#D6DCD9"/>
<path d="M294.336 283.687H342.516V283.008L304.398 283.008L304.398 283.376H294.336V283.687Z" fill="#D6DCD9"/>
<path d="M291.275 340.7H322.714V339.771H337.786V340.7H345.578V338.842H291.275V340.7Z" fill="#D6DCD9"/>
<path d="M336.595 335.953H331.991V330.584H336.595V335.953Z" fill="#D6DCD9"/>
<path d="M326.296 335.953H321.691V330.584H326.296V335.953Z" fill="#D6DCD9"/>
<path d="M315.998 335.953H311.393V330.584H315.998V335.953Z" fill="#D6DCD9"/>
<path d="M305.698 335.953H301.094V330.584H305.698V335.953Z" fill="#D6DCD9"/>
<path d="M336.595 327.176H331.991V321.806H336.595V327.176Z" fill="#D6DCD9"/>
<path d="M326.296 327.176H321.691V321.806H326.296V327.176Z" fill="#D6DCD9"/>
<path d="M315.998 327.176H311.393V321.806H315.998V327.176Z" fill="#D6DCD9"/>
<path d="M305.698 327.176H301.094V321.806H305.698V327.176Z" fill="#D6DCD9"/>
<path d="M336.595 318.033H331.991V312.662H336.595V318.033Z" fill="#D6DCD9"/>
<path d="M326.296 318.033H321.691V312.662H326.296V318.033Z" fill="#D6DCD9"/>
<path d="M315.998 318.033H311.393V312.662H315.998V318.033Z" fill="#D6DCD9"/>
<path d="M305.698 318.033H301.094V312.662H305.698V318.033Z" fill="#D6DCD9"/>
<path d="M336.595 308.889H331.991V303.521H336.595V308.889Z" fill="#D6DCD9"/>
<path d="M326.296 308.889H321.691V303.521H326.296V308.889Z" fill="#D6DCD9"/>
<path d="M315.998 308.889H311.393V303.521H315.998V308.889Z" fill="#D6DCD9"/>
<path d="M305.698 308.889H301.094V303.521H305.698V308.889Z" fill="#D6DCD9"/>
<path d="M336.595 299.747H331.991V294.377H336.595V299.747Z" fill="#D6DCD9"/>
<path d="M326.296 299.747H321.691V294.377H326.296V299.747Z" fill="#D6DCD9"/>
<path d="M315.998 299.747H311.393V294.377H315.998V299.747Z" fill="#D6DCD9"/>
<path d="M305.698 299.747H301.094V294.377H305.698V299.747Z" fill="#D6DCD9"/>
<path d="M336.595 290.604H331.991V285.234H336.595V290.604Z" fill="#D6DCD9"/>
<path d="M326.296 290.604H321.691V285.234H326.296V290.604Z" fill="#D6DCD9"/>
<path d="M315.998 290.604H311.393V285.234H315.998V290.604Z" fill="#D6DCD9"/>
<path d="M305.698 290.604H301.094V285.234H305.698V290.604Z" fill="#D6DCD9"/>
<path d="M336.595 281.461H331.991V276.09H336.595V281.461Z" fill="#D6DCD9"/>
<path d="M326.296 281.461H321.691V276.09H326.296V281.461Z" fill="#D6DCD9"/>
<path d="M315.998 281.461H311.393V276.09H315.998V281.461Z" fill="#D6DCD9"/>
<path d="M305.698 281.461H304.398V276.09H305.698V281.461Z" fill="#D6DCD9"/>
<path d="M322.715 342.765H337.786L337.786 339.771H322.714V340.7L322.715 342.765Z" fill="#D6DCD9"/>
<path d="M321.691 343.361H338.809V342.765H321.691V343.361Z" fill="#D6DCD9"/>
<path d="M406.689 342.385L416.26 341.283L416.26 272.031H421.447L421.447 340.687L422.24 340.595L431.017 339.586V272.031H436.203H460.532H463.125H404.095H408.032V283.376H406.689L406.689 342.385ZM414.916 326.625V331.56H408.032V326.625H414.916ZM429.674 326.625V331.56H422.789V326.625H429.674ZM414.916 318.033V322.967H408.032V318.033H414.916ZM429.674 318.033V322.967H422.789V318.033H429.674ZM414.916 309.438V314.374H408.032V309.438H414.916ZM429.674 309.438V314.374H422.789V309.438H429.674ZM414.916 300.846V305.78H408.032V300.846H414.916ZM429.674 300.846V305.78H422.789V300.846H429.674ZM414.916 292.252V297.188H408.032V292.252H414.916ZM429.674 292.252V297.188H422.789V292.252H429.674ZM414.916 283.659V288.594H408.032V283.659H414.916ZM429.674 283.659V288.594H422.789V283.659H429.674ZM414.916 275.066V280H408.032V275.066H414.916ZM429.674 275.066V280H422.789V275.066H429.674ZM436.203 338.988L445.774 337.887V277.533H444.431V280H437.547V277.533H436.203V338.988ZM444.431 326.625V331.56H437.547V326.625H444.431ZM444.431 318.033V322.967H437.547V318.033H444.431ZM444.431 309.438V314.374H437.547V309.438H444.431ZM444.431 300.846V305.78H437.547V300.846H444.431ZM444.431 292.252V297.188H437.547V292.252H444.431ZM444.431 283.659V288.594H437.547V283.659H444.431ZM450.961 337.29L456.926 336.604L460.532 336.188L460.532 277.533H459.189V280H452.304V277.533H450.961V337.29ZM459.189 326.625V331.56H452.304V326.625H459.189ZM459.189 318.033V322.967H452.304V318.033H459.189ZM459.189 309.438V314.374H452.304V309.438H459.189ZM459.189 300.846V305.78H452.304V300.846H459.189ZM459.189 292.252V297.188H452.304V292.252H459.189ZM459.189 283.659V288.594H452.304V283.659H459.189Z" fill="#D6DCD9"/>
<path d="M460.532 337.014H465.718L465.718 277.533L460.532 277.533L460.532 336.188V337.014Z" fill="#D6DCD9"/>
<path d="M445.774 338.844H450.961L450.961 277.533H445.774V337.887L445.774 338.844Z" fill="#D6DCD9"/>
<path d="M431.017 340.747H436.203V277.533L431.869 277.533V272.031L436.203 272.031H431.017V339.586V340.747Z" fill="#D6DCD9"/>
<path d="M416.26 342.297H421.447L421.447 272.031H416.26L416.26 341.283V342.297Z" fill="#D6DCD9"/>
<path d="M401.503 343.945H406.689L406.689 283.376H401.503V284.804L401.503 298.635V343.945Z" fill="#D6DCD9"/>
<path d="M459.189 331.56H452.304V326.625H459.189V331.56Z" fill="#D6DCD9"/>
<path d="M444.431 331.56H437.547V326.625H444.431V331.56Z" fill="#D6DCD9"/>
<path d="M429.674 331.56H422.789V326.625H429.674V331.56Z" fill="#D6DCD9"/>
<path d="M414.916 331.56H408.032V326.625H414.916V331.56Z" fill="#D6DCD9"/>
<path d="M459.189 322.967H452.304V318.033H459.189V322.967Z" fill="#D6DCD9"/>
<path d="M444.431 322.967H437.547V318.033H444.431V322.967Z" fill="#D6DCD9"/>
<path d="M429.674 322.967H422.789V318.033H429.674V322.967Z" fill="#D6DCD9"/>
<path d="M414.916 322.967H408.032V318.033H414.916V322.967Z" fill="#D6DCD9"/>
<path d="M459.189 314.374H452.304V309.438H459.189V314.374Z" fill="#D6DCD9"/>
<path d="M444.431 314.374H437.547V309.438H444.431V314.374Z" fill="#D6DCD9"/>
<path d="M429.674 314.374H422.789V309.438H429.674V314.374Z" fill="#D6DCD9"/>
<path d="M414.916 314.374H408.032V309.438H414.916V314.374Z" fill="#D6DCD9"/>
<path d="M459.189 305.78H452.304V300.846H459.189V305.78Z" fill="#D6DCD9"/>
<path d="M444.431 305.78H437.547V300.846H444.431V305.78Z" fill="#D6DCD9"/>
<path d="M429.674 305.78H422.789V300.846H429.674V305.78Z" fill="#D6DCD9"/>
<path d="M414.916 305.78H408.032V300.846H414.916V305.78Z" fill="#D6DCD9"/>
<path d="M459.189 297.188H452.304V292.252H459.189V297.188Z" fill="#D6DCD9"/>
<path d="M444.431 297.188H437.547V292.252H444.431V297.188Z" fill="#D6DCD9"/>
<path d="M429.674 297.188H422.789V292.252H429.674V297.188Z" fill="#D6DCD9"/>
<path d="M414.916 297.188H408.032V292.252H414.916V297.188Z" fill="#D6DCD9"/>
<path d="M459.189 288.594H452.304V283.659H459.189V288.594Z" fill="#D6DCD9"/>
<path d="M444.431 288.594H437.547V283.659H444.431V288.594Z" fill="#D6DCD9"/>
<path d="M429.674 288.594H422.789V283.659H429.674V288.594Z" fill="#D6DCD9"/>
<path d="M414.916 288.594H408.032V283.659H414.916V288.594Z" fill="#D6DCD9"/>
<path d="M459.189 280H452.304V277.533H459.189V280Z" fill="#D6DCD9"/>
<path d="M444.431 280H437.547V277.533H444.431V280Z" fill="#D6DCD9"/>
<path d="M429.674 280H422.789V275.066H429.674V280Z" fill="#D6DCD9"/>
<path d="M414.916 280H408.032V275.066H414.916V280Z" fill="#D6DCD9"/>
<path d="M631.514 332.83H650.221V332.167H648.75L648.75 298.635V291.116L629.22 291.116V272.031H648.75H608.218H619.599V277.533L608.218 277.533V284.804L608.218 314.717L608.218 321.239V330.278H625.807H632.917V332.167H631.514V332.83Z" fill="#D6DCD9"/>
<path d="M527.748 306.373H531.161L531.161 305.78H538.101V301.724H539.057V305.78H541.925V300.223H542.642V305.78H544.179V306.373H562.464V293.688L554.535 293.688V277.533H551.899V272.031H562.464H527.748H534.062V289.744H527.748V306.373Z" fill="#D6DCD9"/>
<path d="M685.56 314.245H691.15L691.15 310.888H703.628L703.628 314.245H713.781V284.804L703.628 284.804V272.031H713.781H685.56H691.15V305.45H689.04V306H685.56V314.245Z" fill="#D6DCD9"/>
<path d="M689.04 305.45H691.15V272.031L660.396 272.031H663.699V291.116L660.396 291.116V298.635V304.764L689.04 304.764L689.04 305.45Z" fill="#D6DCD9"/>
<path d="M691.15 315.94L703.628 315.94L703.628 310.888H691.15L691.15 314.245V315.94Z" fill="#D6DCD9"/>
<path d="M656.257 306H689.04L689.04 304.764L656.257 304.764V306Z" fill="#D6DCD9"/>
<path d="M629.22 291.116L663.699 291.116V272.031L629.22 272.031V291.116Z" fill="#D6DCD9"/>
<path d="M747.09 306.639H775.136L775.136 289.392H762.578V272.031H775.136H747.09V284.804V306.639Z" fill="#D6DCD9"/>
<path d="M762.578 289.392H799.476L799.476 278.358L766.957 278.358V272.031H799.476L775.136 272.031H762.578V289.392Z" fill="#D6DCD9"/>
<path d="M817.025 292.23H840.105V280.403L833.042 280.403V272.031H840.105H817.025H821.506V278.358L817.025 278.358V284.804V291.045V292.23Z" fill="#D6DCD9"/>
<path d="M766.957 278.358H821.506V272.031H766.957V278.358Z" fill="#D6DCD9"/>
<path d="M833.042 280.403L861 280.403V272.031L833.042 272.031V280.403Z" fill="#D6DCD9"/>
<path d="M703.628 284.804L747.09 284.804V272.031H703.628V284.804Z" fill="#D6DCD9"/>
<path d="M551.899 277.533H554.535V274.783H591.148L589.564 277.533H608.218L619.599 277.533V272.031H608.218H562.464H551.899V277.533Z" fill="#D6DCD9"/>
<path d="M431.869 277.533L473.014 277.533L473.014 275.066H491.997V272.031H499.568H460.532H436.203L431.869 272.031V277.533Z" fill="#D6DCD9"/>
<path d="M554.535 293.688H580.267L585.379 284.804L589.564 277.533L591.148 274.783H554.535V277.533V293.688Z" fill="#D6DCD9"/>
<path d="M541.925 321.196H542.642V312.383H541.925L541.925 315.898V321.196ZM541.925 305.78H542.642V300.223H541.925V305.78Z" fill="#D6DCD9"/>
<path d="M538.101 314.1H539.057V312.383H538.101V314.1ZM538.101 305.78H539.057V301.724H538.101V305.78Z" fill="#D6DCD9"/>
<path d="M531.161 311.833H544.179V305.78H531.161L531.161 306.373V311.833Z" fill="#D6DCD9"/>
<path d="M529.135 312.383L546.377 312.383V311.833H529.135V312.383Z" fill="#D6DCD9"/>
<path d="M500.04 289.744H534.062V272.031L491.997 272.031V275.066L500.04 275.066L500.04 289.744Z" fill="#D6DCD9"/>
<path d="M473.014 309.244H500.04L500.04 275.066L473.014 275.066L473.014 277.533V284.804L473.014 298.635V309.244Z" fill="#D6DCD9"/>
<path d="M351.314 302.818H394.493L394.492 283.376H358.802V272.031H394.493H351.314H353.704V276.09H351.314V284.804L351.314 298.635V302.818Z" fill="#D6DCD9"/>
<path d="M358.802 283.376H408.032V272.031H358.802V283.376Z" fill="#D6DCD9"/>
<path d="M321.691 276.09L353.704 276.09V272.031H351.314L340.583 272.031H321.691V276.09Z" fill="#D6DCD9"/>
<path d="M283.661 283.376H304.398L304.398 272.031H252.35H283.661V283.376Z" fill="#D6DCD9"/>
<path d="M218.895 313.077H221.763V310.602H250.226V313.077H278.777H283.661V308.84V307.947V298.635V294.174V292.359L283.661 284.804V283.376V272.031H252.35H218.895H219.241V291.719L218.895 291.648V292.359V294.174L218.895 298.635V308.247V309.139V313.077Z" fill="#D6DCD9"/>
<path d="M215.117 314.651H221.763V313.077H215.117V314.651ZM250.226 314.651H252.348H252.8H259.524V313.864H264.303V314.651H269.083V313.864H274.341V314.651H275.932H276.961H285.334V313.077L278.777 313.077H250.226V314.651Z" fill="#D6DCD9"/>
<path d="M221.763 318.925H250.226V310.602H221.763V313.077V314.651V316.783V317.578V318.925Z" fill="#D6DCD9"/>
<path d="M259.524 318.925H264.303L264.303 313.864H259.524V314.651L259.524 318.925Z" fill="#D6DCD9"/>
<path d="M269.083 318.925H274.342L274.341 313.864H269.083V314.651V315.026V315.586L269.083 318.925Z" fill="#D6DCD9"/>
<path d="M123.106 331.312H124.829V327.123H172.65V331.312H174.373V320.834L174.373 308.844L169.312 308.844V272.031H174.372H123.106H130.124V296.778L123.106 296.778V331.312Z" fill="#D6DCD9"/>
<path d="M121.649 333.007H124.83L124.829 331.312H121.649V333.007ZM172.65 333.007H175.829V331.312H174.373H172.65L172.65 333.007Z" fill="#D6DCD9"/>
<path d="M124.83 335.176H128.49L128.49 329.672H147.426V335.176H156.254H169.312H172.65V333.007L172.65 331.312V327.123H124.829V331.312L124.83 333.007V335.176Z" fill="#D6DCD9"/>
<path d="M137.789 338.471H147.426V329.672H128.49L128.49 335.176V335.992H132.907V334.151H133.969V335.992H139.448L137.789 338.471Z" fill="#D6DCD9"/>
<path d="M128.49 340.624H132.907L132.907 335.992H128.49V340.624ZM133.969 340.624H136.349L137.789 338.471L139.448 335.992H133.969L133.969 340.624Z" fill="#D6DCD9"/>
<path d="M132.907 344.468H133.969L133.969 334.151H132.907V335.992L132.907 340.624V344.468Z" fill="#D6DCD9"/>
<path d="M133.439 345.538C133.965 345.538 134.392 345.298 134.392 345.003C134.392 344.708 133.965 344.468 133.439 344.468C133.17 344.468 132.926 344.53 132.753 344.631C132.586 344.727 132.484 344.858 132.484 345.003C132.484 345.148 132.586 345.279 132.753 345.376C132.926 345.476 133.17 345.538 133.439 345.538Z" fill="#D6DCD9"/>
<path d="M107.182 296.778L130.124 296.778V272.031H123.106L107.182 272.031H114.715V282.724L107.182 282.724V284.804L107.182 296.778Z" fill="#D6DCD9"/>
<path d="M169.312 308.844L195.477 308.844L195.477 286.766L188.132 285.234L182.383 272.031H195.477L174.372 272.031H169.312V308.844Z" fill="#D6DCD9"/>
<path d="M219.241 291.719V272.031H182.383L188.132 285.234L195.477 286.766L218.895 291.648L219.241 291.719Z" fill="#D6DCD9"/>
<path d="M79.2196 282.724L114.715 282.724V272.031H58.4283H79.2197L79.2196 282.724Z" fill="#D6DCD9"/>
<path d="M46.5231 314.1H50.9046V312.919H51.6221V314.1H55.6849V313.532H56.4006V314.1L79.2197 314.1V294.174L79.2196 284.804V282.724L79.2197 272.031H58.4283L46.5231 272.031H54.1707V280H48.9927V298.635H46.5231V314.1Z" fill="#D6DCD9"/>
<path d="M-6.10352e-05 280L28.4937 280L28.2003 279.079H48.9927L48.9927 280H54.1707V272.031H46.5231L-6.10352e-05 272.031V280Z" fill="#D6DCD9"/>
<path d="M45.0268 315.498H50.9045L50.9046 314.1L45.0268 314.1V315.498ZM51.6221 315.498H55.6848L55.6849 314.1H51.6221V315.498ZM56.4006 315.498L67.2441 315.498H80.8919V314.1H79.2197L56.4006 314.1L56.4006 315.498Z" fill="#D6DCD9"/>
<path d="M50.9047 321.522H51.6222L51.6221 312.919H50.9046V314.1L50.9045 315.498L50.9047 321.522Z" fill="#D6DCD9"/>
<path d="M55.685 320.433H56.4007L56.4006 313.532H55.6849V314.1L55.6848 315.498L55.685 320.433Z" fill="#D6DCD9"/>
<path d="M34.4138 298.635L48.9927 298.635L48.9927 279.079H28.2003L28.4937 280L30.4394 286.126L32.9965 294.174L34.4138 298.635Z" fill="#D6DCD9"/>
<path d="M625.807 235.996H587.814V88.5079H625.807V235.996Z" fill="#B5C3C2"/>
<path d="M619.599 139.913H594.021V77.9341H619.599V139.913Z" fill="#B5C3C2"/>
<path d="M613.904 105.605H599.716V71.2271H613.904V105.605Z" fill="#B5C3C2"/>
<path d="M601.976 88.8931H611.644V65.4635H601.976V88.8931Z" fill="#B5C3C2"/>
<path d="M607.446 78.6903H608.496V55.2616H607.446V78.6903Z" fill="#B5C3C2"/>
<path d="M605.124 70.5915H606.173V47.1629H605.124V70.5915Z" fill="#B5C3C2"/>
<path d="M586.8 89.7011H626.82V88.13H586.8V89.7011Z" fill="#B5C3C2"/>
<path d="M593.088 78.6903H620.532V77.1778H593.088V78.6903Z" fill="#B5C3C2"/>
<path d="M599.121 71.7508H614.938V70.5914H599.121V71.7508Z" fill="#B5C3C2"/>
<path d="M617.247 86.944H616.058V80.4495H617.247V86.944Z" fill="#B5C3C2"/>
<path d="M613.957 86.944H613.904V80.4495H613.957V86.944Z" fill="#B5C3C2"/>
<path d="M613.904 86.944H612.767V80.4495H613.904V86.944Z" fill="#B5C3C2"/>
<path d="M610.666 86.944H609.477V80.4495H610.666V86.944Z" fill="#B5C3C2"/>
<path d="M607.377 86.944H606.188V80.4495H607.377V86.944Z" fill="#B5C3C2"/>
<path d="M604.087 86.944H602.897V80.4495H604.087V86.944Z" fill="#B5C3C2"/>
<path d="M599.717 86.944H599.608V80.4495H599.717V86.944Z" fill="#B5C3C2"/>
<path d="M600.796 86.944H599.717V80.4495H600.796V86.944Z" fill="#B5C3C2"/>
<path d="M597.507 86.944H596.318V80.4495H597.507V86.944Z" fill="#B5C3C2"/>
<path d="M619.599 102.093H622.472V94.3888H619.599V102.093Z" fill="#B5C3C2"/>
<path d="M616.782 102.094H613.908V94.3891H616.782V102.094Z" fill="#B5C3C2"/>
<path d="M608.218 102.093H611.091V94.3888H608.218V102.093Z" fill="#B5C3C2"/>
<path d="M602.529 102.093H605.402V94.3888H602.529V102.093Z" fill="#B5C3C2"/>
<path d="M596.839 102.093H599.711V94.3888H596.839V102.093Z" fill="#B5C3C2"/>
<path d="M591.148 102.093H594.021V94.3888H591.148V102.093Z" fill="#B5C3C2"/>
<path d="M619.599 114.104H622.472V106.399H619.599V114.104Z" fill="#B5C3C2"/>
<path d="M613.909 114.104H616.782V106.399H613.909V114.104Z" fill="#B5C3C2"/>
<path d="M608.218 114.104H611.091V106.399H608.218V114.104Z" fill="#B5C3C2"/>
<path d="M605.402 114.104H602.529V106.398H605.402V114.104Z" fill="#B5C3C2"/>
<path d="M596.839 114.104H599.711V106.399H596.839V114.104Z" fill="#B5C3C2"/>
<path d="M591.148 114.104H594.021V106.399H591.148V114.104Z" fill="#B5C3C2"/>
<path d="M619.599 126.114H622.472V118.409H619.599V126.114Z" fill="#B5C3C2"/>
<path d="M613.909 126.114H616.782V118.409H613.909V126.114Z" fill="#B5C3C2"/>
<path d="M608.218 126.114H611.091V118.409H608.218V126.114Z" fill="#B5C3C2"/>
<path d="M602.529 126.114H605.402V118.409H602.529V126.114Z" fill="#B5C3C2"/>
<path d="M599.711 126.114H596.839V118.409H599.711V126.114Z" fill="#B5C3C2"/>
<path d="M594.021 126.114H591.148V118.409H594.021V126.114Z" fill="#B5C3C2"/>
<path d="M622.472 138.124H619.599V130.419H622.472V138.124Z" fill="#B5C3C2"/>
<path d="M613.909 138.124H616.782V130.419H613.909V138.124Z" fill="#B5C3C2"/>
<path d="M608.218 138.124H611.091V130.419H608.218V138.124Z" fill="#B5C3C2"/>
<path d="M602.529 138.124H605.402V130.419H602.529V138.124Z" fill="#B5C3C2"/>
<path d="M596.839 138.124H599.711V130.419H596.839V138.124Z" fill="#B5C3C2"/>
<path d="M591.148 138.124H594.021V130.419H591.148V138.124Z" fill="#B5C3C2"/>
<path d="M619.599 150.135H622.472V142.429H619.599V150.135Z" fill="#B5C3C2"/>
<path d="M616.782 150.135H613.908V142.43H616.782V150.135Z" fill="#B5C3C2"/>
<path d="M608.218 150.135H611.091V142.429H608.218V150.135Z" fill="#B5C3C2"/>
<path d="M605.402 150.135H602.529V142.43H605.402V150.135Z" fill="#B5C3C2"/>
<path d="M596.839 150.135H599.711V142.429H596.839V150.135Z" fill="#B5C3C2"/>
<path d="M591.148 150.135H594.021V142.429H591.148V150.135Z" fill="#B5C3C2"/>
<path d="M619.599 162.144H622.472V154.44H619.599V162.144Z" fill="#B5C3C2"/>
<path d="M613.909 162.144H616.782V154.44H613.909V162.144Z" fill="#B5C3C2"/>
<path d="M608.218 162.144H611.091V154.44H608.218V162.144Z" fill="#B5C3C2"/>
<path d="M602.529 162.144H605.402V154.44H602.529V162.144Z" fill="#B5C3C2"/>
<path d="M596.839 162.144H599.711V154.44H596.839V162.144Z" fill="#B5C3C2"/>
<path d="M594.021 162.144H591.148V154.44H594.021V162.144Z" fill="#B5C3C2"/>
<path d="M619.599 174.155H622.472V166.45H619.599V174.155Z" fill="#B5C3C2"/>
<path d="M616.782 174.155H613.908V166.449H616.782V174.155Z" fill="#B5C3C2"/>
<path d="M611.091 174.155H608.218V166.449H611.091V174.155Z" fill="#B5C3C2"/>
<path d="M602.529 174.155H605.402V166.45H602.529V174.155Z" fill="#B5C3C2"/>
<path d="M596.839 174.155H599.711V166.45H596.839V174.155Z" fill="#B5C3C2"/>
<path d="M591.148 174.155H594.021V166.45H591.148V174.155Z" fill="#B5C3C2"/>
<path d="M619.599 186.165H622.472V178.46H619.599V186.165Z" fill="#B5C3C2"/>
<path d="M613.909 186.165H616.782V178.46H613.909V186.165Z" fill="#B5C3C2"/>
<path d="M608.218 186.165H611.091V178.46H608.218V186.165Z" fill="#B5C3C2"/>
<path d="M602.529 186.165H605.402V178.46H602.529V186.165Z" fill="#B5C3C2"/>
<path d="M599.711 186.165H596.839V178.46H599.711V186.165Z" fill="#B5C3C2"/>
<path d="M591.148 186.165H594.021V178.46H591.148V186.165Z" fill="#B5C3C2"/>
<path d="M619.599 198.175H622.472V190.47H619.599V198.175Z" fill="#B5C3C2"/>
<path d="M616.782 198.175H613.908V190.47H616.782V198.175Z" fill="#B5C3C2"/>
<path d="M608.218 198.175H611.091V190.47H608.218V198.175Z" fill="#B5C3C2"/>
<path d="M602.529 198.175H605.402V190.47H602.529V198.175Z" fill="#B5C3C2"/>
<path d="M596.839 198.175H599.711V190.47H596.839V198.175Z" fill="#B5C3C2"/>
<path d="M591.148 198.175H594.021V190.47H591.148V198.175Z" fill="#B5C3C2"/>
<path d="M619.599 210.186H622.472V202.48H619.599V210.186Z" fill="#B5C3C2"/>
<path d="M613.909 210.186H616.782V202.48H613.909V210.186Z" fill="#B5C3C2"/>
<path d="M608.218 210.186H611.091V202.48H608.218V210.186Z" fill="#B5C3C2"/>
<path d="M605.402 210.186H602.529V202.48H605.402V210.186Z" fill="#B5C3C2"/>
<path d="M596.839 210.186H599.711V202.48H596.839V210.186Z" fill="#B5C3C2"/>
<path d="M594.021 210.186H591.148V202.48H594.021V210.186Z" fill="#B5C3C2"/>
<path d="M622.472 222.195H619.599V214.49H622.472V222.195Z" fill="#B5C3C2"/>
<path d="M613.909 222.195H616.782V214.49H613.909V222.195Z" fill="#B5C3C2"/>
<path d="M611.091 222.195H608.218V214.49H611.091V222.195Z" fill="#B5C3C2"/>
<path d="M602.529 222.195H605.402V214.49H602.529V222.195Z" fill="#B5C3C2"/>
<path d="M596.839 222.195H599.711V214.49H596.839V222.195Z" fill="#B5C3C2"/>
<path d="M591.148 222.195H594.021V214.49H591.148V222.195Z" fill="#B5C3C2"/>
<path d="M736.149 218.364H675.074V94.1183H736.149V218.364Z" fill="#B5C3C2"/>
<path d="M673.338 95.4941H737.884V91.9822H673.338V95.4941Z" fill="#B5C3C2"/>
<path d="M734.096 104.178H677.127V87.487H734.096V104.178Z" fill="#B5C3C2"/>
<path d="M707.176 98.895H729.735V80.6567H707.176V98.895Z" fill="#B5C3C2"/>
<path d="M716.68 85.7966H729.735V76.1964H720.372L716.68 85.7966Z" fill="#B5C3C2"/>
<path d="M724.473 89.6121H723.207V68.2279H724.473V89.6121Z" fill="#B5C3C2"/>
<path d="M722.704 67.1199C722.704 67.7317 723.213 68.2279 723.84 68.2279C724.468 68.2279 724.977 67.7317 724.977 67.1199C724.977 66.5072 724.468 66.011 723.84 66.011C723.213 66.011 722.704 66.5072 722.704 67.1199Z" fill="#B5C3C2"/>
<path d="M169.312 227.822H236.167L244.51 45.1477L169.312 60.3703V227.822Z" fill="#B5C3C2"/>
<path d="M460.988 123.499V62.4248H471.473V46.0658H475.219V22.0731H495.856V4.44013H497.693V22.0731H501.736V0H503.572V22.0731H516.618V62.4248H523.358V123.499H529.135V234.738H456.926V123.499H460.988Z" fill="#B5C3C2"/>
<path d="M821.506 244.086H22.7155V225.558H821.506V244.086Z" fill="#B5C3C2"/>
<path d="M351.314 239.547H386.686L372.903 170.468H351.314V239.547Z" fill="#95A9A7"/>
<path d="M850.165 271.452H11.4719V242.236H850.165V271.452Z" fill="#95A9A7"/>
<path d="M380.301 111.717V81.1061H391.658V69.4532H397.734V59.6641H399.866V42.8823H400.417V59.6641H402.55V69.4532H408.626V81.1061H419.897V111.717H422.24V167.292H439.714V230.644H378.045V111.717H380.301Z" fill="#95A9A7"/>
<path d="M315.028 146.881H370.001V147.855H367.515V238.51H317.517V147.855H315.028V146.881Z" fill="#95A9A7"/>
<path d="M565.705 244.978H614.445V169.461H565.705V244.978Z" fill="#95A9A7"/>
<path d="M621.787 244.978H705.611V208.151H621.787V244.978Z" fill="#95A9A7"/>
<path d="M642.28 125.875H660.681V216.31H642.28V125.875Z" fill="#95A9A7"/>
<path d="M655.662 150.931H656.619V101.751H655.662V150.931Z" fill="#95A9A7"/>
<path d="M652.556 154.66H653.511V105.48H652.556V154.66Z" fill="#95A9A7"/>
<path d="M648.015 132.401H659.262V120.281H648.015V132.401Z" fill="#95A9A7"/>
<path d="M593.047 244.978H625.072V182.979H593.047V244.978Z" fill="#95A9A7"/>
<path d="M557.805 244.978H497.69V117.369H557.805V244.978Z" fill="#95A9A7"/>
<path d="M551.899 134.237H503.596V112.983H551.899V134.237Z" fill="#95A9A7"/>
<path d="M493.03 121.531H562.464V120.039H493.03V121.531Z" fill="#95A9A7"/>
<path d="M540.371 244.978H568.697V180.532H540.371V244.978Z" fill="#95A9A7"/>
<path d="M739.07 244.978H771.573V178.084H739.07V244.978Z" fill="#95A9A7"/>
<path d="M761.057 244.978H696.29V159.904H761.057V244.978Z" fill="#95A9A7"/>
<path d="M694.618 159.905H764.835V156.641H694.618V159.905Z" fill="#95A9A7"/>
<path d="M729.726 165.033H758.189V147.784H729.726V165.033Z" fill="#95A9A7"/>
<path d="M715.649 158.273H720.429V147.784H715.649V158.273Z" fill="#95A9A7"/>
<path d="M705.611 158.273H710.869V147.784H705.611V158.273Z" fill="#95A9A7"/>
<path d="M755.321 244.978H789.258V219.106H755.321V244.978Z" fill="#95A9A7"/>
<path d="M786.007 244.978H802.076V208.151H786.007V244.978Z" fill="#95A9A7"/>
<path d="M794.041 244.978H821.506V232.042H794.041V244.978Z" fill="#95A9A7"/>
<path d="M503.596 244.978H165.177V216.31H503.596V244.978Z" fill="#95A9A7"/>
<path d="M206.72 158.805L219.492 153.055C217.676 149.167 216.594 144.887 216.416 140.385L202.382 140.83C202.616 147.127 204.101 153.21 206.72 158.805ZM216.63 172.688C216.951 173.001 217.276 173.308 217.604 173.612L227.214 163.609C224.101 160.725 221.534 157.285 219.683 153.454L206.91 159.205C209.285 164.152 212.552 168.71 216.63 172.688ZM226.81 180.314L233.521 168.249C231.37 167.012 229.366 165.554 227.545 163.91L217.932 173.914C220.667 176.393 223.644 178.534 226.81 180.314ZM202.669 225.558H299.543L275.261 181.911C273.671 182.766 272.036 183.534 270.362 184.214L272.073 188.281C272.463 188.16 272.876 188.095 273.305 188.095C275.552 188.095 277.372 189.872 277.372 192.061C277.372 194.252 275.552 196.028 273.305 196.028C271.059 196.028 269.239 194.252 269.239 192.061C269.239 190.445 270.231 189.056 271.652 188.438L269.943 184.381C264.596 186.494 258.868 187.696 252.959 187.904L253.099 192.064C255.301 192.113 257.071 193.868 257.071 196.028C257.071 198.218 255.25 199.995 253.005 199.995C250.758 199.995 248.937 198.218 248.937 196.028C248.937 193.955 250.568 192.255 252.646 192.078L252.508 187.918C252.042 187.93 251.574 187.938 251.106 187.938C245.417 187.938 239.874 187.019 234.653 185.254L233.191 189.298C234.576 189.931 235.534 191.301 235.534 192.891C235.534 195.081 233.713 196.857 231.467 196.857C229.221 196.857 227.401 195.081 227.401 192.891C227.401 190.7 229.221 188.924 231.467 188.924C231.923 188.924 232.362 188.998 232.772 189.134L234.226 185.109C231.718 184.236 229.286 183.167 226.949 181.911L202.669 225.558ZM285.582 172.688C285.903 172.376 286.218 172.058 286.529 171.738L276.273 162.366C274.045 164.654 271.493 166.637 268.69 168.249L275.402 180.314C279.079 178.247 282.501 175.694 285.582 172.688ZM296.805 155.709L283.607 150.97C282.009 155.105 279.604 158.857 276.58 162.043L286.838 171.418C291.24 166.802 294.602 161.475 296.805 155.709ZM299.863 139.065C299.863 138.623 299.856 138.181 299.844 137.741L285.813 138.185C285.821 138.477 285.824 138.771 285.824 139.065C285.824 143.097 285.097 146.968 283.764 150.557L296.96 155.296C298.867 150.161 299.863 144.687 299.863 139.065ZM295.49 119.325L282.72 125.074C284.535 128.962 285.618 133.243 285.795 137.744L299.83 137.3C299.595 131.003 298.11 124.92 295.49 119.325ZM285.582 105.442C285.261 105.129 284.936 104.822 284.608 104.518L274.998 114.52C278.111 117.404 280.676 120.844 282.529 124.675L295.301 118.925C292.927 113.977 289.661 109.419 285.582 105.442ZM267.534 94.2687L262.861 107.204C267.28 108.759 271.284 111.166 274.667 114.22L284.279 104.217C279.377 99.7691 273.691 96.4121 267.534 94.2687ZM251.106 91.5144C250.652 91.5144 250.199 91.5208 249.748 91.5327L250.204 105.216C250.503 105.209 250.804 105.205 251.106 105.205C255.07 105.205 258.881 105.858 262.434 107.058L267.108 94.1228C262.03 92.4077 256.638 91.5144 251.106 91.5144ZM232.783 94.9722L238.127 107.661C241.743 106.236 245.658 105.387 249.752 105.233L249.296 91.5465C243.551 91.7492 237.983 92.9186 232.783 94.9722ZM216.63 105.442C216.309 105.755 215.994 106.071 215.683 106.391L225.939 115.764C229.233 112.381 233.234 109.661 237.709 107.828L232.365 95.1391C226.553 97.4981 221.215 100.97 216.63 105.442ZM205.406 122.421L218.605 127.16C220.203 123.024 222.607 119.272 225.631 116.086L215.372 106.712C210.972 111.328 207.611 116.655 205.406 122.421ZM239.352 170.926C237.6 170.309 235.914 169.559 234.306 168.688L227.597 180.748C229.87 181.971 232.237 183.011 234.677 183.862L239.352 170.926ZM252.009 172.913C251.708 172.92 251.408 172.925 251.106 172.925C247.141 172.925 243.33 172.272 239.778 171.072L235.103 184.007C240.182 185.723 245.573 186.616 251.106 186.616C251.559 186.616 252.012 186.609 252.464 186.597L252.009 172.913ZM264.084 170.468C260.47 171.894 256.555 172.742 252.459 172.897L252.916 186.583C258.659 186.38 264.23 185.211 269.428 183.157L264.084 170.468ZM264.503 170.301L269.846 182.99C271.475 182.329 273.066 181.581 274.615 180.748L267.906 168.688C266.807 169.283 265.672 169.823 264.503 170.301ZM248.536 139.98C248.464 139.786 248.414 139.582 248.39 139.371L217.094 140.364C217.268 144.775 218.328 148.968 220.108 152.778L248.536 139.98ZM248.326 141.636L248.888 140.624C248.831 140.545 248.776 140.464 248.727 140.379L220.299 153.178C222.114 156.931 224.626 160.302 227.676 163.128L248.326 141.636ZM247.475 143.167L228.007 163.427C229.789 165.034 231.745 166.458 233.844 167.668L247.475 143.167ZM249.987 141.497C249.837 141.432 249.695 141.354 249.561 141.265L234.628 168.107C236.206 168.961 237.86 169.697 239.578 170.303L249.987 141.497ZM251.106 172.264C251.4 172.264 251.694 172.26 251.986 172.253L250.969 141.728C250.778 141.719 250.592 141.69 250.413 141.645L240.004 170.449C243.484 171.624 247.22 172.264 251.106 172.264ZM251.932 141.608C251.768 141.658 251.597 141.694 251.421 141.714L252.438 172.236C256.449 172.085 260.285 171.254 263.827 169.857L251.932 141.608ZM252.651 141.265C252.555 141.329 252.454 141.387 252.35 141.439L264.245 169.69C265.391 169.22 266.505 168.69 267.583 168.107L252.651 141.265ZM254.192 142.187L268.367 167.668C271.105 166.09 273.6 164.15 275.779 161.914L254.192 142.187ZM253.585 140.19C253.511 140.344 253.424 140.489 253.322 140.624L253.509 140.959L276.086 161.592C279.049 158.469 281.404 154.793 282.97 150.742L253.585 140.19ZM253.675 138.151C253.748 138.343 253.796 138.547 253.821 138.758L285.118 137.766C284.943 133.355 283.883 129.161 282.105 125.351L253.675 138.151ZM253.134 137.277C253.269 137.421 253.386 137.58 253.485 137.751L281.913 124.952C280.099 121.199 277.585 117.828 274.535 115.003L253.134 137.277ZM252.225 136.632C252.433 136.724 252.628 136.839 252.803 136.976L274.204 114.702C270.889 111.71 266.965 109.353 262.634 107.827L252.225 136.632ZM251.243 136.402C251.434 136.412 251.619 136.439 251.799 136.485L262.208 107.681C258.726 106.507 254.992 105.867 251.106 105.867C250.811 105.867 250.519 105.87 250.226 105.877L251.243 136.402ZM250.28 136.523C250.445 136.471 250.615 136.436 250.792 136.416L249.774 105.894C245.762 106.045 241.926 106.876 238.384 108.273L250.28 136.523ZM249.272 137.088C249.449 136.931 249.647 136.798 249.862 136.691L237.966 108.44C233.581 110.236 229.662 112.902 226.433 116.215L249.272 137.088ZM248.964 137.409L226.125 116.538C223.163 119.66 220.807 123.336 219.241 127.388L248.627 137.941C248.718 137.75 248.832 137.571 248.964 137.409ZM285.135 138.207L253.837 139.199C253.827 139.398 253.794 139.591 253.742 139.776L283.128 150.328C284.433 146.81 285.146 143.017 285.146 139.065C285.146 138.778 285.143 138.492 285.135 138.207ZM217.077 139.923L248.375 138.931C248.385 138.732 248.418 138.539 248.471 138.353L219.083 127.801C217.778 131.32 217.064 135.112 217.064 139.065C217.064 139.351 217.068 139.638 217.077 139.923ZM202.349 139.065C202.349 139.507 202.357 139.948 202.368 140.39L216.398 139.945C216.392 139.652 216.387 139.359 216.387 139.065C216.387 135.032 217.115 131.163 218.448 127.573L205.251 122.835C203.345 127.968 202.349 133.442 202.349 139.065ZM192.199 136.95C194.331 136.95 196.077 138.549 196.251 140.583L201.014 140.433C201 139.978 200.993 139.522 200.993 139.065C200.993 133.283 202.016 127.656 203.978 122.378L199.999 120.949C199.375 122.355 197.938 123.339 196.266 123.339C194.02 123.339 192.199 121.563 192.199 119.373C192.199 117.183 194.02 115.406 196.266 115.406C198.512 115.406 200.333 117.183 200.333 119.373C200.333 119.778 200.271 120.167 200.155 120.535L204.133 121.963C206.401 116.034 209.856 110.555 214.384 105.809L211.27 102.963C210.54 103.643 209.552 104.061 208.463 104.061C206.216 104.061 204.396 102.286 204.396 100.096C204.396 97.9053 206.216 96.1287 208.463 96.1287C210.709 96.1287 212.529 97.9053 212.529 100.096C212.529 101.065 212.172 101.953 211.581 102.642L214.693 105.488C215.015 105.157 215.34 104.83 215.672 104.506C220.386 99.9094 225.874 96.3406 231.85 93.9156L230.138 89.8487C229.749 89.9689 229.335 90.034 228.906 90.034C226.66 90.034 224.839 88.2583 224.839 86.0681C224.839 83.8778 226.66 82.1012 228.906 82.1012C231.152 82.1012 232.973 83.8778 232.973 86.0681C232.973 87.6842 231.982 89.0737 230.56 89.691L232.268 93.7486C237.615 91.6354 243.344 90.433 249.252 90.2248L249.067 84.6666L248.937 84.6694C246.691 84.6694 244.871 82.8937 244.871 80.7034C244.871 78.5123 246.691 76.7366 248.937 76.7366C251.184 76.7366 253.005 78.5123 253.005 80.7034C253.005 82.7011 251.489 84.3539 249.517 84.6281L249.704 90.2119C250.17 90.1991 250.637 90.1918 251.106 90.1918C256.794 90.1918 262.338 91.1108 267.559 92.8755L269.198 88.3381C267.72 87.7447 266.678 86.3258 266.678 84.6694C266.678 82.4791 268.499 80.7034 270.745 80.7034C272.991 80.7034 274.812 82.4791 274.812 84.6694C274.812 86.8605 272.991 88.6362 270.745 88.6362C270.356 88.6362 269.982 88.5821 269.625 88.4821L267.986 93.0213C274.317 95.2244 280.165 98.6776 285.206 103.252L288.178 100.159C287.513 99.4526 287.106 98.5107 287.106 97.477C287.106 95.2859 288.927 93.5102 291.174 93.5102C293.42 93.5102 295.24 95.2859 295.24 97.477C295.24 99.6673 293.42 101.443 291.174 101.443C290.151 101.443 289.217 101.074 288.501 100.466L285.535 103.553C285.873 103.866 286.209 104.183 286.54 104.506C290.734 108.596 294.092 113.284 296.531 118.371L300.309 116.671C300.172 116.273 300.097 115.848 300.097 115.406C300.097 113.216 301.917 111.44 304.164 111.44C306.41 111.44 308.231 113.216 308.231 115.406C308.231 117.597 306.41 119.373 304.164 119.373C302.531 119.373 301.124 118.434 300.477 117.08L296.722 118.77C299.418 124.524 300.945 130.78 301.185 137.257L306.032 137.103C306.093 134.963 307.888 133.247 310.096 133.247C312.342 133.247 314.163 135.023 314.163 137.213C314.163 139.404 312.342 141.18 310.096 141.18C307.964 141.18 306.216 139.58 306.045 137.544L301.198 137.698C301.211 138.152 301.218 138.608 301.218 139.065C301.218 144.846 300.195 150.474 298.234 155.752L302.213 157.181C302.838 155.774 304.273 154.79 305.945 154.79C308.192 154.79 310.012 156.566 310.012 158.756C310.012 160.947 308.192 162.723 305.945 162.723C303.7 162.723 301.879 160.947 301.879 158.756C301.879 158.353 301.941 157.962 302.056 157.595L298.078 156.166C295.812 162.096 292.355 167.575 287.827 172.321L290.941 175.167C291.67 174.487 292.66 174.068 293.749 174.068C295.994 174.068 297.816 175.844 297.816 178.035C297.816 180.225 295.994 182.001 293.749 182.001C291.503 182.001 289.682 180.225 289.682 178.035C289.682 177.065 290.039 176.177 290.632 175.488L287.517 172.642C287.198 172.973 286.872 173.3 286.54 173.623C283.365 176.719 279.838 179.349 276.048 181.477L300.571 225.558H304.972V226.818H307.128V229.32H195.084V226.818H197.24V225.558H201.641L226.162 181.477C222.896 179.642 219.825 177.436 217.006 174.879L213.032 179.014C213.886 179.742 214.425 180.809 214.425 182.001C214.425 184.192 212.604 185.967 210.358 185.967C208.112 185.967 206.291 184.192 206.291 182.001C206.291 179.81 208.112 178.035 210.358 178.035C211.219 178.035 212.017 178.296 212.674 178.742L216.677 174.576C216.338 174.263 216.003 173.946 215.672 173.623C211.478 169.533 208.121 164.846 205.679 159.76L201.254 161.752C201.334 162.063 201.378 162.387 201.378 162.723C201.378 164.913 199.556 166.689 197.31 166.689C195.064 166.689 193.244 164.913 193.244 162.723C193.244 160.532 195.064 158.756 197.31 158.756C199.053 158.756 200.539 159.826 201.117 161.327L205.489 159.359C202.795 153.605 201.268 147.349 201.028 140.873L196.263 141.024C196.205 143.165 194.408 144.883 192.199 144.883C189.953 144.883 188.132 143.107 188.132 140.916C188.132 138.726 189.953 136.95 192.199 136.95Z" fill="#95A9A7"/>
<path d="M182.383 244.978H130.125V170.303H182.383V244.978Z" fill="#95A9A7"/>
<path d="M85.5132 244.557H137.772V199.336H85.5132V244.557Z" fill="#95A9A7"/>
<path d="M340.435 230.644H311.119V192.695H340.435V230.644Z" fill="#95A9A7"/>
<path d="M156.254 244.978H119.291V99.2858H156.254V244.978Z" fill="#95A9A7"/>
<path d="M58.4283 244.978H107.182V159.905H70.2178L58.4283 244.978Z" fill="#95A9A7"/>
<path d="M37.0781 244.978H79.7774V225.558H37.0781V244.978Z" fill="#95A9A7"/>
<path d="M127.575 108.44H128.85V68.8488H127.575V108.44Z" fill="#95A9A7"/>
<path d="M123.273 116.936H124.547V77.3447H123.273V116.936Z" fill="#95A9A7"/>
<path d="M131.479 122.402H132.753V82.8103H131.479V122.402Z" fill="#95A9A7"/>
<path d="M87.8239 166.43H105.269V153.028H87.8239V166.43Z" fill="#95A9A7"/>
<path d="M89.7358 155.784H103.357V148.251H89.7358V155.784Z" fill="#95A9A7"/>
<path d="M77.5466 162.366H80.8918V156.954H77.5466V162.366Z" fill="#95A9A7"/>
<path d="M71.5833 162.366H76.3627V152.017H71.5833V162.366Z" fill="#95A9A7"/>
<path d="M340.583 271.452H296.269V132.15H340.583V271.452Z" fill="#658280"/>
<path d="M292.96 134.387H343.893V132.976H292.96V134.387Z" fill="#658280"/>
<path d="M294.336 153.95H342.516V152.543H294.336V153.95Z" fill="#658280"/>
<path d="M294.336 172.9H342.516V171.493H294.336V172.9Z" fill="#658280"/>
<path d="M294.336 191.85H342.516V190.443H294.336V191.85Z" fill="#658280"/>
<path d="M294.336 210.8H342.516V209.393H294.336V210.8Z" fill="#658280"/>
<path d="M294.336 229.75H342.516V228.343H294.336V229.75Z" fill="#658280"/>
<path d="M294.336 248.7H342.516V247.293H294.336V248.7Z" fill="#658280"/>
<path d="M291.275 132.976H345.578V129.127H291.275V132.976Z" fill="#658280"/>
<path d="M331.991 150.092H336.595V138.963H331.991V150.092ZM336.595 138.963V148.251H334.292V138.963H336.595Z" fill="black"/>
<path d="M336.595 150.092H331.991V138.963H336.595V150.092Z" fill="#658280"/>
<path d="M326.296 150.092H321.692V138.963H326.296V150.092Z" fill="#658280"/>
<path d="M315.998 150.092H311.394V138.963H315.998V150.092Z" fill="#658280"/>
<path d="M305.698 150.092H301.095V138.963H305.698V150.092Z" fill="#658280"/>
<path d="M336.595 168.286H331.991V157.157H336.595V168.286Z" fill="#658280"/>
<path d="M321.691 168.286H326.296V157.158H321.691V168.286ZM325.145 158.078V167.366H322.843V158.078H325.145Z" fill="#658280"/>
<path d="M315.998 168.286H311.394V157.157H315.998V168.286Z" fill="#658280"/>
<path d="M305.698 168.286H301.095V157.157H305.698V168.286Z" fill="#658280"/>
<path d="M336.595 187.236H331.991V176.107H336.595V187.236Z" fill="#658280"/>
<path d="M326.296 187.236H321.692V176.107H326.296V187.236Z" fill="#658280"/>
<path d="M315.998 187.236H311.394V176.107H315.998V187.236Z" fill="#658280"/>
<path d="M301.094 187.236H305.698V176.108H301.094V177.669H302.246V186.956H301.094V187.236Z" fill="#658280"/>
<path d="M336.595 206.186H331.991V195.057H336.595V206.186Z" fill="#658280"/>
<path d="M321.691 206.186H322.843V197.259H325.145V206.186H326.296V195.058H321.691V206.186Z" fill="#658280"/>
<path d="M313.695 206.186H315.998V195.058H311.393V197.259H313.695V206.186Z" fill="#658280"/>
<path d="M305.698 206.186H301.095V195.057H305.698V206.186Z" fill="#658280"/>
<path d="M331.991 225.136H336.595V214.008H331.991V225.136ZM336.595 215.055V224.342H334.292V215.055H336.595Z" fill="#658280"/>
<path d="M326.296 225.136H321.692V214.008H326.296V225.136Z" fill="#658280"/>
<path d="M315.998 225.136H311.394V214.008H315.998V225.136Z" fill="#658280"/>
<path d="M305.698 225.136H301.095V214.008H305.698V225.136Z" fill="#658280"/>
<path d="M336.595 244.086H331.991V232.958H336.595V244.086Z" fill="#658280"/>
<path d="M326.296 244.086H321.692V232.958H326.296V244.086Z" fill="#658280"/>
<path d="M313.695 244.086H315.998V232.958H311.393V234.902H313.695V244.086Z" fill="#658280"/>
<path d="M301.094 244.086H305.698V232.958H301.094V244.086Z" fill="#658280"/>
<path d="M331.99 263.036H336.595V251.908H331.99V263.036Z" fill="#658280"/>
<path d="M326.296 263.036H321.692V251.908H326.296V263.036Z" fill="#658280"/>
<path d="M311.393 263.036H315.998V251.908H311.393V263.036Z" fill="#658280"/>
<path d="M305.698 263.036H301.095V251.908H305.698V263.036Z" fill="#658280"/>
<path d="M322.715 131.052H337.786V123.817H322.715V131.052Z" fill="#658280"/>
<path d="M321.691 124.847H338.809V123.61H321.691V124.847Z" fill="#658280"/>
<path d="M404.095 271.452H463.125V139.096L404.095 125.015V271.452Z" fill="#658280"/>
<path d="M460.532 271.452H465.718V136.767H460.532V271.452Z" fill="#658280"/>
<path d="M445.774 271.452H450.961V132.971H445.774V271.452Z" fill="#658280"/>
<path d="M431.017 271.452H436.203V129.03H431.017V271.452Z" fill="#658280"/>
<path d="M416.26 271.452H421.447V125.817H416.26V271.452Z" fill="#658280"/>
<path d="M401.503 271.452H406.689V122.402H401.503V271.452Z" fill="#658280"/>
<path d="M452.304 158.298H459.189V148.069H457.467V153.852H454.025V148.069H452.304V158.298Z" fill="#658280"/>
<path d="M437.547 158.298H444.431V148.069H442.71V153.852H439.268V148.069H437.547V158.298Z" fill="#658280"/>
<path d="M429.674 158.298H422.789V148.069H429.674V158.298Z" fill="#658280"/>
<path d="M408.032 158.298H414.916V148.069H413.195V153.852H409.753V148.069H408.032V158.298Z" fill="#658280"/>
<path d="M459.189 176.109H452.304V165.88H459.189V176.109Z" fill="#658280"/>
<path d="M444.431 176.109H437.547V165.88H444.431V176.109Z" fill="#658280"/>
<path d="M422.789 176.109H429.674V165.88H427.953V170.137H424.511V165.88H422.789V176.109Z" fill="#658280"/>
<path d="M408.032 176.109H414.916V165.88H413.195V170.137H409.753V165.88H408.032V176.109Z" fill="#658280"/>
<path d="M452.304 193.919H459.189V183.691H457.467V186.422H454.025V183.691H452.304V193.919Z" fill="#658280"/>
<path d="M437.547 193.919H444.431V183.691H442.71V186.422H439.268V183.691H437.547V193.919Z" fill="#658280"/>
<path d="M422.789 193.919H429.674V183.691H427.953V186.422H424.511V183.691H422.789V193.919Z" fill="#658280"/>
<path d="M414.916 193.919H408.032V183.691H414.916V193.919Z" fill="#658280"/>
<path d="M452.304 211.73H454.025V209.547H457.467V211.73H459.189V201.501H457.467V202.708H454.025V201.501H452.304V211.73Z" fill="#658280"/>
<path d="M444.431 211.73H437.547V201.501H444.431V211.73Z" fill="#658280"/>
<path d="M422.789 211.73H424.511V209.547H427.953V211.73H429.674V201.501H427.953V202.708H424.511V201.501H422.789V211.73Z" fill="#658280"/>
<path d="M408.032 211.73H409.753V209.547H413.195V211.73H414.916V201.501H413.195V202.708H409.753V201.501H408.032V211.73Z" fill="#658280"/>
<path d="M452.304 229.539H454.025V225.832H457.467V229.539H459.189V219.312H452.304V229.539Z" fill="#658280"/>
<path d="M437.547 229.539H439.268V225.832H442.71V229.539H444.431V219.312H437.547V229.539Z" fill="#658280"/>
<path d="M429.674 229.539H422.789V219.312H429.674V229.539Z" fill="#658280"/>
<path d="M408.032 229.539H409.753V225.832H413.195V229.539H414.916V219.312H408.032V229.539Z" fill="#658280"/>
<path d="M452.304 247.35H459.188V237.123H452.304V247.35Z" fill="#658280"/>
<path d="M437.547 247.35H444.431V237.123H437.547V247.35Z" fill="#658280"/>
<path d="M429.674 247.351H422.789V237.123H429.674V247.351Z" fill="#658280"/>
<path d="M414.916 247.351H408.032V237.123H414.916V247.351Z" fill="#658280"/>
<path d="M459.189 265.161H452.304V254.933H459.189V265.161Z" fill="#658280"/>
<path d="M437.547 265.161H444.431V254.933H437.547V265.161Z" fill="#658280"/>
<path d="M429.674 265.161H422.789V254.933H429.674V265.161Z" fill="#658280"/>
<path d="M408.032 265.161H414.916V254.933H408.032V265.161Z" fill="#658280"/>
<path d="M631.514 145.437V146.811H632.917V150.727H608.218V271.452H648.75V146.811H650.221V145.437H631.514Z" fill="#658280"/>
<path d="M527.748 271.452H562.464V200.273H527.748V271.452Z" fill="#658280"/>
<path d="M713.781 271.452H685.56V183.956H713.781V271.452Z" fill="#658280"/>
<path d="M660.396 271.452H691.15V202.187H660.396V271.452Z" fill="#658280"/>
<path d="M703.628 190.916H691.15V180.445H703.628V190.916Z" fill="#658280"/>
<path d="M656.257 203.607H689.04V201.046H656.257V203.607Z" fill="#658280"/>
<path d="M629.219 271.452H663.699V231.896H629.219V271.452Z" fill="#658280"/>
<path d="M747.09 271.452H775.137V199.721H747.09V271.452Z" fill="#658280"/>
<path d="M762.578 271.452H799.476V235.467H762.578V271.452Z" fill="#658280"/>
<path d="M817.025 271.452H840.105V229.585H817.025V271.452Z" fill="#658280"/>
<path d="M766.957 271.452H821.506V258.338H766.957V271.452Z" fill="#658280"/>
<path d="M833.042 271.452H861V254.1H833.042V271.452Z" fill="#658280"/>
<path d="M703.628 271.452H747.09V244.978H703.628V271.452Z" fill="#658280"/>
<path d="M551.899 271.452H619.599V260.047H551.899V271.452Z" fill="#658280"/>
<path d="M431.869 271.452H499.568V260.047H431.869V271.452Z" fill="#658280"/>
<path d="M554.535 226.565H580.267L591.148 265.75H554.535V226.565Z" fill="#658280"/>
<path d="M541.925 213.019H542.642V169.55H541.925V213.019Z" fill="#658280"/>
<path d="M538.101 209.909H539.057V184.26H538.101V209.909Z" fill="#658280"/>
<path d="M531.161 201.501H544.179V188.804H531.161V201.501Z" fill="#658280"/>
<path d="M529.135 188.956H546.377V187.818H529.135V188.956Z" fill="#658280"/>
<path d="M491.996 271.452H534.062V234.739H491.996V271.452Z" fill="#658280"/>
<path d="M473.015 194.323H500.04V265.161H473.015V194.323Z" fill="#658280"/>
<path d="M351.314 271.452H394.492V207.641H351.314V271.452Z" fill="#658280"/>
<path d="M358.802 271.452H408.032V247.939H358.802V271.452Z" fill="#658280"/>
<path d="M353.704 271.452H321.691L321.692 263.036H353.704V271.452Z" fill="#658280"/>
<path d="M252.35 247.939H304.398V271.452H252.35V247.939Z" fill="#658280"/>
<path d="M283.661 271.452H218.895V186.378H283.661V271.452Z" fill="#658280"/>
<path d="M285.334 186.378H215.117V183.115H285.334V186.378Z" fill="#658280"/>
<path d="M250.226 191.506H221.763V174.259H250.226V191.506Z" fill="#658280"/>
<path d="M264.303 184.748H259.524V174.259H264.303V184.748Z" fill="#658280"/>
<path d="M274.342 184.748H269.083V174.259H274.342V184.748Z" fill="#658280"/>
<path d="M174.372 271.452H123.106V147.206H174.372V271.452Z" fill="#658280"/>
<path d="M175.829 148.582H121.649V145.069H175.829V148.582Z" fill="#658280"/>
<path d="M172.65 157.267H124.83V140.574H172.65V157.267Z" fill="#658280"/>
<path d="M147.426 151.982H128.49V133.745H147.426V151.982Z" fill="#658280"/>
<path d="M139.448 138.885H128.49V129.284H136.349L139.448 138.885Z" fill="#658280"/>
<path d="M132.907 142.7H133.969V121.316H132.907V142.7Z" fill="#658280"/>
<path d="M134.392 120.207C134.392 120.819 133.965 121.316 133.438 121.316C132.911 121.316 132.484 120.819 132.484 120.207C132.484 119.595 132.911 119.099 133.438 119.099C133.965 119.099 134.392 119.595 134.392 120.207Z" fill="#658280"/>
<path d="M107.182 271.452H130.124V220.16H107.182V271.452Z" fill="#658280"/>
<path d="M195.477 195.153H169.312V271.452H195.477V195.153Z" fill="#658280"/>
<path d="M182.383 271.452H219.241V230.644L188.132 244.086L182.383 271.452Z" fill="#658280"/>
<path d="M58.4283 271.452H114.715V249.289H58.4283V271.452Z" fill="#658280"/>
<path d="M79.2197 271.452H46.5229V182.979H79.2197V271.452Z" fill="#658280"/>
<path d="M-6.10352e-05 271.452H54.1708V254.933H-6.10352e-05V271.452Z" fill="#658280"/>
<path d="M45.0268 184.26H80.8918V181.359H45.0268V184.26Z" fill="#658280"/>
<path d="M51.6213 168.876H50.9047V186.705H51.6213V168.876Z" fill="#658280"/>
<path d="M55.685 185.435H56.4007V171.133H55.685V185.435Z" fill="#658280"/>
<path d="M34.4147 216.31H48.9927V256.844H28.2002L34.4147 216.31Z" fill="#658280"/>
<path d="M710.869 190.47H708.733V188.387H710.869V190.47Z" fill="#B5C3C2"/>
<path d="M706.577 190.47H704.441V188.387H706.577V190.47Z" fill="#B5C3C2"/>
<path d="M710.869 195.364H708.733V193.281H710.869V195.364Z" fill="#B5C3C2"/>
<path d="M706.577 195.364H704.441V193.281H706.577V195.364Z" fill="#B5C3C2"/>
<path d="M710.869 200.096H708.733V198.013H710.869V200.096Z" fill="#B5C3C2"/>
<path d="M701.806 190.47H699.67V188.387H701.806V190.47Z" fill="#B5C3C2"/>
<path d="M554.535 133.682H553.077V125.817H554.535V133.682Z" fill="#CAD4D3"/>
<path d="M549.514 133.682H548.056V125.817H549.514V133.682Z" fill="#CAD4D3"/>
<path d="M544.492 133.682H543.036V125.817H544.492V133.682Z" fill="#CAD4D3"/>
<path d="M539.471 133.682H538.014V125.817H539.471V133.682Z" fill="#CAD4D3"/>
<path d="M534.45 133.682H532.994V125.817H534.45V133.682Z" fill="#CAD4D3"/>
<path d="M529.429 133.682H527.973V125.817H529.429V133.682Z" fill="#CAD4D3"/>
<path d="M524.409 133.682H522.952V125.817H524.409V133.682Z" fill="#CAD4D3"/>
<path d="M519.388 133.682H517.93V125.817H519.388V133.682Z" fill="#CAD4D3"/>
<path d="M514.367 133.682H512.91V125.817H514.367V133.682Z" fill="#CAD4D3"/>
<path d="M509.346 133.682H507.889V125.817H509.346V133.682Z" fill="#CAD4D3"/>
<path d="M503.596 133.682H502.868V125.817H503.596V133.682Z" fill="#CAD4D3"/>
<path d="M504.325 133.682H503.596V125.817H504.325V133.682Z" fill="#CAD4D3"/>
<path d="M554.535 144.632H553.077V136.767H554.535V144.632Z" fill="#CAD4D3"/>
<path d="M549.514 144.632H548.056V136.767H549.514V144.632Z" fill="#CAD4D3"/>
<path d="M544.492 144.632H543.036V136.767H544.492V144.632Z" fill="#CAD4D3"/>
<path d="M539.471 144.632H538.014V136.767H539.471V144.632Z" fill="#CAD4D3"/>
<path d="M534.45 144.632H532.994V136.767H534.45V144.632Z" fill="#CAD4D3"/>
<path d="M529.429 144.632H527.973V136.767H529.429V144.632Z" fill="#CAD4D3"/>
<path d="M524.409 144.632H522.952V136.767H524.409V144.632Z" fill="#CAD4D3"/>
<path d="M519.388 144.632H517.93V136.767H519.388V144.632Z" fill="#CAD4D3"/>
<path d="M514.367 144.632H512.91V136.767H514.367V144.632Z" fill="#CAD4D3"/>
<path d="M509.346 144.632H507.889V136.767H509.346V144.632Z" fill="#CAD4D3"/>
<path d="M504.325 144.632H502.868V136.767H504.325V144.632Z" fill="#CAD4D3"/>
<path d="M554.535 155.581H553.077V147.716H554.535V155.581Z" fill="#CAD4D3"/>
<path d="M549.514 155.581H548.056V147.716H549.514V155.581Z" fill="#CAD4D3"/>
<path d="M544.492 155.581H543.036V147.716H544.492V155.581Z" fill="#CAD4D3"/>
<path d="M539.471 155.581H538.014V147.716H539.471V155.581Z" fill="#CAD4D3"/>
<path d="M534.45 155.581H532.994V147.716H534.45V155.581Z" fill="#CAD4D3"/>
<path d="M529.429 155.581H527.973V147.716H529.429V155.581Z" fill="#CAD4D3"/>
<path d="M524.409 155.581H522.952V147.716H524.409V155.581Z" fill="#CAD4D3"/>
<path d="M519.388 155.581H517.93V147.716H519.388V155.581Z" fill="#CAD4D3"/>
<path d="M514.367 155.581H512.91V147.716H514.367V155.581Z" fill="#CAD4D3"/>
<path d="M509.346 155.581H507.889V147.716H509.346V155.581Z" fill="#CAD4D3"/>
<path d="M504.325 155.581H502.868V147.716H504.325V155.581Z" fill="#CAD4D3"/>
<path d="M539.471 166.53H538.014V158.665H539.471V166.53Z" fill="#CAD4D3"/>
<path d="M534.45 166.53H532.994V158.665H534.45V166.53Z" fill="#CAD4D3"/>
<path d="M529.429 166.53H527.973V158.665H529.429V166.53Z" fill="#CAD4D3"/>
<path d="M524.409 166.53H522.952V158.665H524.409V166.53Z" fill="#CAD4D3"/>
<path d="M519.388 166.53H517.93V158.665H519.388V166.53Z" fill="#CAD4D3"/>
<path d="M514.367 166.53H512.91V158.665H514.367V166.53Z" fill="#CAD4D3"/>
<path d="M509.346 166.53H507.889V158.665H509.346V166.53Z" fill="#CAD4D3"/>
<path d="M504.325 166.53H502.868V158.665H504.325V166.53Z" fill="#CAD4D3"/>
<path d="M534.45 178.087H532.994V170.222H534.45V178.087Z" fill="#CAD4D3"/>
<path d="M529.429 178.087H527.973V170.222H529.429V178.087Z" fill="#CAD4D3"/>
<path d="M524.409 178.087H522.952V170.222H524.409V178.087Z" fill="#CAD4D3"/>
<path d="M519.388 178.087H517.93V170.222H519.388V178.087Z" fill="#CAD4D3"/>
<path d="M514.367 178.087H512.91V170.222H514.367V178.087Z" fill="#CAD4D3"/>
<path d="M509.346 178.087H507.889V170.222H509.346V178.087Z" fill="#CAD4D3"/>
<path d="M504.325 178.087H502.868V170.222H504.325V178.087Z" fill="#CAD4D3"/>
<path d="M457.467 148.069H454.025L454.025 145.338H457.467L457.467 148.069Z" fill="#98ABAA"/>
<path d="M457.467 153.852H454.025V148.069H457.467V153.852Z" fill="#98ABAA"/>
<path d="M457.467 165.88H454.025V161.623H457.467V165.88Z" fill="#98ABAA"/>
<path d="M457.467 170.137H454.025V165.88H457.467V170.137Z" fill="#98ABAA"/>
<path d="M457.467 183.691H454.025L454.025 177.909H457.467L457.467 183.691Z" fill="#98ABAA"/>
<path d="M457.467 186.422H454.025V183.691H457.467V186.422Z" fill="#98ABAA"/>
<path d="M457.467 201.501H454.025L454.025 194.193H457.467L457.467 201.501Z" fill="#98ABAA"/>
<path d="M457.467 202.708H454.025V201.501H457.467V202.708Z" fill="#98ABAA"/>
<path d="M457.467 218.061H454.025L454.025 211.73H457.467L457.467 218.061Z" fill="#98ABAA"/>
<path d="M457.467 211.73H454.025V209.547H457.467V211.73Z" fill="#98ABAA"/>
<path d="M457.467 234.346H454.025L454.025 229.539H457.467L457.467 234.346Z" fill="#98ABAA"/>
<path d="M457.467 229.539H454.025V225.832H457.467V229.539Z" fill="#98ABAA"/>
<path d="M442.71 148.069H439.268L439.268 145.338H442.71L442.71 148.069Z" fill="#98ABAA"/>
<path d="M442.71 153.852H439.268V148.069H442.71V153.852Z" fill="#98ABAA"/>
<path d="M442.71 165.88H439.268V161.623H442.71V165.88Z" fill="#98ABAA"/>
<path d="M442.71 170.137H439.268V165.88H442.71V170.137Z" fill="#98ABAA"/>
<path d="M442.71 183.691H439.268L439.268 177.909H442.71L442.71 183.691Z" fill="#98ABAA"/>
<path d="M442.71 186.422H439.268V183.691H442.71V186.422Z" fill="#98ABAA"/>
<path d="M442.71 201.501H439.268V194.193H442.71V201.501Z" fill="#98ABAA"/>
<path d="M442.71 202.708H439.268V201.501H442.71V202.708Z" fill="#98ABAA"/>
<path d="M442.71 218.061H439.268V211.73H442.71V218.061Z" fill="#98ABAA"/>
<path d="M442.71 211.73H439.268V209.547H442.71V211.73Z" fill="#98ABAA"/>
<path d="M442.71 234.346H439.268L439.268 229.539H442.71L442.71 234.346Z" fill="#98ABAA"/>
<path d="M442.71 229.539H439.268V225.832H442.71V229.539Z" fill="#98ABAA"/>
<path d="M427.953 148.069H424.511V145.338H427.953V148.069Z" fill="#98ABAA"/>
<path d="M427.953 153.852H424.511V148.069H427.953V153.852Z" fill="#98ABAA"/>
<path d="M427.953 165.88H424.511L424.511 161.623H427.953L427.953 165.88Z" fill="#98ABAA"/>
<path d="M427.953 170.137H424.511V165.88H427.953V170.137Z" fill="#98ABAA"/>
<path d="M427.953 183.691H424.511L424.511 177.909H427.953L427.953 183.691Z" fill="#98ABAA"/>
<path d="M427.953 186.422H424.511V183.691H427.953V186.422Z" fill="#98ABAA"/>
<path d="M427.953 201.501H424.511L424.511 194.193H427.953L427.953 201.501Z" fill="#98ABAA"/>
<path d="M427.953 202.708H424.511V201.501H427.953V202.708Z" fill="#98ABAA"/>
<path d="M427.953 218.061H424.511L424.511 211.73H427.953L427.953 218.061Z" fill="#98ABAA"/>
<path d="M427.953 211.73H424.511V209.547H427.953V211.73Z" fill="#98ABAA"/>
<path d="M427.953 234.346H424.511V229.54H427.953V234.346Z" fill="#98ABAA"/>
<path d="M427.953 229.54H424.511V225.832H427.953V229.54Z" fill="#98ABAA"/>
<path d="M413.195 148.069H409.753L409.753 145.338H413.195L413.195 148.069Z" fill="#98ABAA"/>
<path d="M413.195 153.852H409.753V148.069H413.195V153.852Z" fill="#98ABAA"/>
<path d="M413.195 165.88H409.753L409.753 161.623H413.195L413.195 165.88Z" fill="#98ABAA"/>
<path d="M413.195 170.137H409.753V165.88H413.195V170.137Z" fill="#98ABAA"/>
<path d="M413.195 183.691H409.753V177.909H413.195V183.691Z" fill="#98ABAA"/>
<path d="M413.195 186.422H409.753V183.691H413.195V186.422Z" fill="#98ABAA"/>
<path d="M413.195 201.501H409.753L409.753 194.193H413.195L413.195 201.501Z" fill="#98ABAA"/>
<path d="M413.195 202.708H409.753V201.501H413.195V202.708Z" fill="#98ABAA"/>
<path d="M413.195 218.061H409.753L409.753 211.73H413.195L413.195 218.061Z" fill="#98ABAA"/>
<path d="M413.195 211.73H409.753V209.547H413.195V211.73Z" fill="#98ABAA"/>
<path d="M413.195 234.346H409.753L409.753 229.539H413.195L413.195 234.346Z" fill="#98ABAA"/>
<path d="M413.195 229.539H409.753V225.832H413.195V229.539Z" fill="#98ABAA"/>
<path d="M512.91 34.058H510.047V26.6069H512.91V34.058Z" fill="#DAE1E1"/>
<path d="M505.843 34.058H502.979V26.6069H505.843V34.058Z" fill="#DAE1E1"/>
<path d="M498.777 34.058H495.914V26.6069H498.777V34.058Z" fill="#DAE1E1"/>
<path d="M491.711 34.058H488.847V26.6069H491.711V34.058Z" fill="#DAE1E1"/>
<path d="M512.91 46.4676H510.047V39.0165H512.91V46.4676Z" fill="#DAE1E1"/>
<path d="M505.843 46.4676H502.979V39.0165H505.843V46.4676Z" fill="#DAE1E1"/>
<path d="M498.777 46.4676H495.914V39.0165H498.777V46.4676Z" fill="#DAE1E1"/>
<path d="M491.711 46.4676H488.847V39.0165H491.711V46.4676Z" fill="#DAE1E1"/>
<path d="M512.91 58.8771H510.047V51.4257H512.91V58.8771Z" fill="#DAE1E1"/>
<path d="M505.843 58.8771H502.979V51.4257H505.843V58.8771Z" fill="#DAE1E1"/>
<path d="M483.695 34.058H480.832V26.6069H483.695V34.058Z" fill="#DAE1E1"/>
<path d="M703.628 108.924H701.807V104.178H703.628V108.924Z" fill="#D3DBDA"/>
<path d="M703.628 104.178H701.807V102.094H703.628V104.178Z" fill="#D3DBDA"/>
<path d="M697.201 108.924H695.38V104.178H697.201V108.924Z" fill="#D3DBDA"/>
<path d="M697.201 104.178H695.38V102.094H697.201V104.178Z" fill="#D3DBDA"/>
<path d="M689.684 108.924H687.863V104.178H689.684V108.924Z" fill="#D3DBDA"/>
<path d="M689.684 104.178H687.863V102.094H689.684V104.178Z" fill="#D3DBDA"/>
<path d="M683.258 108.924H681.436V104.178H683.258V108.924Z" fill="#D3DBDA"/>
<path d="M683.258 104.178H681.436V102.094H683.258V104.178Z" fill="#D3DBDA"/>
<path d="M717.905 108.924H716.084V104.178H717.905V108.924Z" fill="#D3DBDA"/>
<path d="M717.905 104.178H716.084V102.094H717.905V104.178Z" fill="#D3DBDA"/>
<path d="M711.479 108.924H709.657V104.178H711.479V108.924Z" fill="#D3DBDA"/>
<path d="M711.479 104.178H709.657V102.094H711.479V104.178Z" fill="#D3DBDA"/>
<path d="M703.628 120.785H701.807V113.954H703.628V120.785Z" fill="#D3DBDA"/>
<path d="M697.201 120.785H695.38V113.954H697.201V120.785Z" fill="#D3DBDA"/>
<path d="M689.684 120.785H687.863V113.954H689.684V120.785Z" fill="#D3DBDA"/>
<path d="M683.258 120.785H681.436V113.954H683.258V120.785Z" fill="#D3DBDA"/>
<path d="M717.905 120.785H716.084V113.954H717.905V120.785Z" fill="#D3DBDA"/>
<path d="M711.479 120.785H709.657V113.954H711.479V120.785Z" fill="#D3DBDA"/>
<path d="M703.628 132.645H701.807V125.815H703.628V132.645Z" fill="#D3DBDA"/>
<path d="M697.201 132.645H695.38V125.815H697.201V132.645Z" fill="#D3DBDA"/>
<path d="M689.684 132.645H687.863V125.815H689.684V132.645Z" fill="#D3DBDA"/>
<path d="M683.258 132.645H681.436V125.815H683.258V132.645Z" fill="#D3DBDA"/>
<path d="M717.905 132.645H716.084V125.815H717.905V132.645Z" fill="#D3DBDA"/>
<path d="M711.479 132.645H709.657V125.815H711.479V132.645Z" fill="#D3DBDA"/>
<path d="M363.75 165.033H360.929V154.44H363.75V165.033Z" fill="#CAD4D3"/>
<path d="M355.115 165.033H352.294V154.44H355.115V165.033Z" fill="#CAD4D3"/>
<path d="M346.989 165.033H344.167V154.44H346.989V165.033Z" fill="#CAD4D3"/>
<path d="M169.312 162.598H167.171V157.267H169.312V162.598Z" fill="#BAC7C6"/>
<path d="M169.312 157.267H167.171V156.641H169.312V157.267Z" fill="#BAC7C6"/>
<path d="M162.597 162.598H160.456V157.267H162.597V162.598Z" fill="#BAC7C6"/>
<path d="M162.597 157.267H160.456V156.641H162.597V157.267Z" fill="#BAC7C6"/>
<path d="M156.254 162.598H154.112V157.267H156.254V162.598Z" fill="#98ABAA"/>
<path d="M156.254 157.267H154.112V156.641H156.254V157.267Z" fill="#98ABAA"/>
<path d="M149.54 162.598H147.397V157.267H149.54V162.598Z" fill="#98ABAA"/>
<path d="M149.54 157.267H147.397V156.641H149.54V157.267Z" fill="#98ABAA"/>
<path d="M169.312 173.281H167.171V167.324H169.312V173.281Z" fill="#BAC7C6"/>
<path d="M162.597 173.281H160.456V167.324H162.597V173.281Z" fill="#BAC7C6"/>
<path d="M156.254 173.281H154.112V167.324H156.254V173.281Z" fill="#98ABAA"/>
<path d="M149.54 173.281H147.397V167.324H149.54V173.281Z" fill="#98ABAA"/>
<path d="M169.312 184.65H167.171V178.694H169.312V184.65Z" fill="#BAC7C6"/>
<path d="M162.597 184.65H160.456V178.694H162.597V184.65Z" fill="#BAC7C6"/>
<path d="M156.254 184.65H154.112V178.694H156.254V184.65Z" fill="#98ABAA"/>
<path d="M149.54 184.65H147.397V178.694H149.54V184.65Z" fill="#98ABAA"/>
<path d="M142.201 162.598H140.059V157.267H142.201V162.598Z" fill="#98ABAA"/>
<path d="M142.201 157.267H140.059V156.641H142.201V157.267Z" fill="#98ABAA"/>
<path d="M142.201 173.281H140.059V167.324H142.201V173.281Z" fill="#98ABAA"/>
<path d="M135.486 162.598H133.343V157.267H135.486V162.598Z" fill="#98ABAA"/>
<path d="M135.486 157.267H133.343V156.641H135.486V157.267Z" fill="#98ABAA"/>
<path d="M336.595 148.251H334.292V138.963H336.595V148.251Z" fill="#98ABAA"/>
<path d="M325.145 148.251H322.843V138.963H325.145V148.251Z" fill="#98ABAA"/>
<path d="M313.695 148.251H311.393L311.394 138.963L313.695 138.963V148.251Z" fill="#98ABAA"/>
<path d="M301.094 148.251H299.944V138.963L301.095 138.963L301.094 148.251Z" fill="#98ABAA"/>
<path d="M302.246 148.251H301.094L301.095 138.963L302.246 138.963V148.251Z" fill="#98ABAA"/>
<path d="M336.595 167.366H334.292V158.078H336.595V167.366Z" fill="#98ABAA"/>
<path d="M325.145 167.366H322.843V158.078H325.145V167.366Z" fill="#98ABAA"/>
<path d="M313.695 167.366H311.393V158.078H313.695V167.366Z" fill="#98ABAA"/>
<path d="M301.094 167.366H299.944V158.078H301.094V167.366Z" fill="#98ABAA"/>
<path d="M302.246 167.366H301.094V158.078H302.246V167.366Z" fill="#98ABAA"/>
<path d="M336.595 186.956H334.292V177.669H336.595V186.956Z" fill="#98ABAA"/>
<path d="M325.145 186.956H322.843V177.669H325.145V186.956Z" fill="#98ABAA"/>
<path d="M313.695 186.956H311.393V177.669H313.695V186.956Z" fill="#98ABAA"/>
<path d="M301.094 186.956L299.944 186.956V177.669L301.094 177.669V186.956Z" fill="#98ABAA"/>
<path d="M302.246 186.956H301.094V177.669H302.246V186.956Z" fill="#98ABAA"/>
<path d="M336.595 206.546H334.292V206.186H336.595V206.546Z" fill="#98ABAA"/>
<path d="M336.595 206.186H334.292V197.259H336.595V206.186Z" fill="#98ABAA"/>
<path d="M325.145 206.546H322.843L322.843 206.186H325.145L325.145 206.546Z" fill="#98ABAA"/>
<path d="M325.145 206.186H322.843V197.259H325.145V206.186Z" fill="#98ABAA"/>
<path d="M311.393 206.546H313.695V206.186L311.393 206.186V197.259V206.546Z" fill="#98ABAA"/>
<path d="M313.695 206.186L311.393 206.186V197.259H313.695V206.186Z" fill="#98ABAA"/>
<path d="M299.943 206.546H302.246V206.186L301.095 206.186V197.259H299.943V206.546Z" fill="#98ABAA"/>
<path d="M302.246 206.186L301.095 206.186V197.259L302.246 197.259V206.186Z" fill="#98ABAA"/>
<path d="M336.595 224.342H334.292V215.055H336.595V224.342Z" fill="#98ABAA"/>
<path d="M325.145 224.342H322.843V215.055H325.145V224.342Z" fill="#98ABAA"/>
<path d="M313.695 224.342H311.393V215.055H313.695V224.342Z" fill="#98ABAA"/>
<path d="M336.595 244.19H334.292V244.086L336.595 244.086V244.19Z" fill="#98ABAA"/>
<path d="M336.595 244.086L334.292 244.086V234.902H336.595V244.086Z" fill="#98ABAA"/>
<path d="M325.145 244.19H322.843V244.086H325.145V244.19Z" fill="#98ABAA"/>
<path d="M325.145 244.086H322.843V234.902H325.145V244.086Z" fill="#98ABAA"/>
<path d="M311.393 244.19H313.695V244.086H311.393V234.902V244.19Z" fill="#98ABAA"/>
<path d="M313.695 244.086H311.393V234.902H313.695V244.086Z" fill="#98ABAA"/>
<path d="M301.094 224.342H299.944V215.055H301.094V224.342Z" fill="#98ABAA"/>
<path d="M302.246 224.342H301.094V215.055H302.246V224.342Z" fill="#98ABAA"/>
<path d="M76.325 193.395H73.9728V188.064H76.325V193.395Z" fill="#98ABAA"/>
<path d="M76.325 202.002H73.9728V196.671H76.325V202.002Z" fill="#98ABAA"/>
<path d="M70.291 193.395H67.9399V188.064H70.291V193.395Z" fill="#98ABAA"/>
</g>
</svg>

