<svg width="861" height="394" viewBox="0 0 861 394" fill="none" xmlns="http://www.w3.org/2000/svg">
<g style="mix-blend-mode:darken">
<path d="M273.187 359.722H266.979V335.496H241.401V336.358H238.528V340.076H241.401V342.154H238.528V345.87H241.401V347.948H238.528V351.666H241.401V353.742H238.528V357.46H241.401V359.722H235.193V330.278H252.782V321.239H255.598V322.692H258.471V321.239H261.289V322.692H264.161V321.239H266.979V322.692H269.852V321.239H273.187V359.722ZM266.979 353.742V357.46H269.852V353.742H266.979ZM266.979 347.948V351.666H269.852V347.948H266.979ZM266.979 342.154V345.87H269.852V342.154H266.979ZM266.979 336.358V340.076H269.852V336.358H266.979ZM266.979 330.564V334.281H269.852V330.564H266.979ZM261.289 330.564V334.281H264.161V330.564H261.289ZM255.598 330.564V334.281H258.471V330.564H255.598ZM249.909 330.564V334.281H252.782V330.564H249.909ZM244.218 330.564V334.281H247.092V330.564H244.218ZM238.528 330.564V334.281H241.401V330.564H238.528ZM266.979 324.769V328.487H269.852V324.769H266.979ZM261.289 324.769V328.487H264.161V324.769H261.289ZM255.598 324.769V328.487H258.471V324.769H255.598Z" fill="#E5E8E5"/>
<path d="M266.979 365.035H261.283V364.185H261.392V361.052H261.283V360.479H266.979V365.035ZM263.493 361.052V364.185H264.682V361.052H263.493ZM247.096 365.035H241.401V360.479H247.096V361.052H247.043V364.185H247.096V365.035ZM243.753 361.052V364.185H244.942V361.052H243.753ZM266.979 359.722H261.283V352.048H247.096V359.722H241.401V357.46V353.742V351.666V347.948V345.87V342.154V340.076V336.358V335.496H266.979V359.722ZM261.289 353.742V357.46H264.161V353.742H261.289ZM244.218 353.742V357.46H247.092V353.742H244.218ZM261.289 347.948V351.666H264.161V347.948H261.289ZM255.598 347.948V351.666H258.471V347.948H255.598ZM249.909 347.948V351.666H252.782V347.948H249.909ZM244.218 347.948V351.666H247.092V347.948H244.218ZM261.289 342.154V345.87H264.161V342.154H261.289ZM255.598 342.154V345.87H258.471V342.154H255.598ZM249.909 342.154V345.87H252.782V342.154H249.909ZM244.218 342.154V345.87H247.092V342.154H244.218ZM261.289 336.358V340.076H264.161V336.358H261.289ZM255.598 336.358V340.076H258.471V336.358H255.598ZM249.909 336.358V340.076H252.782V336.358H249.909ZM244.218 336.358V340.076H247.092V336.358H244.218Z" fill="#E5E8E5"/>
<path d="M261.283 368.383H259.024V365.764H261.283V368.383ZM249.356 368.383H247.096V365.764H249.356V368.383ZM261.283 365.035H259.024V360.479H261.283V361.052H260.204V364.185H261.283V365.035ZM249.356 365.035H247.096V364.185H248.233V361.052H247.096V360.479H249.356V365.035ZM261.283 359.722H247.096V352.048H261.283V359.722ZM255.598 353.742V357.46H258.471V353.742H255.598ZM249.909 353.742V357.46H252.782V353.742H249.909Z" fill="#E5E8E5"/>
<path d="M259.024 371.416H255.876V368.942H259.024V371.416ZM254.826 371.416H253.554V368.942H254.826V371.416ZM252.504 371.416H249.356V368.942H252.504V371.416ZM259.024 368.383H253.554V365.764H259.024V368.383ZM252.504 368.383H249.356V365.764H252.504V368.383ZM259.024 365.035H249.356V360.479H259.024V365.035ZM256.913 361.052V364.185H258.103V361.052H256.913ZM253.623 361.052V364.185H254.812V361.052H253.623ZM250.334 361.052V364.185H251.522V361.052H250.334Z" fill="#E5E8E5"/>
<path d="M253.554 376.338H252.504L252.504 368.942H253.554V371.416L253.554 376.338ZM253.554 368.383H252.504V365.764H253.554V368.383Z" fill="#E5E8E5"/>
<path d="M255.876 380.245H254.826V368.942H255.876V371.416V380.245Z" fill="#E5E8E5"/>
<path d="M274.2 360.479H234.18V359.722H274.2V360.479Z" fill="#E5E8E5"/>
<path d="M267.912 365.764H240.468V365.035H267.912V365.764Z" fill="#E5E8E5"/>
<path d="M261.879 368.942H246.062V368.383H261.879V368.942Z" fill="#E5E8E5"/>
<path d="M243.753 364.185H244.942V361.052H243.753V364.185Z" fill="#E5E8E5"/>
<path d="M247.043 364.185H247.096V361.052H247.043V364.185Z" fill="#E5E8E5"/>
<path d="M247.096 364.185H248.233V361.052H247.096V364.185Z" fill="#E5E8E5"/>
<path d="M250.334 364.185H251.522V361.052H250.334V364.185Z" fill="#E5E8E5"/>
<path d="M253.623 364.185H254.812V361.052H253.623V364.185Z" fill="#E5E8E5"/>
<path d="M256.913 364.185H258.103V361.052H256.913V364.185Z" fill="#E5E8E5"/>
<path d="M261.283 364.185H261.392V361.052H261.283V364.185Z" fill="#E5E8E5"/>
<path d="M260.204 364.185H261.283V361.052H260.204V364.185Z" fill="#E5E8E5"/>
<path d="M263.493 364.185H264.682V361.052H263.493V364.185Z" fill="#E5E8E5"/>
<path d="M238.528 357.46H241.401V353.742H238.528V357.46Z" fill="#E5E8E5"/>
<path d="M244.218 357.46H247.092V353.742H244.218V357.46Z" fill="#E5E8E5"/>
<path d="M249.909 357.46H252.782V353.742H249.909V357.46Z" fill="#E5E8E5"/>
<path d="M255.598 357.46H258.471V353.742H255.598V357.46Z" fill="#E5E8E5"/>
<path d="M261.289 357.46H264.161V353.742H261.289V357.46Z" fill="#E5E8E5"/>
<path d="M266.979 357.46H269.852V353.742H266.979V357.46Z" fill="#E5E8E5"/>
<path d="M238.528 351.666H241.401V347.948H238.528V351.666Z" fill="#E5E8E5"/>
<path d="M244.218 351.666H247.092V347.948H244.218V351.666Z" fill="#E5E8E5"/>
<path d="M249.909 351.666H252.782V347.948H249.909V351.666Z" fill="#E5E8E5"/>
<path d="M255.598 351.666H258.471V347.948H255.598V351.666Z" fill="#E5E8E5"/>
<path d="M261.289 351.666H264.161V347.948H261.289V351.666Z" fill="#E5E8E5"/>
<path d="M266.979 351.666H269.852V347.948H266.979V351.666Z" fill="#E5E8E5"/>
<path d="M238.528 345.87H241.401V342.154H238.528V345.87Z" fill="#E5E8E5"/>
<path d="M244.218 345.87H247.092V342.154H244.218V345.87Z" fill="#E5E8E5"/>
<path d="M249.909 345.87H252.782V342.154H249.909V345.87Z" fill="#E5E8E5"/>
<path d="M255.598 345.87H258.471V342.154H255.598V345.87Z" fill="#E5E8E5"/>
<path d="M261.289 345.87H264.161V342.154H261.289V345.87Z" fill="#E5E8E5"/>
<path d="M266.979 345.87H269.852V342.154H266.979V345.87Z" fill="#E5E8E5"/>
<path d="M238.528 340.076H241.401V336.358H238.528V340.076Z" fill="#E5E8E5"/>
<path d="M244.218 340.076H247.092V336.358H244.218V340.076Z" fill="#E5E8E5"/>
<path d="M249.909 340.076H252.782V336.358H249.909V340.076Z" fill="#E5E8E5"/>
<path d="M255.598 340.076H258.471V336.358H255.598V340.076Z" fill="#E5E8E5"/>
<path d="M261.289 340.076H264.161V336.358H261.289V340.076Z" fill="#E5E8E5"/>
<path d="M266.979 340.076H269.852V336.358H266.979V340.076Z" fill="#E5E8E5"/>
<path d="M238.528 334.281H241.401V330.564H238.528V334.281Z" fill="#E5E8E5"/>
<path d="M244.218 334.281H247.092V330.564H244.218V334.281Z" fill="#E5E8E5"/>
<path d="M249.909 334.281H252.782V330.564H249.909V334.281Z" fill="#E5E8E5"/>
<path d="M255.598 334.281H258.471V330.564H255.598V334.281Z" fill="#E5E8E5"/>
<path d="M261.289 334.281H264.161V330.564H261.289V334.281Z" fill="#E5E8E5"/>
<path d="M266.979 334.281H269.852V330.564H266.979V334.281Z" fill="#E5E8E5"/>
<path d="M255.598 328.487H258.471V324.769H255.598V328.487Z" fill="#E5E8E5"/>
<path d="M261.289 328.487H264.161V324.769H261.289V328.487Z" fill="#E5E8E5"/>
<path d="M266.979 328.487H269.852V324.769H266.979V328.487Z" fill="#E5E8E5"/>
<path d="M255.598 322.692H258.471V321.239H255.598V322.692Z" fill="#E5E8E5"/>
<path d="M261.289 322.692H264.161V321.239H261.289V322.692Z" fill="#E5E8E5"/>
<path d="M266.979 322.692H269.852V321.239H266.979V322.692Z" fill="#E5E8E5"/>
<path d="M185.926 356.927H183.873V352.737H126.904V356.927H124.851V331.698H131.274V327.425H140.571V331.698H145.351V327.425H150.131V331.698H155.389V327.425H166.383V325.85H131.274H164.709V315.94H169.85V314.245H175.44V306H185.926V356.927Z" fill="#E5E8E5"/>
<path d="M187.662 358.622H183.873V356.927H187.662V358.622ZM126.904 358.622H123.116V356.927H124.851H126.904V358.622Z" fill="#E5E8E5"/>
<path d="M183.873 360.79H153.824V355.286H131.265V360.79H126.904L126.904 358.622V356.927V352.737H183.873V356.927V358.622L183.873 360.79Z" fill="#E5E8E5"/>
<path d="M153.824 364.086H142.344L144.32 361.605H137.793V359.765H136.527V361.605H131.265V364.086L131.265 360.79V355.286H153.824V360.79L153.824 364.086Z" fill="#E5E8E5"/>
<path d="M140.628 366.238H137.793V361.605H144.32L142.344 364.086L140.628 366.238ZM136.527 366.238H131.265V364.086V361.605H136.527V366.238Z" fill="#E5E8E5"/>
<path d="M137.793 370.082H136.527V359.765H137.793V361.605V366.238V370.082Z" fill="#E5E8E5"/>
<path d="M137.16 371.152C136.532 371.152 136.023 370.912 136.023 370.617C136.023 370.322 136.532 370.082 137.16 370.082C137.787 370.082 138.296 370.322 138.296 370.617C138.296 370.912 137.787 371.152 137.16 371.152Z" fill="#E5E8E5"/>
<path d="M616.49 381.219L618.581 359.134C622.076 358.848 625.475 358.39 628.732 357.769L630.44 359.726C629.018 360.024 628.027 360.696 628.027 361.474C628.027 362.532 629.848 363.388 632.094 363.388C634.34 363.388 636.161 362.532 636.161 361.474C636.161 360.418 634.34 359.561 632.094 359.561C631.665 359.561 631.251 359.593 630.862 359.651L629.15 357.688C635.126 356.519 640.614 354.797 645.328 352.578C645.66 352.423 645.985 352.265 646.307 352.105L649.419 353.479C648.828 353.811 648.471 354.24 648.471 354.706C648.471 355.764 650.291 356.621 652.537 356.621C654.784 356.621 656.604 355.764 656.604 354.706C656.604 353.65 654.784 352.793 652.537 352.793C651.448 352.793 650.46 352.995 649.73 353.324L646.616 351.95C651.144 349.66 654.599 347.017 656.867 344.156L660.845 344.845C660.729 345.023 660.667 345.211 660.667 345.406C660.667 346.463 662.488 347.319 664.734 347.319C666.98 347.319 668.801 346.463 668.801 345.406C668.801 344.349 666.98 343.492 664.734 343.492C663.062 343.492 661.625 343.967 661.001 344.646L657.022 343.957C658.984 341.409 660.007 338.694 660.007 335.905C660.007 335.685 660 335.465 659.986 335.245L664.749 335.172C664.923 336.154 666.669 336.926 668.801 336.926C671.047 336.926 672.868 336.068 672.868 335.012C672.868 333.954 671.047 333.098 668.801 333.098C666.592 333.098 664.795 333.927 664.737 334.959L659.972 335.033C659.732 331.908 658.205 328.889 655.511 326.114L659.883 325.163C660.461 325.887 661.947 326.404 663.69 326.404C665.936 326.404 667.756 325.547 667.756 324.49C667.756 323.434 665.936 322.576 663.69 322.576C661.444 322.576 659.622 323.434 659.622 324.49C659.622 324.652 659.666 324.81 659.746 324.959L655.321 325.92C652.879 323.466 649.522 321.204 645.328 319.231C644.997 319.075 644.662 318.922 644.323 318.772L648.326 316.761C648.983 316.977 649.781 317.103 650.642 317.103C652.888 317.103 654.709 316.246 654.709 315.188C654.709 314.132 652.888 313.275 650.642 313.275C648.396 313.275 646.575 314.132 646.575 315.188C646.575 315.763 647.114 316.28 647.968 316.63L643.994 318.625C642.479 317.962 640.89 317.347 639.237 316.783V314.651H645.883V313.077H639.237H642.105V309.139L654.216 298.635H665.523V308.844H678.617V320.834H686.627V331.312H685.171V333.007H688.35V335.176H691.688V373.874L616.49 381.219ZM618.643 358.481L619.291 351.632C620.514 351.471 621.709 351.278 622.873 351.056L628.217 357.179C625.142 357.764 621.937 358.202 618.643 358.481ZM628.635 357.098L623.291 350.976C627.766 350.092 631.767 348.779 635.061 347.147L645.317 351.67C645.006 351.824 644.691 351.977 644.37 352.127C639.785 354.284 634.447 355.959 628.635 357.098ZM645.628 351.515L635.369 346.991C638.393 345.454 640.797 343.644 642.395 341.649L655.594 343.935C653.389 346.717 650.028 349.288 645.628 351.515ZM619.323 351.296L619.691 347.41L622.616 350.762C621.544 350.965 620.445 351.144 619.323 351.296ZM623.034 350.681L619.739 346.905L620.33 340.652L634.567 346.929C631.338 348.528 627.419 349.814 623.034 350.681ZM634.875 346.774L620.357 340.372L620.594 337.872L641.759 341.539C640.193 343.494 637.837 345.267 634.875 346.774ZM655.749 343.736L642.552 341.449C643.885 339.717 644.613 337.85 644.613 335.905C644.613 335.763 644.608 335.621 644.602 335.48L658.632 335.266C658.643 335.477 658.651 335.691 658.651 335.905C658.651 338.617 657.655 341.259 655.749 343.736ZM641.917 341.339L620.614 337.648L620.786 335.844L643.923 335.49C643.932 335.629 643.936 335.766 643.936 335.905C643.936 337.812 643.222 339.642 641.917 341.339ZM620.805 335.631L620.997 333.61L640.892 329.288C642.672 331.126 643.732 333.15 643.906 335.278L620.805 335.631ZM644.584 335.267C644.406 333.096 643.324 331.031 641.508 329.154L654.28 326.38C656.899 329.08 658.384 332.015 658.618 335.054L644.584 335.267ZM621.02 333.372L621.307 330.329L633.324 324.295C636.374 325.658 638.886 327.285 640.701 329.096L621.02 333.372ZM621.339 330.002L621.633 326.894L627.156 322.104C629.255 322.688 631.211 323.375 632.993 324.15L621.339 330.002ZM641.317 328.962C639.466 327.114 636.899 325.454 633.786 324.062L643.396 319.236C643.724 319.384 644.049 319.531 644.37 319.683C648.448 321.601 651.715 323.801 654.09 326.188L641.317 328.962ZM621.724 325.923L622.193 320.969C623.636 321.234 625.031 321.542 626.372 321.893L621.724 325.923ZM633.455 323.918C631.634 323.124 629.63 322.421 627.479 321.824L630.821 318.925H639.237V317.578C640.559 318.048 641.838 318.553 643.068 319.091L633.455 323.918ZM626.694 321.612C625.263 321.239 623.771 320.911 622.225 320.633L622.319 319.636L622.853 318.925H629.793L626.694 321.612ZM642.105 308.247V298.635H653.187L642.105 308.247Z" fill="#E5E8E5"/>
<path d="M359.264 403H357.428V392.35H344.382V372.882H337.642V348.489H357.404V346.372H363.31V345.084H367.97V344.365H363.31V309.244H387.986V298.635H395.282V337.014H400.468V336.188L404.074 336.604V343.416H400.012V372.882H389.527V380.775H385.781V392.35H365.144V400.859H363.307V392.35H359.264V403Z" fill="#E5E8E5"/>
<path d="M838.284 294.174H828.004L830.561 286.126H838.284V294.174ZM58.9238 294.174H39.4941V292.23H43.9745V291.045H58.9238V294.174Z" fill="#E5E8E5"/>
<path d="M493.485 320.754H488.097L482.955 308.319V302.818H493.485V320.754Z" fill="#DFE3E0"/>
<path d="M849.529 286.126L830.561 286.126L832.506 280H849.529V286.126ZM20.8952 286.126H10.8346V280.403H20.8952V286.126ZM781.78 284.804H753.818V282.724H781.78V284.804ZM577.339 284.804H564.731V283.687H566.664V283.376H577.339V284.804ZM520.417 284.804H509.686V276.09H520.417V283.008H518.484V283.687H520.417V284.804ZM466.508 284.804H459.497V283.376H466.508V284.804ZM395.282 284.804H387.986V277.533H395.282V284.804ZM275.621 284.804H252.782V277.533H271.436L275.621 284.804ZM61.5242 284.804H43.9745V278.358H61.5242V284.804Z" fill="#DFE3E0"/>
<path d="M461.134 382.311H460.583V374.215H458.45V369.491H452.373V363.869H441.103V349.1H438.76V340.595L439.553 340.687V342.297H444.74V341.283L454.311 342.385V343.945H459.497V298.635H466.507V302.818H482.955V308.319L482.955 349.1H480.699V363.869H469.342V369.491H463.266V374.215H461.134V382.311Z" fill="#DFE3E0"/>
<path d="M520.417 332.134H490.999V331.664H493.485L493.485 320.754V302.818H509.686V298.635H520.417V301.294H518.484V301.973H520.417V310.437H518.484V311.116H520.417V319.58H518.484V320.259H520.417V328.722H518.484V329.401H520.417V332.134Z" fill="#DFE3E0"/>
<path d="M295.295 321.239H252.782L252.782 314.717H267.953V284.804H252.782H275.621L280.733 293.688H292.303V315.898H295.295V321.239Z" fill="#DFE3E0"/>
<path d="M200.604 298.635H212.25V291.116H200.604V298.635Z" fill="#DFE3E0"/>
<path d="M218.72 342.269H212.985V339.12H208.444V328.38H207.489V339.12H205.338V330.18H204.381V339.12H201.738V342.269H200.319V306H204.743V304.764H200.604V298.635H212.25L212.25 332.167H210.779V332.83H218.72V342.269Z" fill="#DFE3E0"/>
<path d="M205.338 353.907H204.381V344.968H205.338V353.907ZM205.338 339.12H204.381V330.18H205.338V339.12Z" fill="#DFE3E0"/>
<path d="M208.444 352.108H207.489V344.968H208.444V352.108ZM208.444 339.12H207.489V328.38H208.444V339.12Z" fill="#DFE3E0"/>
<path d="M212.985 344.968H201.738L201.738 339.12H212.985V342.269L212.985 344.968Z" fill="#DFE3E0"/>
<path d="M252.782 314.717H267.953V284.804H252.782L252.782 314.717Z" fill="#DFE3E0"/>
<path d="M363.31 346.372H357.404L357.404 345.084H363.31V346.372ZM309.101 346.372H303.195V345.084H309.101V346.372ZM363.31 344.365H357.404V338.234H309.101V344.365H303.195V315.898H318.358V321.196H319.075V315.898H320.629V312.383H321.943V314.1H322.899V312.383H331.865V311.833H329.839V306.373H333.252V289.744H357.404V298.635H360.96V309.244H363.31V344.365Z" fill="#DFE3E0"/>
<path d="M357.404 348.489H309.101L309.101 345.084H357.404L357.404 346.372V348.489ZM357.404 344.365H309.101V338.234H357.404V344.365Z" fill="#DFE3E0"/>
<path d="M367.97 345.084H298.536V344.365L367.97 344.365V345.084Z" fill="#DFE3E0"/>
<path d="M320.629 315.898H319.075L319.075 312.383L320.629 312.383V315.898ZM318.358 315.898H303.195H295.295H292.303V293.688L298.536 293.688V306.373H316.821V311.833H314.623V312.383H318.358V315.898Z" fill="#DFE3E0"/>
<path d="M89.4273 317.079H99.9434V306.639H89.4273V317.079Z" fill="#DFE3E0"/>
<path d="M164.709 325.85H131.274V323.376H102.811V325.85H99.9435L99.9434 317.079V306.639H113.91V284.804H147.219V314.245H157.372V315.94L164.709 315.94V325.85Z" fill="#DFE3E0"/>
<path d="M166.383 327.425H155.389L155.389 326.638H150.131L150.131 327.425H145.351L145.351 326.638H140.571L140.571 327.425H131.274V325.85H166.383V327.425ZM102.811 327.425H96.1647V325.85L102.811 325.85L102.811 327.425Z" fill="#DFE3E0"/>
<path d="M131.274 331.698L102.811 331.698L102.811 323.376H131.274V325.85V327.425V331.698Z" fill="#DFE3E0"/>
<path d="M145.351 331.698H140.571L140.571 326.638H145.351L145.351 327.425V331.698Z" fill="#DFE3E0"/>
<path d="M155.389 331.698H150.131L150.131 326.638H155.389L155.389 327.425V331.698Z" fill="#DFE3E0"/>
<path d="M74.9933 297.287H85.864V289.392H74.9933V297.287Z" fill="#DFE3E0"/>
<path d="M74.9933 302.571H58.9238V291.045H66.959V289.392H74.9933V297.287L74.9933 302.571Z" fill="#DFE3E0"/>
<path d="M66.959 291.045H43.9745V284.804H61.5242L61.5242 289.392H66.959V291.045Z" fill="#DFE3E0"/>
<path d="M665.523 298.635H654.216L659.359 294.174H663.76V293.566H665.523L665.523 298.635ZM653.187 298.635H642.105L642.105 294.174H658.331L653.187 298.635ZM577.339 298.635H566.602L564.731 297.012V294.174H577.339V298.635ZM565.573 298.635H564.731V297.905L565.573 298.635ZM520.417 298.635H509.686L509.686 284.804H520.417V292.15H518.484V292.829H520.417V298.635ZM466.507 298.635H459.497L459.497 284.804H466.508L466.507 298.635ZM395.282 298.635H387.986L387.986 284.804H395.282L395.282 298.635ZM360.96 298.635H357.404V289.744H360.96V298.635ZM665.523 292.359H642.105V291.648L665.523 286.766V292.359ZM577.339 292.359H566.664V292.15H564.731V284.804H577.339L577.339 292.359Z" fill="#DFE3E0"/>
<path d="M612.063 365.977C609.816 365.977 607.995 365.12 607.995 364.063C607.995 363.1 609.511 362.302 611.483 362.169L611.296 359.476C610.83 359.481 610.363 359.485 609.894 359.485C604.206 359.485 598.662 359.042 593.441 358.191L591.802 360.38C593.28 360.665 594.322 361.35 594.322 362.15C594.322 363.207 592.502 364.063 590.255 364.063C588.009 364.063 586.188 363.207 586.188 362.15C586.188 361.093 588.009 360.236 590.255 360.236C590.644 360.236 591.018 360.262 591.375 360.31L593.014 358.12C586.683 357.057 580.835 355.391 575.794 353.184L572.822 354.676C573.488 355.017 573.894 355.471 573.894 355.97C573.894 357.027 572.073 357.883 569.826 357.883C567.581 357.883 565.76 357.027 565.76 355.97C565.76 354.914 567.581 354.056 569.826 354.056C570.85 354.056 571.783 354.235 572.499 354.528L575.465 353.039C575.127 352.888 574.791 352.734 574.46 352.578C570.266 350.606 566.908 348.344 564.469 345.889L560.691 346.71C560.828 346.901 560.903 347.106 560.903 347.319C560.903 348.376 559.083 349.233 556.836 349.233C554.59 349.233 552.769 348.376 552.769 347.319C552.769 346.262 554.59 345.406 556.836 345.406C558.469 345.406 559.876 345.859 560.523 346.512L564.278 345.697C562.731 344.102 561.567 342.428 560.813 340.7H562.198C562.933 342.334 564.044 343.918 565.51 345.429L578.28 342.655C576.465 340.779 575.383 338.714 575.205 336.542L564.731 336.702V336.489L575.187 336.33C575.179 336.188 575.176 336.046 575.176 335.905C575.176 333.959 575.904 332.092 577.236 330.36L564.731 328.194V327.968L577.393 330.161C578.991 328.166 581.396 326.355 584.42 324.818L574.162 320.295C570.103 322.349 566.929 324.694 564.731 327.228V325.66C566.886 323.56 569.717 321.607 573.173 319.859L570.059 318.487C569.33 318.815 568.34 319.016 567.251 319.016C566.3 319.016 565.424 318.863 564.731 318.605V315.6C565.424 315.342 566.3 315.188 567.251 315.188C569.497 315.188 571.318 316.046 571.318 317.103C571.318 317.57 570.961 318 570.368 318.332L573.483 319.704C573.803 319.545 574.128 319.387 574.46 319.231C577.635 317.737 581.162 316.469 584.952 315.442L584.039 314.651H585.068L585.739 315.232C586.043 315.153 586.35 315.076 586.659 314.999V315.724C586.567 315.747 586.476 315.771 586.385 315.795L586.659 316.031V316.923L585.598 316.003C581.922 317.001 578.499 318.232 575.418 319.683C575.097 319.833 574.782 319.986 574.471 320.14L584.727 324.662C586.955 323.559 589.507 322.601 592.31 321.824L588.967 318.925H589.994L593.094 321.612C594.193 321.325 595.329 321.065 596.497 320.835L591.917 315.586V315.026L596.916 320.754C600.53 320.065 604.445 319.657 608.541 319.582L608.2 314.651H608.652L608.991 319.574C609.292 319.57 609.592 319.568 609.894 319.568C613.859 319.568 617.67 319.883 621.222 320.461L622.374 318.925H622.853L622.319 319.636L621.648 320.533C621.842 320.565 622.034 320.599 622.225 320.633C623.771 320.911 625.263 321.239 626.694 321.612L629.793 318.925H630.821L627.479 321.824C629.63 322.421 631.634 323.124 633.455 323.918L643.068 319.091C641.838 318.553 640.559 318.048 639.237 317.578V316.783C640.89 317.347 642.479 317.962 643.994 318.625L647.968 316.63C647.114 316.28 646.575 315.763 646.575 315.188C646.575 314.132 648.396 313.275 650.642 313.275C652.888 313.275 654.709 314.132 654.709 315.188C654.709 316.246 652.888 317.103 650.642 317.103C649.781 317.103 648.983 316.977 648.326 316.761L644.323 318.772C644.662 318.922 644.997 319.075 645.328 319.231C649.522 321.204 652.879 323.466 655.321 325.92L659.746 324.959C659.666 324.81 659.622 324.652 659.622 324.49C659.622 323.434 661.444 322.576 663.69 322.576C665.936 322.576 667.756 323.434 667.756 324.49C667.756 325.547 665.936 326.404 663.69 326.404C661.947 326.404 660.461 325.887 659.883 325.163L655.511 326.114C658.205 328.889 659.732 331.908 659.972 335.033L664.737 334.959C664.795 333.927 666.592 333.098 668.801 333.098C671.047 333.098 672.868 333.954 672.868 335.012C672.868 336.068 671.047 336.926 668.801 336.926C666.669 336.926 664.923 336.154 664.749 335.172L659.986 335.245C660 335.465 660.007 335.685 660.007 335.905C660.007 338.694 658.984 341.409 657.022 343.957L661.001 344.646C661.625 343.967 663.062 343.492 664.734 343.492C666.98 343.492 668.801 344.349 668.801 345.406C668.801 346.463 666.98 347.319 664.734 347.319C662.488 347.319 660.667 346.463 660.667 345.406C660.667 345.211 660.729 345.023 660.845 344.845L656.867 344.156C654.599 347.017 651.144 349.66 646.616 351.95L649.73 353.324C650.46 352.995 651.448 352.793 652.537 352.793C654.784 352.793 656.604 353.65 656.604 354.706C656.604 355.764 654.784 356.621 652.537 356.621C650.291 356.621 648.471 355.764 648.471 354.706C648.471 354.24 648.828 353.811 649.419 353.479L646.307 352.105C645.985 352.265 645.66 352.423 645.328 352.578C640.614 354.797 635.126 356.519 629.15 357.688L630.862 359.651C631.251 359.593 631.665 359.561 632.094 359.561C634.34 359.561 636.161 360.418 636.161 361.474C636.161 362.532 634.34 363.388 632.094 363.388C629.848 363.388 628.027 362.532 628.027 361.474C628.027 360.696 629.018 360.024 630.44 359.726L628.732 357.769C625.475 358.39 622.076 358.848 618.581 359.134C616.338 359.317 614.058 359.43 611.748 359.469L611.933 362.151L612.063 362.15C614.309 362.15 616.129 363.006 616.129 364.063C616.129 365.12 614.309 365.977 612.063 365.977ZM598.567 351.348L593.892 357.588C598.97 358.415 604.363 358.847 609.894 358.847C610.349 358.847 610.801 358.844 611.252 358.838L610.796 352.236C610.497 352.24 610.196 352.242 609.894 352.242C605.93 352.242 602.119 351.926 598.567 351.348ZM619.291 351.632C616.717 351.973 614.024 352.178 611.248 352.228L611.704 358.831C614.051 358.792 616.368 358.674 618.643 358.481C621.937 358.202 625.142 357.764 628.217 357.179L622.873 351.056C621.709 351.278 620.514 351.471 619.291 351.632ZM586.333 347.893L576.721 352.718C581.623 354.864 587.309 356.485 593.466 357.518L598.14 351.277C593.72 350.527 589.716 349.366 586.333 347.893ZM635.061 347.147C631.767 348.779 627.766 350.092 623.291 350.976L628.635 357.098C634.447 355.959 639.785 354.284 644.37 352.127C644.691 351.977 645.006 351.824 645.317 351.67L635.061 347.147ZM578.471 342.848L565.699 345.622C568.073 348.009 571.34 350.208 575.418 352.127C575.739 352.279 576.064 352.427 576.392 352.573L586.002 347.748C582.889 346.355 580.324 344.695 578.471 342.848ZM609.201 337.15L598.792 351.047C602.274 351.614 606.008 351.923 609.894 351.923C610.189 351.923 610.481 351.921 610.775 351.917L609.757 337.19C609.566 337.185 609.381 337.172 609.201 337.15ZM610.72 337.131C610.555 337.157 610.385 337.173 610.208 337.183L611.226 351.909C614.024 351.858 616.736 351.647 619.323 351.296C620.445 351.144 621.544 350.965 622.616 350.762L619.691 347.41L610.72 337.131ZM642.395 341.649C640.797 343.644 638.393 345.454 635.369 346.991L645.628 351.515C650.028 349.288 653.389 346.717 655.594 343.935L642.395 341.649ZM608.197 336.913L586.796 347.66C590.111 349.103 594.035 350.241 598.366 350.976L608.775 337.078C608.567 337.035 608.373 336.979 608.197 336.913ZM619.739 346.905L623.034 350.681C627.419 349.814 631.338 348.528 634.567 346.929L620.33 340.652L611.728 336.859C611.551 336.934 611.353 336.999 611.138 337.05L619.739 346.905ZM607.515 336.539L579.087 342.714C580.901 344.525 583.415 346.151 586.465 347.514L607.866 336.768C607.731 336.697 607.614 336.621 607.515 336.539ZM620.357 340.372L634.875 346.774C637.837 345.267 640.193 343.494 641.759 341.539L620.594 337.872L612.373 336.448C612.282 336.54 612.168 336.625 612.037 336.704L620.357 340.372ZM658.632 335.266L644.602 335.48C644.608 335.621 644.613 335.763 644.613 335.905C644.613 337.85 643.885 339.717 642.552 341.449L655.749 343.736C657.655 341.259 658.651 338.617 658.651 335.905C658.651 335.691 658.643 335.477 658.632 335.266ZM607.179 336.053L575.882 336.531C576.057 338.659 577.117 340.683 578.895 342.521L607.325 336.346C607.253 336.252 607.204 336.154 607.179 336.053ZM620.614 337.648L641.917 341.339C643.222 339.642 643.936 337.812 643.936 335.905C643.936 335.766 643.932 335.629 643.923 335.49L620.786 335.844L612.625 335.97C612.615 336.065 612.582 336.159 612.529 336.248L620.614 337.648ZM577.872 330.47C576.567 332.168 575.854 333.998 575.854 335.905C575.854 336.043 575.857 336.181 575.865 336.319L607.163 335.841C607.174 335.744 607.206 335.651 607.258 335.561L577.872 330.47ZM620.997 333.61L612.464 335.464C612.536 335.556 612.586 335.655 612.61 335.756L620.805 335.631L643.906 335.278C643.732 333.15 642.672 331.126 640.892 329.288L620.997 333.61ZM584.914 325.036C581.951 326.542 579.596 328.316 578.03 330.272L607.415 335.362C607.489 335.288 607.576 335.218 607.678 335.152L607.491 334.99L584.914 325.036ZM621.307 330.329L612.674 334.665L612.112 335.153L612.274 335.271L621.02 333.372L640.701 329.096C638.886 327.285 636.374 325.658 633.324 324.295L621.307 330.329ZM654.28 326.38L641.508 329.154C643.324 331.031 644.406 333.096 644.584 335.267L658.618 335.054C658.384 332.015 656.899 329.08 654.28 326.38ZM621.422 320.834L611.013 334.731C611.163 334.762 611.305 334.8 611.439 334.844L621.724 325.923L626.372 321.893C625.031 321.542 623.636 321.234 622.193 320.969C621.938 320.923 621.681 320.878 621.422 320.834ZM596.755 321.129C595.609 321.355 594.495 321.611 593.418 321.893L608.349 334.844C608.445 334.813 608.546 334.785 608.65 334.759L596.755 321.129ZM608.563 319.9C604.551 319.973 600.715 320.375 597.173 321.048L609.068 334.678C609.232 334.654 609.403 334.636 609.579 334.627L608.563 319.9ZM609.894 319.886C609.6 319.886 609.306 319.889 609.014 319.892L610.032 334.62C610.222 334.624 610.408 334.637 610.587 334.66L620.996 320.763C617.516 320.195 613.78 319.886 609.894 319.886ZM592.633 322.104C589.895 322.866 587.4 323.802 585.222 324.88L606.808 334.399L592.633 322.104ZM621.633 326.894L613.525 333.926L621.339 330.002L632.993 324.15C631.211 323.375 629.255 322.688 627.156 322.104L621.633 326.894ZM643.396 319.236L633.786 324.062C636.899 325.454 639.466 327.114 641.317 328.962L654.09 326.188C651.715 323.801 648.448 321.601 644.37 319.683C644.049 319.531 643.724 319.384 643.396 319.236ZM642.105 309.139V308.247L653.187 298.635L658.331 294.174H642.105V292.359H665.523V293.566H663.76V294.174H659.359L654.216 298.635L642.105 309.139ZM577.339 308.84L565.573 298.635L564.731 297.905V297.012L566.602 298.635L577.339 307.947V308.84ZM577.339 294.174H564.731V292.829H566.664L566.664 292.359H577.339V294.174Z" fill="#DFE3E0"/>
<path d="M678.617 320.834H686.627L686.627 308.844L678.617 308.844V320.834Z" fill="#DFE3E0"/>
<path d="M741.71 306.825H753.818V296.778H741.71V306.825Z" fill="#DFE3E0"/>
<path d="M741.71 355.097H737.727V346.582H736.453V355.097H733.425V350.681H732.15V355.097H729.521V343.945H728.247V344.631C728.074 344.53 727.83 344.468 727.561 344.468C727.035 344.468 726.608 344.708 726.608 345.003C726.608 345.298 727.035 345.538 727.561 345.538C727.83 345.538 728.074 345.476 728.247 345.376V355.097H704.746V335.176H713.574V338.471H723.211L724.651 340.624H727.031V344.468H728.093V340.624H732.51V335.992V335.176H736.17V333.007H739.351V331.312H737.894V296.778L741.71 296.778V306.825V355.097Z" fill="#DFE3E0"/>
<path d="M790.782 325.85H789.417V324.662H784.637V325.85H783.453V324.662H780.108V325.85H773.177V322.702H755.731V325.85H753.818L753.818 306.825V296.778L753.818 284.804H781.78L781.223 284.804V294.174H781.78V314.1H780.108V315.498H793.756L790.782 325.85Z" fill="#DFE3E0"/>
<path d="M781.223 294.174H781.78L781.78 284.804L781.223 284.804V294.174Z" fill="#DFE3E0"/>
<path d="M733.425 369.783H732.15L732.15 350.681H733.425V355.097L733.425 369.783Z" fill="#DFE3E0"/>
<path d="M737.727 365.684H736.453V346.582H737.727V355.097L737.727 365.684Z" fill="#DFE3E0"/>
<path d="M729.521 363.046H728.247L728.247 345.376C728.414 345.279 728.516 345.148 728.516 345.003C728.516 344.858 728.414 344.727 728.247 344.631V343.945H729.521V355.097L729.521 363.046Z" fill="#DFE3E0"/>
<path d="M773.177 329.168H771.264V327.838H757.643V329.168H755.731L755.731 325.85V322.702H773.177V325.85L773.177 329.168Z" fill="#DFE3E0"/>
<path d="M771.264 331.473H757.643L757.643 327.838H771.264V329.168L771.264 331.473Z" fill="#DFE3E0"/>
<path d="M783.453 327.273H780.108L780.108 324.662H783.453V325.85L783.453 327.273Z" fill="#DFE3E0"/>
<path d="M789.417 329.656H784.637V324.662H789.417V325.85V329.656Z" fill="#DFE3E0"/>
<path d="M564.731 338.161H520.417V329.401L564.731 329.401L564.731 336.489V336.702L564.731 338.161ZM555.302 330.584V335.953H559.906V330.584H555.302ZM545.002 330.584V335.953H549.607V330.584H545.002ZM534.704 330.584V335.953H539.309V330.584H534.704ZM524.405 330.584V335.953H529.009V330.584H524.405ZM564.731 328.722H520.417V320.259L564.731 320.259L564.731 325.66V327.228V327.968V328.194L564.731 328.722ZM555.302 321.806V327.176H559.906V321.806H555.302ZM545.002 321.806V327.176H549.607V321.806H545.002ZM534.704 321.806V327.176H539.309V321.806H534.704ZM524.405 321.806V327.176H529.009V321.806H524.405ZM564.731 319.58H520.417V311.116H564.731L564.731 315.6V318.605L564.731 319.58ZM555.302 312.662V318.033H559.906V312.662H555.302ZM545.002 312.662V318.033H549.607V312.662H545.002ZM534.704 312.662V318.033H539.309V312.662H534.704ZM524.405 312.662V318.033H529.009V312.662H524.405ZM564.731 310.437L520.417 310.437V301.973H564.731V310.437ZM555.302 303.521V308.889H559.906V303.521H555.302ZM545.002 303.521V308.889H549.607V303.521H545.002ZM534.704 303.521V308.889H539.309V303.521H534.704ZM524.405 303.521V308.889H529.009V303.521H524.405ZM564.731 301.294H520.417V298.635V292.829L564.731 292.829V294.174V297.012V297.905V298.635L564.731 301.294ZM555.302 294.377V299.747H559.906V294.377H555.302ZM545.002 294.377V299.747H549.607V294.377H545.002ZM534.704 294.377V299.747H539.309V294.377H534.704ZM524.405 294.377V299.747H529.009V294.377H524.405ZM564.731 292.15H520.417V284.804V283.687H564.731V284.804V292.15ZM555.302 285.234V290.604H559.906V285.234H555.302ZM545.002 285.234V290.604H549.607V285.234H545.002ZM534.704 285.234V290.604H539.309V285.234H534.704ZM524.405 285.234V290.604H529.009V285.234H524.405ZM556.602 283.008L520.417 283.008V276.09L524.405 276.09V281.461H529.009V276.09H534.704V281.461H539.309V276.09V272.031H520.417H564.731H556.602V276.09H555.302V281.461H556.602V283.008ZM545.002 276.09V281.461H549.607V276.09H545.002Z" fill="#D6DCD9"/>
<path d="M568.04 338.842H517.107V338.161H568.04V338.842Z" fill="#D6DCD9"/>
<path d="M566.664 329.401H518.484V328.722H566.664V329.401Z" fill="#D6DCD9"/>
<path d="M566.664 320.259H518.484V319.58H566.664V320.259Z" fill="#D6DCD9"/>
<path d="M566.664 311.116H518.484V310.437L566.664 310.437V311.116Z" fill="#D6DCD9"/>
<path d="M566.664 301.973H518.484V301.294H566.664V301.973Z" fill="#D6DCD9"/>
<path d="M566.664 292.829L518.484 292.829V292.15H566.664V292.359L566.664 292.829Z" fill="#D6DCD9"/>
<path d="M566.664 283.687H518.484V283.008L556.602 283.008L556.602 283.376H566.664V283.687Z" fill="#D6DCD9"/>
<path d="M569.725 340.7H538.286V339.771H523.214V340.7H515.422V338.842H569.725V340.7Z" fill="#D6DCD9"/>
<path d="M524.405 335.953H529.009V330.584H524.405V335.953Z" fill="#D6DCD9"/>
<path d="M534.704 335.953H539.309V330.584H534.704V335.953Z" fill="#D6DCD9"/>
<path d="M545.002 335.953H549.607V330.584H545.002V335.953Z" fill="#D6DCD9"/>
<path d="M555.302 335.953H559.906V330.584H555.302V335.953Z" fill="#D6DCD9"/>
<path d="M524.405 327.176H529.009V321.806H524.405V327.176Z" fill="#D6DCD9"/>
<path d="M534.704 327.176H539.309V321.806H534.704V327.176Z" fill="#D6DCD9"/>
<path d="M545.002 327.176H549.607V321.806H545.002V327.176Z" fill="#D6DCD9"/>
<path d="M555.302 327.176H559.906V321.806H555.302V327.176Z" fill="#D6DCD9"/>
<path d="M524.405 318.033H529.009V312.662H524.405V318.033Z" fill="#D6DCD9"/>
<path d="M534.704 318.033H539.309V312.662H534.704V318.033Z" fill="#D6DCD9"/>
<path d="M545.002 318.033H549.607V312.662H545.002V318.033Z" fill="#D6DCD9"/>
<path d="M555.302 318.033H559.906V312.662H555.302V318.033Z" fill="#D6DCD9"/>
<path d="M524.405 308.889H529.009V303.521H524.405V308.889Z" fill="#D6DCD9"/>
<path d="M534.704 308.889H539.309V303.521H534.704V308.889Z" fill="#D6DCD9"/>
<path d="M545.002 308.889H549.607V303.521H545.002V308.889Z" fill="#D6DCD9"/>
<path d="M555.302 308.889H559.906V303.521H555.302V308.889Z" fill="#D6DCD9"/>
<path d="M524.405 299.747H529.009V294.377H524.405V299.747Z" fill="#D6DCD9"/>
<path d="M534.704 299.747H539.309V294.377H534.704V299.747Z" fill="#D6DCD9"/>
<path d="M545.002 299.747H549.607V294.377H545.002V299.747Z" fill="#D6DCD9"/>
<path d="M555.302 299.747H559.906V294.377H555.302V299.747Z" fill="#D6DCD9"/>
<path d="M524.405 290.604H529.009V285.234H524.405V290.604Z" fill="#D6DCD9"/>
<path d="M534.704 290.604H539.309V285.234H534.704V290.604Z" fill="#D6DCD9"/>
<path d="M545.002 290.604H549.607V285.234H545.002V290.604Z" fill="#D6DCD9"/>
<path d="M555.302 290.604H559.906V285.234H555.302V290.604Z" fill="#D6DCD9"/>
<path d="M524.405 281.461H529.009V276.09H524.405V281.461Z" fill="#D6DCD9"/>
<path d="M534.704 281.461H539.309V276.09H534.704V281.461Z" fill="#D6DCD9"/>
<path d="M545.002 281.461H549.607V276.09H545.002V281.461Z" fill="#D6DCD9"/>
<path d="M555.302 281.461H556.602V276.09H555.302V281.461Z" fill="#D6DCD9"/>
<path d="M538.285 342.765H523.214L523.214 339.771H538.286V340.7L538.285 342.765Z" fill="#D6DCD9"/>
<path d="M539.309 343.361H522.191V342.765H539.309V343.361Z" fill="#D6DCD9"/>
<path d="M454.311 342.385L444.74 341.283L444.74 272.031H439.553L439.553 340.687L438.76 340.595L429.983 339.586V272.031H424.797H400.468H397.875H456.905H452.968V283.376H454.311L454.311 342.385ZM446.084 326.625V331.56H452.968V326.625H446.084ZM431.326 326.625V331.56H438.211V326.625H431.326ZM446.084 318.033V322.967H452.968V318.033H446.084ZM431.326 318.033V322.967H438.211V318.033H431.326ZM446.084 309.438V314.374H452.968V309.438H446.084ZM431.326 309.438V314.374H438.211V309.438H431.326ZM446.084 300.846V305.78H452.968V300.846H446.084ZM431.326 300.846V305.78H438.211V300.846H431.326ZM446.084 292.252V297.188H452.968V292.252H446.084ZM431.326 292.252V297.188H438.211V292.252H431.326ZM446.084 283.659V288.594H452.968V283.659H446.084ZM431.326 283.659V288.594H438.211V283.659H431.326ZM446.084 275.066V280H452.968V275.066H446.084ZM431.326 275.066V280H438.211V275.066H431.326ZM424.797 338.988L415.226 337.887V277.533H416.569V280H423.453V277.533H424.797V338.988ZM416.569 326.625V331.56H423.453V326.625H416.569ZM416.569 318.033V322.967H423.453V318.033H416.569ZM416.569 309.438V314.374H423.453V309.438H416.569ZM416.569 300.846V305.78H423.453V300.846H416.569ZM416.569 292.252V297.188H423.453V292.252H416.569ZM416.569 283.659V288.594H423.453V283.659H416.569ZM410.039 337.29L404.074 336.604L400.468 336.188L400.468 277.533H401.811V280H408.696V277.533H410.039V337.29ZM401.811 326.625V331.56H408.696V326.625H401.811ZM401.811 318.033V322.967H408.696V318.033H401.811ZM401.811 309.438V314.374H408.696V309.438H401.811ZM401.811 300.846V305.78H408.696V300.846H401.811ZM401.811 292.252V297.188H408.696V292.252H401.811ZM401.811 283.659V288.594H408.696V283.659H401.811Z" fill="#D6DCD9"/>
<path d="M400.468 337.014H395.282L395.282 277.533L400.468 277.533L400.468 336.188V337.014Z" fill="#D6DCD9"/>
<path d="M415.226 338.844H410.039L410.039 277.533H415.226V337.887L415.226 338.844Z" fill="#D6DCD9"/>
<path d="M429.983 340.747H424.797V277.533L429.131 277.533V272.031L424.797 272.031H429.983V339.586V340.747Z" fill="#D6DCD9"/>
<path d="M444.74 342.297H439.553L439.553 272.031H444.74L444.74 341.283V342.297Z" fill="#D6DCD9"/>
<path d="M459.497 343.945H454.311L454.311 283.376H459.497V284.804L459.497 298.635V343.945Z" fill="#D6DCD9"/>
<path d="M401.811 331.56H408.696V326.625H401.811V331.56Z" fill="#D6DCD9"/>
<path d="M416.569 331.56H423.453V326.625H416.569V331.56Z" fill="#D6DCD9"/>
<path d="M431.326 331.56H438.211V326.625H431.326V331.56Z" fill="#D6DCD9"/>
<path d="M446.084 331.56H452.968V326.625H446.084V331.56Z" fill="#D6DCD9"/>
<path d="M401.811 322.967H408.696V318.033H401.811V322.967Z" fill="#D6DCD9"/>
<path d="M416.569 322.967H423.453V318.033H416.569V322.967Z" fill="#D6DCD9"/>
<path d="M431.326 322.967H438.211V318.033H431.326V322.967Z" fill="#D6DCD9"/>
<path d="M446.084 322.967H452.968V318.033H446.084V322.967Z" fill="#D6DCD9"/>
<path d="M401.811 314.374H408.696V309.438H401.811V314.374Z" fill="#D6DCD9"/>
<path d="M416.569 314.374H423.453V309.438H416.569V314.374Z" fill="#D6DCD9"/>
<path d="M431.326 314.374H438.211V309.438H431.326V314.374Z" fill="#D6DCD9"/>
<path d="M446.084 314.374H452.968V309.438H446.084V314.374Z" fill="#D6DCD9"/>
<path d="M401.811 305.78H408.696V300.846H401.811V305.78Z" fill="#D6DCD9"/>
<path d="M416.569 305.78H423.453V300.846H416.569V305.78Z" fill="#D6DCD9"/>
<path d="M431.326 305.78H438.211V300.846H431.326V305.78Z" fill="#D6DCD9"/>
<path d="M446.084 305.78H452.968V300.846H446.084V305.78Z" fill="#D6DCD9"/>
<path d="M401.811 297.188H408.696V292.252H401.811V297.188Z" fill="#D6DCD9"/>
<path d="M416.569 297.188H423.453V292.252H416.569V297.188Z" fill="#D6DCD9"/>
<path d="M431.326 297.188H438.211V292.252H431.326V297.188Z" fill="#D6DCD9"/>
<path d="M446.084 297.188H452.968V292.252H446.084V297.188Z" fill="#D6DCD9"/>
<path d="M401.811 288.594H408.696V283.659H401.811V288.594Z" fill="#D6DCD9"/>
<path d="M416.569 288.594H423.453V283.659H416.569V288.594Z" fill="#D6DCD9"/>
<path d="M431.326 288.594H438.211V283.659H431.326V288.594Z" fill="#D6DCD9"/>
<path d="M446.084 288.594H452.968V283.659H446.084V288.594Z" fill="#D6DCD9"/>
<path d="M401.811 280H408.696V277.533H401.811V280Z" fill="#D6DCD9"/>
<path d="M416.569 280H423.453V277.533H416.569V280Z" fill="#D6DCD9"/>
<path d="M431.326 280H438.211V275.066H431.326V280Z" fill="#D6DCD9"/>
<path d="M446.084 280H452.968V275.066H446.084V280Z" fill="#D6DCD9"/>
<path d="M229.486 332.83H210.779V332.167H212.25L212.25 298.635V291.116L231.78 291.116V272.031H212.25H252.782H241.401V277.533L252.782 277.533V284.804L252.782 314.717L252.782 321.239V330.278H235.193H228.083V332.167H229.486V332.83Z" fill="#D6DCD9"/>
<path d="M333.252 306.373H329.839L329.839 305.78H322.899V301.724H321.943V305.78H319.075V300.223H318.358V305.78H316.821V306.373H298.536V293.688L306.465 293.688V277.533H309.101V272.031H298.536H333.252H326.938V289.744H333.252V306.373Z" fill="#D6DCD9"/>
<path d="M175.44 314.245H169.85L169.85 310.888H157.372L157.372 314.245H147.219V284.804L157.372 284.804V272.031H147.219H175.44H169.85V305.45H171.96V306H175.44V314.245Z" fill="#D6DCD9"/>
<path d="M171.96 305.45H169.85V272.031L200.604 272.031H197.301V291.116L200.604 291.116V298.635V304.764L171.96 304.764L171.96 305.45Z" fill="#D6DCD9"/>
<path d="M169.85 315.94L157.372 315.94L157.372 310.888H169.85L169.85 314.245V315.94Z" fill="#D6DCD9"/>
<path d="M204.743 306H171.96L171.96 304.764L204.743 304.764V306Z" fill="#D6DCD9"/>
<path d="M231.78 291.116L197.301 291.116V272.031L231.78 272.031V291.116Z" fill="#D6DCD9"/>
<path d="M113.91 306.639H85.864L85.864 289.392H98.4218V272.031H85.864H113.91V284.804V306.639Z" fill="#D6DCD9"/>
<path d="M98.4218 289.392H61.5242L61.5242 278.358L94.0431 278.358V272.031H61.5242L85.864 272.031H98.4218V289.392Z" fill="#D6DCD9"/>
<path d="M43.9745 292.23H20.8952V280.403L27.9578 280.403V272.031H20.8952H43.9745H39.4941V278.358L43.9745 278.358V284.804V291.045V292.23Z" fill="#D6DCD9"/>
<path d="M94.0431 278.358H39.4941V272.031H94.0431V278.358Z" fill="#D6DCD9"/>
<path d="M27.9578 280.403L0 280.403V272.031L27.9578 272.031V280.403Z" fill="#D6DCD9"/>
<path d="M157.372 284.804L113.91 284.804V272.031H157.372V284.804Z" fill="#D6DCD9"/>
<path d="M309.101 277.533H306.465V274.783H269.852L271.436 277.533H252.782L241.401 277.533V272.031H252.782H298.536H309.101V277.533Z" fill="#D6DCD9"/>
<path d="M429.131 277.533L387.986 277.533L387.986 275.066H369.003V272.031H361.432H400.468H424.797L429.131 272.031V277.533Z" fill="#D6DCD9"/>
<path d="M306.465 293.688H280.733L275.621 284.804L271.436 277.533L269.852 274.783H306.465V277.533V293.688Z" fill="#D6DCD9"/>
<path d="M319.075 321.196H318.358V312.383H319.075L319.075 315.898V321.196ZM319.075 305.78H318.358V300.223H319.075V305.78Z" fill="#D6DCD9"/>
<path d="M322.899 314.1H321.943V312.383H322.899V314.1ZM322.899 305.78H321.943V301.724H322.899V305.78Z" fill="#D6DCD9"/>
<path d="M329.839 311.833H316.821V305.78H329.839L329.839 306.373V311.833Z" fill="#D6DCD9"/>
<path d="M331.865 312.383L314.623 312.383V311.833H331.865V312.383Z" fill="#D6DCD9"/>
<path d="M360.96 289.744H326.938V272.031L369.003 272.031V275.066L360.96 275.066L360.96 289.744Z" fill="#D6DCD9"/>
<path d="M387.986 309.244H360.96L360.96 275.066L387.986 275.066L387.986 277.533V284.804L387.986 298.635V309.244Z" fill="#D6DCD9"/>
<path d="M509.686 302.818H466.507L466.508 283.376H502.198V272.031H466.507H509.686H507.296V276.09H509.686V284.804L509.686 298.635V302.818Z" fill="#D6DCD9"/>
<path d="M502.198 283.376H452.968V272.031H502.198V283.376Z" fill="#D6DCD9"/>
<path d="M539.309 276.09L507.296 276.09V272.031H509.686L520.417 272.031H539.309V276.09Z" fill="#D6DCD9"/>
<path d="M577.339 283.376H556.602L556.602 272.031H608.65H577.339V283.376Z" fill="#D6DCD9"/>
<path d="M642.105 313.077H639.237V310.602H610.774V313.077H582.223H577.339V308.84V307.947V298.635V294.174V292.359L577.339 284.804V283.376V272.031H608.65H642.105H641.759V291.719L642.105 291.648V292.359V294.174L642.105 298.635V308.247V309.139V313.077Z" fill="#D6DCD9"/>
<path d="M645.883 314.651H639.237V313.077H645.883V314.651ZM610.774 314.651H608.652H608.2H601.476V313.864H596.697V314.651H591.917V313.864H586.659V314.651H585.068H584.039H575.666V313.077L582.223 313.077H610.774V314.651Z" fill="#D6DCD9"/>
<path d="M639.237 318.925H610.774V310.602H639.237V313.077V314.651V316.783V317.578V318.925Z" fill="#D6DCD9"/>
<path d="M601.476 318.925H596.697L596.697 313.864H601.476V314.651L601.476 318.925Z" fill="#D6DCD9"/>
<path d="M591.917 318.925H586.658L586.659 313.864H591.917V314.651V315.026V315.586L591.917 318.925Z" fill="#D6DCD9"/>
<path d="M737.894 331.312H736.171V327.123H688.35V331.312H686.627V320.834L686.627 308.844L691.688 308.844V272.031H686.628H737.894H730.876V296.778L737.894 296.778V331.312Z" fill="#D6DCD9"/>
<path d="M739.351 333.007H736.17L736.171 331.312H739.351V333.007ZM688.35 333.007H685.171V331.312H686.627H688.35L688.35 333.007Z" fill="#D6DCD9"/>
<path d="M736.17 335.176H732.51L732.51 329.672H713.574V335.176H704.746H691.688H688.35V333.007L688.35 331.312V327.123H736.171V331.312L736.17 333.007V335.176Z" fill="#D6DCD9"/>
<path d="M723.211 338.471H713.574V329.672H732.51L732.51 335.176V335.992H728.093V334.151H727.031V335.992H721.552L723.211 338.471Z" fill="#D6DCD9"/>
<path d="M732.51 340.624H728.093L728.093 335.992H732.51V340.624ZM727.031 340.624H724.651L723.211 338.471L721.552 335.992H727.031L727.031 340.624Z" fill="#D6DCD9"/>
<path d="M728.093 344.468H727.031L727.031 334.151H728.093V335.992L728.093 340.624V344.468Z" fill="#D6DCD9"/>
<path d="M727.561 345.538C727.035 345.538 726.608 345.298 726.608 345.003C726.608 344.708 727.035 344.468 727.561 344.468C727.83 344.468 728.074 344.53 728.247 344.631C728.414 344.727 728.516 344.858 728.516 345.003C728.516 345.148 728.414 345.279 728.247 345.376C728.074 345.476 727.83 345.538 727.561 345.538Z" fill="#D6DCD9"/>
<path d="M753.818 296.778L730.876 296.778V272.031H737.894L753.818 272.031H746.285V282.724L753.818 282.724V284.804L753.818 296.778Z" fill="#D6DCD9"/>
<path d="M691.688 308.844L665.523 308.844L665.523 286.766L672.868 285.234L678.617 272.031H665.523L686.628 272.031H691.688V308.844Z" fill="#D6DCD9"/>
<path d="M641.759 291.719V272.031H678.617L672.868 285.234L665.523 286.766L642.105 291.648L641.759 291.719Z" fill="#D6DCD9"/>
<path d="M781.78 282.724L746.285 282.724V272.031H802.572H781.78L781.78 282.724Z" fill="#D6DCD9"/>
<path d="M814.477 314.1H810.095V312.919H809.378V314.1H805.315V313.532H804.599V314.1L781.78 314.1V294.174L781.78 284.804V282.724L781.78 272.031H802.572L814.477 272.031H806.829V280H812.007V298.635H814.477V314.1Z" fill="#D6DCD9"/>
<path d="M861 280L832.506 280L832.8 279.079H812.007L812.007 280H806.829V272.031H814.477L861 272.031V280Z" fill="#D6DCD9"/>
<path d="M815.973 315.498H810.095L810.095 314.1L815.973 314.1V315.498ZM809.378 315.498H805.315L805.315 314.1H809.378V315.498ZM804.599 315.498L793.756 315.498H780.108V314.1H781.78L804.599 314.1L804.599 315.498Z" fill="#D6DCD9"/>
<path d="M810.095 321.522H809.378L809.378 312.919H810.095V314.1L810.095 315.498L810.095 321.522Z" fill="#D6DCD9"/>
<path d="M805.315 320.433H804.599L804.599 313.532H805.315V314.1L805.315 315.498L805.315 320.433Z" fill="#D6DCD9"/>
<path d="M826.586 298.635L812.007 298.635L812.007 279.079H832.8L832.506 280L830.561 286.126L828.004 294.174L826.586 298.635Z" fill="#D6DCD9"/>
<path d="M235.193 235.996H273.186V88.5079H235.193V235.996Z" fill="#B5C3C2"/>
<path d="M241.401 139.913H266.979V77.9341H241.401V139.913Z" fill="#B5C3C2"/>
<path d="M247.096 105.605H261.284V71.2271H247.096V105.605Z" fill="#B5C3C2"/>
<path d="M259.024 88.8931H249.356V65.4635H259.024V88.8931Z" fill="#B5C3C2"/>
<path d="M253.554 78.6903H252.504V55.2616H253.554V78.6903Z" fill="#B5C3C2"/>
<path d="M255.876 70.5915H254.827V47.1629H255.876V70.5915Z" fill="#B5C3C2"/>
<path d="M274.2 89.7011H234.18V88.13H274.2V89.7011Z" fill="#B5C3C2"/>
<path d="M267.912 78.6903H240.468V77.1778H267.912V78.6903Z" fill="#B5C3C2"/>
<path d="M261.879 71.7508H246.062V70.5914H261.879V71.7508Z" fill="#B5C3C2"/>
<path d="M243.753 86.944H244.942V80.4495H243.753V86.944Z" fill="#B5C3C2"/>
<path d="M247.043 86.944H247.096V80.4495H247.043V86.944Z" fill="#B5C3C2"/>
<path d="M247.096 86.944H248.233V80.4495H247.096V86.944Z" fill="#B5C3C2"/>
<path d="M250.334 86.944H251.523V80.4495H250.334V86.944Z" fill="#B5C3C2"/>
<path d="M253.623 86.944H254.812V80.4495H253.623V86.944Z" fill="#B5C3C2"/>
<path d="M256.913 86.944H258.103V80.4495H256.913V86.944Z" fill="#B5C3C2"/>
<path d="M261.283 86.944H261.392V80.4495H261.283V86.944Z" fill="#B5C3C2"/>
<path d="M260.204 86.944H261.283V80.4495H260.204V86.944Z" fill="#B5C3C2"/>
<path d="M263.493 86.944H264.682V80.4495H263.493V86.944Z" fill="#B5C3C2"/>
<path d="M241.401 102.093H238.528V94.3888H241.401V102.093Z" fill="#B5C3C2"/>
<path d="M244.218 102.094H247.092V94.3891H244.218V102.094Z" fill="#B5C3C2"/>
<path d="M252.782 102.093H249.909V94.3888H252.782V102.093Z" fill="#B5C3C2"/>
<path d="M258.471 102.093H255.598V94.3888H258.471V102.093Z" fill="#B5C3C2"/>
<path d="M264.161 102.093H261.289V94.3888H264.161V102.093Z" fill="#B5C3C2"/>
<path d="M269.852 102.093H266.979V94.3888H269.852V102.093Z" fill="#B5C3C2"/>
<path d="M241.401 114.104H238.528V106.399H241.401V114.104Z" fill="#B5C3C2"/>
<path d="M247.091 114.104H244.218V106.399H247.091V114.104Z" fill="#B5C3C2"/>
<path d="M252.782 114.104H249.909V106.399H252.782V114.104Z" fill="#B5C3C2"/>
<path d="M255.598 114.104H258.471V106.398H255.598V114.104Z" fill="#B5C3C2"/>
<path d="M264.161 114.104H261.289V106.399H264.161V114.104Z" fill="#B5C3C2"/>
<path d="M269.852 114.104H266.979V106.399H269.852V114.104Z" fill="#B5C3C2"/>
<path d="M241.401 126.114H238.528V118.409H241.401V126.114Z" fill="#B5C3C2"/>
<path d="M247.091 126.114H244.218V118.409H247.091V126.114Z" fill="#B5C3C2"/>
<path d="M252.782 126.114H249.909V118.409H252.782V126.114Z" fill="#B5C3C2"/>
<path d="M258.471 126.114H255.598V118.409H258.471V126.114Z" fill="#B5C3C2"/>
<path d="M261.289 126.114H264.161V118.409H261.289V126.114Z" fill="#B5C3C2"/>
<path d="M266.979 126.114H269.852V118.409H266.979V126.114Z" fill="#B5C3C2"/>
<path d="M238.528 138.124H241.401V130.419H238.528V138.124Z" fill="#B5C3C2"/>
<path d="M247.091 138.124H244.218V130.419H247.091V138.124Z" fill="#B5C3C2"/>
<path d="M252.782 138.124H249.909V130.419H252.782V138.124Z" fill="#B5C3C2"/>
<path d="M258.471 138.124H255.598V130.419H258.471V138.124Z" fill="#B5C3C2"/>
<path d="M264.161 138.124H261.289V130.419H264.161V138.124Z" fill="#B5C3C2"/>
<path d="M269.852 138.124H266.979V130.419H269.852V138.124Z" fill="#B5C3C2"/>
<path d="M241.401 150.135H238.528V142.429H241.401V150.135Z" fill="#B5C3C2"/>
<path d="M244.218 150.135H247.092V142.43H244.218V150.135Z" fill="#B5C3C2"/>
<path d="M252.782 150.135H249.909V142.429H252.782V150.135Z" fill="#B5C3C2"/>
<path d="M255.598 150.135H258.471V142.43H255.598V150.135Z" fill="#B5C3C2"/>
<path d="M264.161 150.135H261.289V142.429H264.161V150.135Z" fill="#B5C3C2"/>
<path d="M269.852 150.135H266.979V142.429H269.852V150.135Z" fill="#B5C3C2"/>
<path d="M241.401 162.144H238.528V154.44H241.401V162.144Z" fill="#B5C3C2"/>
<path d="M247.091 162.144H244.218V154.44H247.091V162.144Z" fill="#B5C3C2"/>
<path d="M252.782 162.144H249.909V154.44H252.782V162.144Z" fill="#B5C3C2"/>
<path d="M258.471 162.144H255.598V154.44H258.471V162.144Z" fill="#B5C3C2"/>
<path d="M264.161 162.144H261.289V154.44H264.161V162.144Z" fill="#B5C3C2"/>
<path d="M266.979 162.144H269.852V154.44H266.979V162.144Z" fill="#B5C3C2"/>
<path d="M241.401 174.155H238.528V166.45H241.401V174.155Z" fill="#B5C3C2"/>
<path d="M244.218 174.155H247.092V166.449H244.218V174.155Z" fill="#B5C3C2"/>
<path d="M249.909 174.155H252.782V166.449H249.909V174.155Z" fill="#B5C3C2"/>
<path d="M258.471 174.155H255.598V166.45H258.471V174.155Z" fill="#B5C3C2"/>
<path d="M264.161 174.155H261.289V166.45H264.161V174.155Z" fill="#B5C3C2"/>
<path d="M269.852 174.155H266.979V166.45H269.852V174.155Z" fill="#B5C3C2"/>
<path d="M241.401 186.165H238.528V178.46H241.401V186.165Z" fill="#B5C3C2"/>
<path d="M247.091 186.165H244.218V178.46H247.091V186.165Z" fill="#B5C3C2"/>
<path d="M252.782 186.165H249.909V178.46H252.782V186.165Z" fill="#B5C3C2"/>
<path d="M258.471 186.165H255.598V178.46H258.471V186.165Z" fill="#B5C3C2"/>
<path d="M261.289 186.165H264.161V178.46H261.289V186.165Z" fill="#B5C3C2"/>
<path d="M269.852 186.165H266.979V178.46H269.852V186.165Z" fill="#B5C3C2"/>
<path d="M241.401 198.175H238.528V190.47H241.401V198.175Z" fill="#B5C3C2"/>
<path d="M244.218 198.175H247.092V190.47H244.218V198.175Z" fill="#B5C3C2"/>
<path d="M252.782 198.175H249.909V190.47H252.782V198.175Z" fill="#B5C3C2"/>
<path d="M258.471 198.175H255.598V190.47H258.471V198.175Z" fill="#B5C3C2"/>
<path d="M264.161 198.175H261.289V190.47H264.161V198.175Z" fill="#B5C3C2"/>
<path d="M269.852 198.175H266.979V190.47H269.852V198.175Z" fill="#B5C3C2"/>
<path d="M241.401 210.186H238.528V202.48H241.401V210.186Z" fill="#B5C3C2"/>
<path d="M247.091 210.186H244.218V202.48H247.091V210.186Z" fill="#B5C3C2"/>
<path d="M252.782 210.186H249.909V202.48H252.782V210.186Z" fill="#B5C3C2"/>
<path d="M255.598 210.186H258.471V202.48H255.598V210.186Z" fill="#B5C3C2"/>
<path d="M264.161 210.186H261.289V202.48H264.161V210.186Z" fill="#B5C3C2"/>
<path d="M266.979 210.186H269.852V202.48H266.979V210.186Z" fill="#B5C3C2"/>
<path d="M238.528 222.195H241.401V214.49H238.528V222.195Z" fill="#B5C3C2"/>
<path d="M247.091 222.195H244.218V214.49H247.091V222.195Z" fill="#B5C3C2"/>
<path d="M249.909 222.195H252.782V214.49H249.909V222.195Z" fill="#B5C3C2"/>
<path d="M258.471 222.195H255.598V214.49H258.471V222.195Z" fill="#B5C3C2"/>
<path d="M264.161 222.195H261.289V214.49H264.161V222.195Z" fill="#B5C3C2"/>
<path d="M269.852 222.195H266.979V214.49H269.852V222.195Z" fill="#B5C3C2"/>
<path d="M124.851 218.364H185.926V94.1183H124.851V218.364Z" fill="#B5C3C2"/>
<path d="M187.662 95.4941H123.116V91.9822H187.662V95.4941Z" fill="#B5C3C2"/>
<path d="M126.904 104.178H183.873V87.487H126.904V104.178Z" fill="#B5C3C2"/>
<path d="M153.824 98.895H131.265V80.6567H153.824V98.895Z" fill="#B5C3C2"/>
<path d="M144.32 85.7966H131.265V76.1964H140.628L144.32 85.7966Z" fill="#B5C3C2"/>
<path d="M136.527 89.6121H137.793V68.2279H136.527V89.6121Z" fill="#B5C3C2"/>
<path d="M138.296 67.1199C138.296 67.7317 137.787 68.2279 137.16 68.2279C136.532 68.2279 136.023 67.7317 136.023 67.1199C136.023 66.5072 136.532 66.011 137.16 66.011C137.787 66.011 138.296 66.5072 138.296 67.1199Z" fill="#B5C3C2"/>
<path d="M691.688 227.822H624.833L616.49 45.1477L691.688 60.3703V227.822Z" fill="#B5C3C2"/>
<path d="M400.012 123.499V62.4248H389.527V46.0658H385.781V22.0731H365.144V4.44013H363.307V22.0731H359.264V0H357.428V22.0731H344.382V62.4248H337.642V123.499H331.865V234.738H404.074V123.499H400.012Z" fill="#B5C3C2"/>
<path d="M39.4941 244.086H838.284V225.558H39.4941V244.086Z" fill="#B5C3C2"/>
<path d="M509.686 239.547H474.314L488.097 170.468H509.686V239.547Z" fill="#95A9A7"/>
<path d="M10.8346 271.452H849.528V242.236H10.8346V271.452Z" fill="#95A9A7"/>
<path d="M480.699 111.717V81.1061H469.342V69.4532H463.266V59.6641H461.134V42.8823H460.583V59.6641H458.45V69.4532H452.374V81.1061H441.103V111.717H438.76V167.292H421.286V230.644H482.955V111.717H480.699Z" fill="#95A9A7"/>
<path d="M545.972 146.881H490.999V147.855H493.485V238.51H543.483V147.855H545.972V146.881Z" fill="#95A9A7"/>
<path d="M295.295 244.978H246.555V169.461H295.295V244.978Z" fill="#95A9A7"/>
<path d="M239.213 244.978H155.389V208.151H239.213V244.978Z" fill="#95A9A7"/>
<path d="M218.72 125.875H200.319V216.31H218.72V125.875Z" fill="#95A9A7"/>
<path d="M205.338 150.931H204.381V101.751H205.338V150.931Z" fill="#95A9A7"/>
<path d="M208.444 154.66H207.489V105.48H208.444V154.66Z" fill="#95A9A7"/>
<path d="M212.985 132.401H201.738V120.281H212.985V132.401Z" fill="#95A9A7"/>
<path d="M267.953 244.978H235.928V182.979H267.953V244.978Z" fill="#95A9A7"/>
<path d="M303.195 244.978H363.31V117.369H303.195V244.978Z" fill="#95A9A7"/>
<path d="M309.101 134.237H357.404V112.983H309.101V134.237Z" fill="#95A9A7"/>
<path d="M367.97 121.531H298.536V120.039H367.97V121.531Z" fill="#95A9A7"/>
<path d="M320.629 244.978H292.303V180.532H320.629V244.978Z" fill="#95A9A7"/>
<path d="M121.93 244.978H89.4273V178.084H121.93V244.978Z" fill="#95A9A7"/>
<path d="M99.9435 244.978H164.71V159.904H99.9435V244.978Z" fill="#95A9A7"/>
<path d="M166.382 159.905H96.1647V156.641H166.382V159.905Z" fill="#95A9A7"/>
<path d="M131.274 165.033H102.811V147.784H131.274V165.033Z" fill="#95A9A7"/>
<path d="M145.351 158.273H140.571V147.784H145.351V158.273Z" fill="#95A9A7"/>
<path d="M155.389 158.273H150.131V147.784H155.389V158.273Z" fill="#95A9A7"/>
<path d="M105.679 244.978H71.7422V219.106H105.679V244.978Z" fill="#95A9A7"/>
<path d="M74.9933 244.978H58.9238V208.151H74.9933V244.978Z" fill="#95A9A7"/>
<path d="M66.959 244.978H39.4937V232.042H66.959V244.978Z" fill="#95A9A7"/>
<path d="M357.404 244.978H695.823V216.31H357.404V244.978Z" fill="#95A9A7"/>
<path d="M654.28 158.805L641.508 153.055C643.324 149.167 644.406 144.887 644.584 140.385L658.618 140.83C658.384 147.127 656.899 153.21 654.28 158.805ZM644.37 172.688C644.049 173.001 643.724 173.308 643.396 173.612L633.786 163.609C636.899 160.725 639.466 157.285 641.317 153.454L654.09 159.205C651.715 164.152 648.448 168.71 644.37 172.688ZM634.19 180.314L627.479 168.249C629.63 167.012 631.634 165.554 633.455 163.91L643.068 173.914C640.333 176.393 637.356 178.534 634.19 180.314ZM658.331 225.558H561.457L585.739 181.911C587.329 182.766 588.964 183.534 590.638 184.214L588.927 188.281C588.537 188.16 588.124 188.095 587.695 188.095C585.448 188.095 583.628 189.872 583.628 192.061C583.628 194.252 585.448 196.028 587.695 196.028C589.941 196.028 591.761 194.252 591.761 192.061C591.761 190.445 590.769 189.056 589.348 188.438L591.057 184.381C596.404 186.494 602.132 187.696 608.041 187.904L607.901 192.064C605.699 192.113 603.929 193.868 603.929 196.028C603.929 198.218 605.75 199.995 607.995 199.995C610.242 199.995 612.063 198.218 612.063 196.028C612.063 193.955 610.432 192.255 608.354 192.078L608.492 187.918C608.958 187.93 609.426 187.938 609.894 187.938C615.583 187.938 621.126 187.019 626.347 185.254L627.809 189.298C626.424 189.931 625.466 191.301 625.466 192.891C625.466 195.081 627.287 196.857 629.533 196.857C631.779 196.857 633.599 195.081 633.599 192.891C633.599 190.7 631.779 188.924 629.533 188.924C629.077 188.924 628.638 188.998 628.228 189.134L626.774 185.109C629.282 184.236 631.714 183.167 634.051 181.911L658.331 225.558ZM575.418 172.688C575.097 172.376 574.782 172.058 574.471 171.738L584.727 162.366C586.955 164.654 589.507 166.637 592.31 168.249L585.598 180.314C581.921 178.247 578.499 175.694 575.418 172.688ZM564.195 155.709L577.393 150.97C578.991 155.105 581.396 158.857 584.42 162.043L574.162 171.418C569.76 166.802 566.398 161.475 564.195 155.709ZM561.137 139.065C561.137 138.623 561.144 138.181 561.156 137.741L575.187 138.185C575.179 138.477 575.176 138.771 575.176 139.065C575.176 143.097 575.903 146.968 577.236 150.557L564.04 155.296C562.133 150.161 561.137 144.687 561.137 139.065ZM565.51 119.325L578.28 125.074C576.465 128.962 575.382 133.243 575.205 137.744L561.17 137.3C561.405 131.003 562.89 124.92 565.51 119.325ZM575.418 105.442C575.739 105.129 576.064 104.822 576.392 104.518L586.002 114.52C582.889 117.404 580.324 120.844 578.471 124.675L565.699 118.925C568.073 113.977 571.339 109.419 575.418 105.442ZM593.466 94.2687L598.139 107.204C593.72 108.759 589.716 111.166 586.333 114.22L576.721 104.217C581.623 99.7691 587.309 96.4121 593.466 94.2687ZM609.894 91.5144C610.348 91.5144 610.801 91.5208 611.252 91.5327L610.796 105.216C610.497 105.209 610.196 105.205 609.894 105.205C605.93 105.205 602.119 105.858 598.566 107.058L593.892 94.1228C598.97 92.4077 604.362 91.5144 609.894 91.5144ZM628.217 94.9722L622.873 107.661C619.257 106.236 615.342 105.387 611.248 105.233L611.704 91.5465C617.449 91.7492 623.017 92.9186 628.217 94.9722ZM644.37 105.442C644.691 105.755 645.006 106.071 645.317 106.391L635.061 115.764C631.767 112.381 627.766 109.661 623.291 107.828L628.635 95.1391C634.447 97.4981 639.785 100.97 644.37 105.442ZM655.594 122.421L642.395 127.16C640.797 123.024 638.393 119.272 635.369 116.086L645.628 106.712C650.028 111.328 653.389 116.655 655.594 122.421ZM621.648 170.926C623.4 170.309 625.086 169.559 626.694 168.688L633.403 180.748C631.13 181.971 628.763 183.011 626.323 183.862L621.648 170.926ZM608.991 172.913C609.292 172.92 609.592 172.925 609.894 172.925C613.859 172.925 617.67 172.272 621.222 171.072L625.897 184.007C620.818 185.723 615.427 186.616 609.894 186.616C609.441 186.616 608.988 186.609 608.536 186.597L608.991 172.913ZM596.916 170.468C600.53 171.894 604.445 172.742 608.541 172.897L608.084 186.583C602.341 186.38 596.77 185.211 591.572 183.157L596.916 170.468ZM596.497 170.301L591.154 182.99C589.525 182.329 587.934 181.581 586.385 180.748L593.094 168.688C594.193 169.283 595.328 169.823 596.497 170.301ZM612.464 139.98C612.536 139.786 612.586 139.582 612.61 139.371L643.906 140.364C643.732 144.775 642.672 148.968 640.892 152.778L612.464 139.98ZM612.674 141.636L612.112 140.624C612.169 140.545 612.224 140.464 612.273 140.379L640.701 153.178C638.886 156.931 636.374 160.302 633.324 163.128L612.674 141.636ZM613.525 143.167L632.993 163.427C631.211 165.034 629.255 166.458 627.156 167.668L613.525 143.167ZM611.013 141.497C611.163 141.432 611.305 141.354 611.439 141.265L626.372 168.107C624.794 168.961 623.14 169.697 621.422 170.303L611.013 141.497ZM609.894 172.264C609.6 172.264 609.306 172.26 609.014 172.253L610.031 141.728C610.222 141.719 610.408 141.69 610.587 141.645L620.996 170.449C617.516 171.624 613.78 172.264 609.894 172.264ZM609.068 141.608C609.232 141.658 609.403 141.694 609.579 141.714L608.562 172.236C604.551 172.085 600.715 171.254 597.173 169.857L609.068 141.608ZM608.349 141.265C608.445 141.329 608.546 141.387 608.65 141.439L596.755 169.69C595.609 169.22 594.495 168.69 593.417 168.107L608.349 141.265ZM606.808 142.187L592.633 167.668C589.895 166.09 587.4 164.15 585.221 161.914L606.808 142.187ZM607.415 140.19C607.489 140.344 607.576 140.489 607.678 140.624L607.491 140.959L584.914 161.592C581.951 158.469 579.596 154.793 578.03 150.742L607.415 140.19ZM607.325 138.151C607.252 138.343 607.204 138.547 607.179 138.758L575.882 137.766C576.057 133.355 577.117 129.161 578.895 125.351L607.325 138.151ZM607.866 137.277C607.731 137.421 607.614 137.58 607.515 137.751L579.087 124.952C580.901 121.199 583.415 117.828 586.465 115.003L607.866 137.277ZM608.775 136.632C608.567 136.724 608.372 136.839 608.197 136.976L586.796 114.702C590.111 111.71 594.035 109.353 598.366 107.827L608.775 136.632ZM609.757 136.402C609.566 136.412 609.381 136.439 609.201 136.485L598.792 107.681C602.274 106.507 606.008 105.867 609.894 105.867C610.189 105.867 610.481 105.87 610.774 105.877L609.757 136.402ZM610.72 136.523C610.555 136.471 610.385 136.436 610.208 136.416L611.226 105.894C615.238 106.045 619.074 106.876 622.616 108.273L610.72 136.523ZM611.728 137.088C611.551 136.931 611.353 136.798 611.138 136.691L623.034 108.44C627.419 110.236 631.338 112.902 634.567 116.215L611.728 137.088ZM612.036 137.409L634.875 116.538C637.837 119.66 640.193 123.336 641.759 127.388L612.373 137.941C612.282 137.75 612.168 137.571 612.036 137.409ZM575.865 138.207L607.163 139.199C607.173 139.398 607.206 139.591 607.258 139.776L577.872 150.328C576.567 146.81 575.854 143.017 575.854 139.065C575.854 138.778 575.857 138.492 575.865 138.207ZM643.923 139.923L612.625 138.931C612.615 138.732 612.582 138.539 612.529 138.353L641.917 127.801C643.222 131.32 643.936 135.112 643.936 139.065C643.936 139.351 643.932 139.638 643.923 139.923ZM658.651 139.065C658.651 139.507 658.643 139.948 658.632 140.39L644.602 139.945C644.608 139.652 644.613 139.359 644.613 139.065C644.613 135.032 643.885 131.163 642.552 127.573L655.749 122.835C657.655 127.968 658.651 133.442 658.651 139.065ZM668.801 136.95C666.669 136.95 664.923 138.549 664.749 140.583L659.986 140.433C660 139.978 660.007 139.522 660.007 139.065C660.007 133.283 658.984 127.656 657.022 122.378L661.001 120.949C661.625 122.355 663.062 123.339 664.734 123.339C666.98 123.339 668.801 121.563 668.801 119.373C668.801 117.183 666.98 115.406 664.734 115.406C662.488 115.406 660.667 117.183 660.667 119.373C660.667 119.778 660.729 120.167 660.845 120.535L656.867 121.963C654.599 116.034 651.144 110.555 646.616 105.809L649.73 102.963C650.46 103.643 651.448 104.061 652.537 104.061C654.784 104.061 656.604 102.286 656.604 100.096C656.604 97.9053 654.784 96.1287 652.537 96.1287C650.291 96.1287 648.471 97.9053 648.471 100.096C648.471 101.065 648.828 101.953 649.419 102.642L646.307 105.488C645.985 105.157 645.66 104.83 645.328 104.506C640.614 99.9094 635.126 96.3406 629.15 93.9156L630.862 89.8487C631.251 89.9689 631.665 90.034 632.094 90.034C634.34 90.034 636.161 88.2583 636.161 86.0681C636.161 83.8778 634.34 82.1012 632.094 82.1012C629.848 82.1012 628.027 83.8778 628.027 86.0681C628.027 87.6842 629.018 89.0737 630.44 89.691L628.732 93.7486C623.385 91.6354 617.656 90.433 611.748 90.2248L611.933 84.6666L612.063 84.6694C614.309 84.6694 616.129 82.8937 616.129 80.7034C616.129 78.5123 614.309 76.7366 612.063 76.7366C609.816 76.7366 607.995 78.5123 607.995 80.7034C607.995 82.7011 609.511 84.3539 611.483 84.6281L611.296 90.2119C610.83 90.1991 610.363 90.1918 609.894 90.1918C604.206 90.1918 598.662 91.1108 593.441 92.8755L591.802 88.3381C593.28 87.7447 594.322 86.3258 594.322 84.6694C594.322 82.4791 592.501 80.7034 590.255 80.7034C588.009 80.7034 586.188 82.4791 586.188 84.6694C586.188 86.8605 588.009 88.6362 590.255 88.6362C590.644 88.6362 591.018 88.5821 591.375 88.4821L593.014 93.0213C586.683 95.2244 580.835 98.6776 575.794 103.252L572.822 100.159C573.487 99.4526 573.894 98.5107 573.894 97.477C573.894 95.2859 572.073 93.5102 569.826 93.5102C567.58 93.5102 565.76 95.2859 565.76 97.477C565.76 99.6673 567.58 101.443 569.826 101.443C570.849 101.443 571.783 101.074 572.499 100.466L575.465 103.553C575.127 103.866 574.791 104.183 574.46 104.506C570.266 108.596 566.908 113.284 564.469 118.371L560.691 116.671C560.828 116.273 560.903 115.848 560.903 115.406C560.903 113.216 559.083 111.44 556.836 111.44C554.59 111.44 552.769 113.216 552.769 115.406C552.769 117.597 554.59 119.373 556.836 119.373C558.469 119.373 559.876 118.434 560.523 117.08L564.278 118.77C561.582 124.524 560.055 130.78 559.815 137.257L554.968 137.103C554.907 134.963 553.112 133.247 550.904 133.247C548.658 133.247 546.837 135.023 546.837 137.213C546.837 139.404 548.658 141.18 550.904 141.18C553.036 141.18 554.784 139.58 554.955 137.544L559.802 137.698C559.789 138.152 559.782 138.608 559.782 139.065C559.782 144.846 560.805 150.474 562.766 155.752L558.787 157.181C558.162 155.774 556.727 154.79 555.055 154.79C552.808 154.79 550.988 156.566 550.988 158.756C550.988 160.947 552.808 162.723 555.055 162.723C557.3 162.723 559.121 160.947 559.121 158.756C559.121 158.353 559.059 157.962 558.944 157.595L562.922 156.166C565.188 162.096 568.645 167.575 573.173 172.321L570.059 175.167C569.33 174.487 568.34 174.068 567.251 174.068C565.006 174.068 563.184 175.844 563.184 178.035C563.184 180.225 565.006 182.001 567.251 182.001C569.497 182.001 571.318 180.225 571.318 178.035C571.318 177.065 570.961 176.177 570.368 175.488L573.483 172.642C573.802 172.973 574.128 173.3 574.46 173.623C577.635 176.719 581.162 179.349 584.952 181.477L560.429 225.558H556.028V226.818H553.872V229.32H665.916V226.818H663.76V225.558H659.359L634.838 181.477C638.104 179.642 641.175 177.436 643.994 174.879L647.968 179.014C647.114 179.742 646.575 180.809 646.575 182.001C646.575 184.192 648.396 185.967 650.642 185.967C652.888 185.967 654.709 184.192 654.709 182.001C654.709 179.81 652.888 178.035 650.642 178.035C649.781 178.035 648.983 178.296 648.326 178.742L644.323 174.576C644.662 174.263 644.997 173.946 645.328 173.623C649.522 169.533 652.879 164.846 655.321 159.76L659.746 161.752C659.666 162.063 659.622 162.387 659.622 162.723C659.622 164.913 661.444 166.689 663.69 166.689C665.936 166.689 667.756 164.913 667.756 162.723C667.756 160.532 665.936 158.756 663.69 158.756C661.947 158.756 660.461 159.826 659.883 161.327L655.511 159.359C658.205 153.605 659.732 147.349 659.972 140.873L664.737 141.024C664.795 143.165 666.592 144.883 668.801 144.883C671.047 144.883 672.868 143.107 672.868 140.916C672.868 138.726 671.047 136.95 668.801 136.95Z" fill="#95A9A7"/>
<path d="M678.617 244.978H730.875V170.303H678.617V244.978Z" fill="#95A9A7"/>
<path d="M775.487 244.557H723.228V199.336H775.487V244.557Z" fill="#95A9A7"/>
<path d="M520.565 230.644H549.881V192.695H520.565V230.644Z" fill="#95A9A7"/>
<path d="M704.746 244.978H741.709V99.2858H704.746V244.978Z" fill="#95A9A7"/>
<path d="M802.572 244.978H753.818V159.905H790.782L802.572 244.978Z" fill="#95A9A7"/>
<path d="M823.922 244.978H781.223V225.558H823.922V244.978Z" fill="#95A9A7"/>
<path d="M733.425 108.44H732.15V68.8488H733.425V108.44Z" fill="#95A9A7"/>
<path d="M737.727 116.936H736.453V77.3447H737.727V116.936Z" fill="#95A9A7"/>
<path d="M729.521 122.402H728.247V82.8103H729.521V122.402Z" fill="#95A9A7"/>
<path d="M773.176 166.43H755.731V153.028H773.176V166.43Z" fill="#95A9A7"/>
<path d="M771.264 155.784H757.643V148.251H771.264V155.784Z" fill="#95A9A7"/>
<path d="M783.453 162.366H780.108V156.954H783.453V162.366Z" fill="#95A9A7"/>
<path d="M789.417 162.366H784.637V152.017H789.417V162.366Z" fill="#95A9A7"/>
<path d="M520.417 271.452H564.731V132.15H520.417V271.452Z" fill="#658280"/>
<path d="M568.04 134.387H517.107V132.976H568.04V134.387Z" fill="#658280"/>
<path d="M566.664 153.95H518.484V152.543H566.664V153.95Z" fill="#658280"/>
<path d="M566.664 172.9H518.484V171.493H566.664V172.9Z" fill="#658280"/>
<path d="M566.664 191.85H518.484V190.443H566.664V191.85Z" fill="#658280"/>
<path d="M566.664 210.8H518.484V209.393H566.664V210.8Z" fill="#658280"/>
<path d="M566.664 229.75H518.484V228.343H566.664V229.75Z" fill="#658280"/>
<path d="M566.664 248.7H518.484V247.293H566.664V248.7Z" fill="#658280"/>
<path d="M569.725 132.976H515.422V129.127H569.725V132.976Z" fill="#658280"/>
<path d="M529.009 150.092H524.405V138.963H529.009V150.092ZM524.405 138.963V148.251H526.708V138.963H524.405Z" fill="black"/>
<path d="M524.405 150.092H529.009V138.963H524.405V150.092Z" fill="#658280"/>
<path d="M534.704 150.092H539.308V138.963H534.704V150.092Z" fill="#658280"/>
<path d="M545.002 150.092H549.606V138.963H545.002V150.092Z" fill="#658280"/>
<path d="M555.302 150.092H559.905V138.963H555.302V150.092Z" fill="#658280"/>
<path d="M524.405 168.286H529.009V157.157H524.405V168.286Z" fill="#658280"/>
<path d="M539.309 168.286H534.704V157.158H539.309V168.286ZM535.855 158.078V167.366H538.157V158.078H535.855Z" fill="#658280"/>
<path d="M545.002 168.286H549.606V157.157H545.002V168.286Z" fill="#658280"/>
<path d="M555.302 168.286H559.905V157.157H555.302V168.286Z" fill="#658280"/>
<path d="M524.405 187.236H529.009V176.107H524.405V187.236Z" fill="#658280"/>
<path d="M534.704 187.236H539.308V176.107H534.704V187.236Z" fill="#658280"/>
<path d="M545.002 187.236H549.606V176.107H545.002V187.236Z" fill="#658280"/>
<path d="M559.906 187.236H555.302V176.108H559.906V177.669H558.754V186.956H559.906V187.236Z" fill="#658280"/>
<path d="M524.405 206.186H529.009V195.057H524.405V206.186Z" fill="#658280"/>
<path d="M539.309 206.186H538.157V197.259H535.855V206.186H534.704V195.058H539.309V206.186Z" fill="#658280"/>
<path d="M547.305 206.186H545.002V195.058H549.607V197.259H547.305V206.186Z" fill="#658280"/>
<path d="M555.302 206.186H559.905V195.057H555.302V206.186Z" fill="#658280"/>
<path d="M529.009 225.136H524.405V214.008H529.009V225.136ZM524.405 215.055V224.342H526.708V215.055H524.405Z" fill="#658280"/>
<path d="M534.704 225.136H539.308V214.008H534.704V225.136Z" fill="#658280"/>
<path d="M545.002 225.136H549.606V214.008H545.002V225.136Z" fill="#658280"/>
<path d="M555.302 225.136H559.905V214.008H555.302V225.136Z" fill="#658280"/>
<path d="M524.405 244.086H529.009V232.958H524.405V244.086Z" fill="#658280"/>
<path d="M534.704 244.086H539.308V232.958H534.704V244.086Z" fill="#658280"/>
<path d="M547.305 244.086H545.002V232.958H549.607V234.902H547.305V244.086Z" fill="#658280"/>
<path d="M559.906 244.086H555.302V232.958H559.906V244.086Z" fill="#658280"/>
<path d="M529.01 263.036H524.405V251.908H529.01V263.036Z" fill="#658280"/>
<path d="M534.704 263.036H539.308V251.908H534.704V263.036Z" fill="#658280"/>
<path d="M549.607 263.036H545.002V251.908H549.607V263.036Z" fill="#658280"/>
<path d="M555.302 263.036H559.905V251.908H555.302V263.036Z" fill="#658280"/>
<path d="M538.285 131.052H523.214V123.817H538.285V131.052Z" fill="#658280"/>
<path d="M539.309 124.847H522.191V123.61H539.309V124.847Z" fill="#658280"/>
<path d="M456.905 271.452H397.875V139.096L456.905 125.015V271.452Z" fill="#658280"/>
<path d="M400.468 271.452H395.282V136.767H400.468V271.452Z" fill="#658280"/>
<path d="M415.226 271.452H410.039V132.971H415.226V271.452Z" fill="#658280"/>
<path d="M429.983 271.452H424.797V129.03H429.983V271.452Z" fill="#658280"/>
<path d="M444.74 271.452H439.553V125.817H444.74V271.452Z" fill="#658280"/>
<path d="M459.497 271.452H454.311V122.402H459.497V271.452Z" fill="#658280"/>
<path d="M408.696 158.298H401.811V148.069H403.533V153.852H406.975V148.069H408.696V158.298Z" fill="#658280"/>
<path d="M423.453 158.298H416.569V148.069H418.29V153.852H421.732V148.069H423.453V158.298Z" fill="#658280"/>
<path d="M431.326 158.298H438.211V148.069H431.326V158.298Z" fill="#658280"/>
<path d="M452.968 158.298H446.084V148.069H447.805V153.852H451.247V148.069H452.968V158.298Z" fill="#658280"/>
<path d="M401.811 176.109H408.696V165.88H401.811V176.109Z" fill="#658280"/>
<path d="M416.569 176.109H423.453V165.88H416.569V176.109Z" fill="#658280"/>
<path d="M438.211 176.109H431.326V165.88H433.047V170.137H436.489V165.88H438.211V176.109Z" fill="#658280"/>
<path d="M452.968 176.109H446.084V165.88H447.805V170.137H451.247V165.88H452.968V176.109Z" fill="#658280"/>
<path d="M408.696 193.919H401.811V183.691H403.533V186.422H406.975V183.691H408.696V193.919Z" fill="#658280"/>
<path d="M423.453 193.919H416.569V183.691H418.29V186.422H421.732V183.691H423.453V193.919Z" fill="#658280"/>
<path d="M438.211 193.919H431.326V183.691H433.047V186.422H436.489V183.691H438.211V193.919Z" fill="#658280"/>
<path d="M446.084 193.919H452.968V183.691H446.084V193.919Z" fill="#658280"/>
<path d="M408.696 211.73H406.975V209.547H403.533V211.73H401.811V201.501H403.533V202.708H406.975V201.501H408.696V211.73Z" fill="#658280"/>
<path d="M416.569 211.73H423.453V201.501H416.569V211.73Z" fill="#658280"/>
<path d="M438.211 211.73H436.489V209.547H433.047V211.73H431.326V201.501H433.047V202.708H436.489V201.501H438.211V211.73Z" fill="#658280"/>
<path d="M452.968 211.73H451.247V209.547H447.805V211.73H446.084V201.501H447.805V202.708H451.247V201.501H452.968V211.73Z" fill="#658280"/>
<path d="M408.696 229.539H406.975V225.832H403.533V229.539H401.811V219.312H408.696V229.539Z" fill="#658280"/>
<path d="M423.453 229.539H421.732V225.832H418.29V229.539H416.569V219.312H423.453V229.539Z" fill="#658280"/>
<path d="M431.326 229.539H438.211V219.312H431.326V229.539Z" fill="#658280"/>
<path d="M452.968 229.539H451.247V225.832H447.805V229.539H446.084V219.312H452.968V229.539Z" fill="#658280"/>
<path d="M408.696 247.35H401.812V237.123H408.696V247.35Z" fill="#658280"/>
<path d="M423.453 247.35H416.569V237.123H423.453V247.35Z" fill="#658280"/>
<path d="M431.326 247.351H438.211V237.123H431.326V247.351Z" fill="#658280"/>
<path d="M446.084 247.351H452.968V237.123H446.084V247.351Z" fill="#658280"/>
<path d="M401.811 265.161H408.696V254.933H401.811V265.161Z" fill="#658280"/>
<path d="M423.453 265.161H416.569V254.933H423.453V265.161Z" fill="#658280"/>
<path d="M431.326 265.161H438.211V254.933H431.326V265.161Z" fill="#658280"/>
<path d="M452.968 265.161H446.084V254.933H452.968V265.161Z" fill="#658280"/>
<path d="M229.486 145.437V146.811H228.083V150.727H252.782V271.452H212.25V146.811H210.779V145.437H229.486Z" fill="#658280"/>
<path d="M333.252 271.452H298.536V200.273H333.252V271.452Z" fill="#658280"/>
<path d="M147.219 271.452H175.44V183.956H147.219V271.452Z" fill="#658280"/>
<path d="M200.604 271.452H169.85V202.187H200.604V271.452Z" fill="#658280"/>
<path d="M157.372 190.916H169.85V180.445H157.372V190.916Z" fill="#658280"/>
<path d="M204.743 203.607H171.96V201.046H204.743V203.607Z" fill="#658280"/>
<path d="M231.781 271.452H197.301V231.896H231.781V271.452Z" fill="#658280"/>
<path d="M113.91 271.452H85.863V199.721H113.91V271.452Z" fill="#658280"/>
<path d="M98.4218 271.452H61.5242V235.467H98.4218V271.452Z" fill="#658280"/>
<path d="M43.9745 271.452H20.8952V229.585H43.9745V271.452Z" fill="#658280"/>
<path d="M94.0431 271.452H39.4937V258.338H94.0431V271.452Z" fill="#658280"/>
<path d="M27.9578 271.452H0V254.1H27.9578V271.452Z" fill="#658280"/>
<path d="M157.372 271.452H113.91V244.978H157.372V271.452Z" fill="#658280"/>
<path d="M309.101 271.452H241.401V260.047H309.101V271.452Z" fill="#658280"/>
<path d="M429.131 271.452H361.432V260.047H429.131V271.452Z" fill="#658280"/>
<path d="M306.465 226.565H280.733L269.852 265.75H306.465V226.565Z" fill="#658280"/>
<path d="M319.075 213.019H318.358V169.55H319.075V213.019Z" fill="#658280"/>
<path d="M322.899 209.909H321.943V184.26H322.899V209.909Z" fill="#658280"/>
<path d="M329.839 201.501H316.821V188.804H329.839V201.501Z" fill="#658280"/>
<path d="M331.865 188.956H314.623V187.818H331.865V188.956Z" fill="#658280"/>
<path d="M369.004 271.452H326.938V234.739H369.004V271.452Z" fill="#658280"/>
<path d="M387.985 194.323H360.96V265.161H387.985V194.323Z" fill="#658280"/>
<path d="M509.686 271.452H466.508V207.641H509.686V271.452Z" fill="#658280"/>
<path d="M502.198 271.452H452.968V247.939H502.198V271.452Z" fill="#658280"/>
<path d="M507.296 271.452H539.309L539.308 263.036H507.296V271.452Z" fill="#658280"/>
<path d="M608.65 247.939H556.602V271.452H608.65V247.939Z" fill="#658280"/>
<path d="M577.339 271.452H642.105V186.378H577.339V271.452Z" fill="#658280"/>
<path d="M575.666 186.378H645.883V183.115H575.666V186.378Z" fill="#658280"/>
<path d="M610.774 191.506H639.237V174.259H610.774V191.506Z" fill="#658280"/>
<path d="M596.697 184.748H601.476V174.259H596.697V184.748Z" fill="#658280"/>
<path d="M586.658 184.748H591.917V174.259H586.658V184.748Z" fill="#658280"/>
<path d="M686.628 271.452H737.894V147.206H686.628V271.452Z" fill="#658280"/>
<path d="M685.171 148.582H739.351V145.069H685.171V148.582Z" fill="#658280"/>
<path d="M688.35 157.267H736.17V140.574H688.35V157.267Z" fill="#658280"/>
<path d="M713.574 151.982H732.51V133.745H713.574V151.982Z" fill="#658280"/>
<path d="M721.552 138.885H732.51V129.284H724.651L721.552 138.885Z" fill="#658280"/>
<path d="M728.093 142.7H727.031V121.316H728.093V142.7Z" fill="#658280"/>
<path d="M726.608 120.207C726.608 120.819 727.035 121.316 727.562 121.316C728.089 121.316 728.516 120.819 728.516 120.207C728.516 119.595 728.089 119.099 727.562 119.099C727.035 119.099 726.608 119.595 726.608 120.207Z" fill="#658280"/>
<path d="M753.818 271.452H730.876V220.16H753.818V271.452Z" fill="#658280"/>
<path d="M665.523 195.153H691.688V271.452H665.523V195.153Z" fill="#658280"/>
<path d="M678.617 271.452H641.759V230.644L672.868 244.086L678.617 271.452Z" fill="#658280"/>
<path d="M802.572 271.452H746.285V249.289H802.572V271.452Z" fill="#658280"/>
<path d="M781.78 271.452H814.477V182.979H781.78V271.452Z" fill="#658280"/>
<path d="M861 271.452H806.829V254.933H861V271.452Z" fill="#658280"/>
<path d="M815.973 184.26H780.108V181.359H815.973V184.26Z" fill="#658280"/>
<path d="M809.379 168.876H810.095V186.705H809.379V168.876Z" fill="#658280"/>
<path d="M805.315 185.435H804.599V171.133H805.315V185.435Z" fill="#658280"/>
<path d="M826.585 216.31H812.007V256.844H832.8L826.585 216.31Z" fill="#658280"/>
<path d="M150.131 190.47H152.267V188.387H150.131V190.47Z" fill="#B5C3C2"/>
<path d="M154.423 190.47H156.559V188.387H154.423V190.47Z" fill="#B5C3C2"/>
<path d="M150.131 195.364H152.267V193.281H150.131V195.364Z" fill="#B5C3C2"/>
<path d="M154.423 195.364H156.559V193.281H154.423V195.364Z" fill="#B5C3C2"/>
<path d="M150.131 200.096H152.267V198.013H150.131V200.096Z" fill="#B5C3C2"/>
<path d="M159.194 190.47H161.33V188.387H159.194V190.47Z" fill="#B5C3C2"/>
<path d="M306.465 133.682H307.923V125.817H306.465V133.682Z" fill="#CAD4D3"/>
<path d="M311.486 133.682H312.944V125.817H311.486V133.682Z" fill="#CAD4D3"/>
<path d="M316.508 133.682H317.964V125.817H316.508V133.682Z" fill="#CAD4D3"/>
<path d="M321.529 133.682H322.986V125.817H321.529V133.682Z" fill="#CAD4D3"/>
<path d="M326.55 133.682H328.006V125.817H326.55V133.682Z" fill="#CAD4D3"/>
<path d="M331.571 133.682H333.027V125.817H331.571V133.682Z" fill="#CAD4D3"/>
<path d="M336.591 133.682H338.048V125.817H336.591V133.682Z" fill="#CAD4D3"/>
<path d="M341.612 133.682H343.07V125.817H341.612V133.682Z" fill="#CAD4D3"/>
<path d="M346.633 133.682H348.09V125.817H346.633V133.682Z" fill="#CAD4D3"/>
<path d="M351.654 133.682H353.111V125.817H351.654V133.682Z" fill="#CAD4D3"/>
<path d="M357.404 133.682H358.132V125.817H357.404V133.682Z" fill="#CAD4D3"/>
<path d="M356.675 133.682H357.404V125.817H356.675V133.682Z" fill="#CAD4D3"/>
<path d="M306.465 144.632H307.923V136.767H306.465V144.632Z" fill="#CAD4D3"/>
<path d="M311.486 144.632H312.944V136.767H311.486V144.632Z" fill="#CAD4D3"/>
<path d="M316.508 144.632H317.964V136.767H316.508V144.632Z" fill="#CAD4D3"/>
<path d="M321.529 144.632H322.986V136.767H321.529V144.632Z" fill="#CAD4D3"/>
<path d="M326.55 144.632H328.006V136.767H326.55V144.632Z" fill="#CAD4D3"/>
<path d="M331.571 144.632H333.027V136.767H331.571V144.632Z" fill="#CAD4D3"/>
<path d="M336.591 144.632H338.048V136.767H336.591V144.632Z" fill="#CAD4D3"/>
<path d="M341.612 144.632H343.07V136.767H341.612V144.632Z" fill="#CAD4D3"/>
<path d="M346.633 144.632H348.09V136.767H346.633V144.632Z" fill="#CAD4D3"/>
<path d="M351.654 144.632H353.111V136.767H351.654V144.632Z" fill="#CAD4D3"/>
<path d="M356.675 144.632H358.132V136.767H356.675V144.632Z" fill="#CAD4D3"/>
<path d="M306.465 155.581H307.923V147.716H306.465V155.581Z" fill="#CAD4D3"/>
<path d="M311.486 155.581H312.944V147.716H311.486V155.581Z" fill="#CAD4D3"/>
<path d="M316.508 155.581H317.964V147.716H316.508V155.581Z" fill="#CAD4D3"/>
<path d="M321.529 155.581H322.986V147.716H321.529V155.581Z" fill="#CAD4D3"/>
<path d="M326.55 155.581H328.006V147.716H326.55V155.581Z" fill="#CAD4D3"/>
<path d="M331.571 155.581H333.027V147.716H331.571V155.581Z" fill="#CAD4D3"/>
<path d="M336.591 155.581H338.048V147.716H336.591V155.581Z" fill="#CAD4D3"/>
<path d="M341.612 155.581H343.07V147.716H341.612V155.581Z" fill="#CAD4D3"/>
<path d="M346.633 155.581H348.09V147.716H346.633V155.581Z" fill="#CAD4D3"/>
<path d="M351.654 155.581H353.111V147.716H351.654V155.581Z" fill="#CAD4D3"/>
<path d="M356.675 155.581H358.132V147.716H356.675V155.581Z" fill="#CAD4D3"/>
<path d="M321.529 166.53H322.986V158.665H321.529V166.53Z" fill="#CAD4D3"/>
<path d="M326.55 166.53H328.006V158.665H326.55V166.53Z" fill="#CAD4D3"/>
<path d="M331.571 166.53H333.027V158.665H331.571V166.53Z" fill="#CAD4D3"/>
<path d="M336.591 166.53H338.048V158.665H336.591V166.53Z" fill="#CAD4D3"/>
<path d="M341.612 166.53H343.07V158.665H341.612V166.53Z" fill="#CAD4D3"/>
<path d="M346.633 166.53H348.09V158.665H346.633V166.53Z" fill="#CAD4D3"/>
<path d="M351.654 166.53H353.111V158.665H351.654V166.53Z" fill="#CAD4D3"/>
<path d="M356.675 166.53H358.132V158.665H356.675V166.53Z" fill="#CAD4D3"/>
<path d="M326.55 178.087H328.006V170.222H326.55V178.087Z" fill="#CAD4D3"/>
<path d="M331.571 178.087H333.027V170.222H331.571V178.087Z" fill="#CAD4D3"/>
<path d="M336.591 178.087H338.048V170.222H336.591V178.087Z" fill="#CAD4D3"/>
<path d="M341.612 178.087H343.07V170.222H341.612V178.087Z" fill="#CAD4D3"/>
<path d="M346.633 178.087H348.09V170.222H346.633V178.087Z" fill="#CAD4D3"/>
<path d="M351.654 178.087H353.111V170.222H351.654V178.087Z" fill="#CAD4D3"/>
<path d="M356.675 178.087H358.132V170.222H356.675V178.087Z" fill="#CAD4D3"/>
<path d="M403.533 148.069H406.975L406.975 145.338H403.533L403.533 148.069Z" fill="#98ABAA"/>
<path d="M403.533 153.852H406.975V148.069H403.533V153.852Z" fill="#98ABAA"/>
<path d="M403.533 165.88H406.975V161.623H403.533V165.88Z" fill="#98ABAA"/>
<path d="M403.533 170.137H406.975V165.88H403.533V170.137Z" fill="#98ABAA"/>
<path d="M403.533 183.691H406.975L406.975 177.909H403.533L403.533 183.691Z" fill="#98ABAA"/>
<path d="M403.533 186.422H406.975V183.691H403.533V186.422Z" fill="#98ABAA"/>
<path d="M403.533 201.501H406.975L406.975 194.193H403.533L403.533 201.501Z" fill="#98ABAA"/>
<path d="M403.533 202.708H406.975V201.501H403.533V202.708Z" fill="#98ABAA"/>
<path d="M403.533 218.061H406.975L406.975 211.73H403.533L403.533 218.061Z" fill="#98ABAA"/>
<path d="M403.533 211.73H406.975V209.547H403.533V211.73Z" fill="#98ABAA"/>
<path d="M403.533 234.346H406.975L406.975 229.539H403.533L403.533 234.346Z" fill="#98ABAA"/>
<path d="M403.533 229.539H406.975V225.832H403.533V229.539Z" fill="#98ABAA"/>
<path d="M418.29 148.069H421.732L421.732 145.338H418.29L418.29 148.069Z" fill="#98ABAA"/>
<path d="M418.29 153.852H421.732V148.069H418.29V153.852Z" fill="#98ABAA"/>
<path d="M418.29 165.88H421.732V161.623H418.29V165.88Z" fill="#98ABAA"/>
<path d="M418.29 170.137H421.732V165.88H418.29V170.137Z" fill="#98ABAA"/>
<path d="M418.29 183.691H421.732L421.732 177.909H418.29L418.29 183.691Z" fill="#98ABAA"/>
<path d="M418.29 186.422H421.732V183.691H418.29V186.422Z" fill="#98ABAA"/>
<path d="M418.29 201.501H421.732V194.193H418.29V201.501Z" fill="#98ABAA"/>
<path d="M418.29 202.708H421.732V201.501H418.29V202.708Z" fill="#98ABAA"/>
<path d="M418.29 218.061H421.732V211.73H418.29V218.061Z" fill="#98ABAA"/>
<path d="M418.29 211.73H421.732V209.547H418.29V211.73Z" fill="#98ABAA"/>
<path d="M418.29 234.346H421.732L421.732 229.539H418.29L418.29 234.346Z" fill="#98ABAA"/>
<path d="M418.29 229.539H421.732V225.832H418.29V229.539Z" fill="#98ABAA"/>
<path d="M433.047 148.069H436.489V145.338H433.047V148.069Z" fill="#98ABAA"/>
<path d="M433.047 153.852H436.489V148.069H433.047V153.852Z" fill="#98ABAA"/>
<path d="M433.047 165.88H436.489L436.489 161.623H433.047L433.047 165.88Z" fill="#98ABAA"/>
<path d="M433.047 170.137H436.489V165.88H433.047V170.137Z" fill="#98ABAA"/>
<path d="M433.047 183.691H436.489L436.489 177.909H433.047L433.047 183.691Z" fill="#98ABAA"/>
<path d="M433.047 186.422H436.489V183.691H433.047V186.422Z" fill="#98ABAA"/>
<path d="M433.047 201.501H436.489L436.489 194.193H433.047L433.047 201.501Z" fill="#98ABAA"/>
<path d="M433.047 202.708H436.489V201.501H433.047V202.708Z" fill="#98ABAA"/>
<path d="M433.047 218.061H436.489L436.489 211.73H433.047L433.047 218.061Z" fill="#98ABAA"/>
<path d="M433.047 211.73H436.489V209.547H433.047V211.73Z" fill="#98ABAA"/>
<path d="M433.047 234.346H436.489V229.54H433.047V234.346Z" fill="#98ABAA"/>
<path d="M433.047 229.54H436.489V225.832H433.047V229.54Z" fill="#98ABAA"/>
<path d="M447.805 148.069H451.247L451.247 145.338H447.805L447.805 148.069Z" fill="#98ABAA"/>
<path d="M447.805 153.852H451.247V148.069H447.805V153.852Z" fill="#98ABAA"/>
<path d="M447.805 165.88H451.247L451.247 161.623H447.805L447.805 165.88Z" fill="#98ABAA"/>
<path d="M447.805 170.137H451.247V165.88H447.805V170.137Z" fill="#98ABAA"/>
<path d="M447.805 183.691H451.247V177.909H447.805V183.691Z" fill="#98ABAA"/>
<path d="M447.805 186.422H451.247V183.691H447.805V186.422Z" fill="#98ABAA"/>
<path d="M447.805 201.501H451.247L451.247 194.193H447.805L447.805 201.501Z" fill="#98ABAA"/>
<path d="M447.805 202.708H451.247V201.501H447.805V202.708Z" fill="#98ABAA"/>
<path d="M447.805 218.061H451.247L451.247 211.73H447.805L447.805 218.061Z" fill="#98ABAA"/>
<path d="M447.805 211.73H451.247V209.547H447.805V211.73Z" fill="#98ABAA"/>
<path d="M447.805 234.346H451.247L451.247 229.539H447.805L447.805 234.346Z" fill="#98ABAA"/>
<path d="M447.805 229.539H451.247V225.832H447.805V229.539Z" fill="#98ABAA"/>
<path d="M348.09 34.058H350.953V26.6069H348.09V34.058Z" fill="#DAE1E1"/>
<path d="M355.157 34.058H358.021V26.6069H355.157V34.058Z" fill="#DAE1E1"/>
<path d="M362.223 34.058H365.086V26.6069H362.223V34.058Z" fill="#DAE1E1"/>
<path d="M369.289 34.058H372.153V26.6069H369.289V34.058Z" fill="#DAE1E1"/>
<path d="M348.09 46.4676H350.953V39.0165H348.09V46.4676Z" fill="#DAE1E1"/>
<path d="M355.157 46.4676H358.021V39.0165H355.157V46.4676Z" fill="#DAE1E1"/>
<path d="M362.223 46.4676H365.086V39.0165H362.223V46.4676Z" fill="#DAE1E1"/>
<path d="M369.289 46.4676H372.153V39.0165H369.289V46.4676Z" fill="#DAE1E1"/>
<path d="M348.09 58.8771H350.953V51.4257H348.09V58.8771Z" fill="#DAE1E1"/>
<path d="M355.157 58.8771H358.021V51.4257H355.157V58.8771Z" fill="#DAE1E1"/>
<path d="M377.305 34.058H380.168V26.6069H377.305V34.058Z" fill="#DAE1E1"/>
<path d="M157.372 108.924H159.193V104.178H157.372V108.924Z" fill="#D3DBDA"/>
<path d="M157.372 104.178H159.193V102.094H157.372V104.178Z" fill="#D3DBDA"/>
<path d="M163.799 108.924H165.62V104.178H163.799V108.924Z" fill="#D3DBDA"/>
<path d="M163.799 104.178H165.62V102.094H163.799V104.178Z" fill="#D3DBDA"/>
<path d="M171.316 108.924H173.137V104.178H171.316V108.924Z" fill="#D3DBDA"/>
<path d="M171.316 104.178H173.137V102.094H171.316V104.178Z" fill="#D3DBDA"/>
<path d="M177.742 108.924H179.564V104.178H177.742V108.924Z" fill="#D3DBDA"/>
<path d="M177.742 104.178H179.564V102.094H177.742V104.178Z" fill="#D3DBDA"/>
<path d="M143.095 108.924H144.916V104.178H143.095V108.924Z" fill="#D3DBDA"/>
<path d="M143.095 104.178H144.916V102.094H143.095V104.178Z" fill="#D3DBDA"/>
<path d="M149.521 108.924H151.343V104.178H149.521V108.924Z" fill="#D3DBDA"/>
<path d="M149.521 104.178H151.343V102.094H149.521V104.178Z" fill="#D3DBDA"/>
<path d="M157.372 120.785H159.193V113.954H157.372V120.785Z" fill="#D3DBDA"/>
<path d="M163.799 120.785H165.62V113.954H163.799V120.785Z" fill="#D3DBDA"/>
<path d="M171.316 120.785H173.137V113.954H171.316V120.785Z" fill="#D3DBDA"/>
<path d="M177.742 120.785H179.564V113.954H177.742V120.785Z" fill="#D3DBDA"/>
<path d="M143.095 120.785H144.916V113.954H143.095V120.785Z" fill="#D3DBDA"/>
<path d="M149.521 120.785H151.343V113.954H149.521V120.785Z" fill="#D3DBDA"/>
<path d="M157.372 132.645H159.193V125.815H157.372V132.645Z" fill="#D3DBDA"/>
<path d="M163.799 132.645H165.62V125.815H163.799V132.645Z" fill="#D3DBDA"/>
<path d="M171.316 132.645H173.137V125.815H171.316V132.645Z" fill="#D3DBDA"/>
<path d="M177.742 132.645H179.564V125.815H177.742V132.645Z" fill="#D3DBDA"/>
<path d="M143.095 132.645H144.916V125.815H143.095V132.645Z" fill="#D3DBDA"/>
<path d="M149.521 132.645H151.343V125.815H149.521V132.645Z" fill="#D3DBDA"/>
<path d="M497.25 165.033H500.071V154.44H497.25V165.033Z" fill="#CAD4D3"/>
<path d="M505.885 165.033H508.706V154.44H505.885V165.033Z" fill="#CAD4D3"/>
<path d="M514.011 165.033H516.833V154.44H514.011V165.033Z" fill="#CAD4D3"/>
<path d="M691.688 162.598H693.829V157.267H691.688V162.598Z" fill="#BAC7C6"/>
<path d="M691.688 157.267H693.829V156.641H691.688V157.267Z" fill="#BAC7C6"/>
<path d="M698.403 162.598H700.544V157.267H698.403V162.598Z" fill="#BAC7C6"/>
<path d="M698.403 157.267H700.544V156.641H698.403V157.267Z" fill="#BAC7C6"/>
<path d="M704.746 162.598H706.888V157.267H704.746V162.598Z" fill="#98ABAA"/>
<path d="M704.746 157.267H706.888V156.641H704.746V157.267Z" fill="#98ABAA"/>
<path d="M711.46 162.598H713.603V157.267H711.46V162.598Z" fill="#98ABAA"/>
<path d="M711.46 157.267H713.603V156.641H711.46V157.267Z" fill="#98ABAA"/>
<path d="M691.688 173.281H693.829V167.324H691.688V173.281Z" fill="#BAC7C6"/>
<path d="M698.403 173.281H700.544V167.324H698.403V173.281Z" fill="#BAC7C6"/>
<path d="M704.746 173.281H706.888V167.324H704.746V173.281Z" fill="#98ABAA"/>
<path d="M711.46 173.281H713.603V167.324H711.46V173.281Z" fill="#98ABAA"/>
<path d="M691.688 184.65H693.829V178.694H691.688V184.65Z" fill="#BAC7C6"/>
<path d="M698.403 184.65H700.544V178.694H698.403V184.65Z" fill="#BAC7C6"/>
<path d="M704.746 184.65H706.888V178.694H704.746V184.65Z" fill="#98ABAA"/>
<path d="M711.46 184.65H713.603V178.694H711.46V184.65Z" fill="#98ABAA"/>
<path d="M718.799 162.598H720.941V157.267H718.799V162.598Z" fill="#98ABAA"/>
<path d="M718.799 157.267H720.941V156.641H718.799V157.267Z" fill="#98ABAA"/>
<path d="M718.799 173.281H720.941V167.324H718.799V173.281Z" fill="#98ABAA"/>
<path d="M725.514 162.598H727.657V157.267H725.514V162.598Z" fill="#98ABAA"/>
<path d="M725.514 157.267H727.657V156.641H725.514V157.267Z" fill="#98ABAA"/>
<path d="M524.405 148.251H526.708V138.963H524.405V148.251Z" fill="#98ABAA"/>
<path d="M535.855 148.251H538.157V138.963H535.855V148.251Z" fill="#98ABAA"/>
<path d="M547.305 148.251H549.607L549.606 138.963L547.305 138.963V148.251Z" fill="#98ABAA"/>
<path d="M559.906 148.251H561.056V138.963L559.905 138.963L559.906 148.251Z" fill="#98ABAA"/>
<path d="M558.754 148.251H559.906L559.905 138.963L558.754 138.963V148.251Z" fill="#98ABAA"/>
<path d="M524.405 167.366H526.708V158.078H524.405V167.366Z" fill="#98ABAA"/>
<path d="M535.855 167.366H538.157V158.078H535.855V167.366Z" fill="#98ABAA"/>
<path d="M547.305 167.366H549.607V158.078H547.305V167.366Z" fill="#98ABAA"/>
<path d="M559.906 167.366H561.056V158.078H559.906V167.366Z" fill="#98ABAA"/>
<path d="M558.754 167.366H559.906V158.078H558.754V167.366Z" fill="#98ABAA"/>
<path d="M524.405 186.956H526.708V177.669H524.405V186.956Z" fill="#98ABAA"/>
<path d="M535.855 186.956H538.157V177.669H535.855V186.956Z" fill="#98ABAA"/>
<path d="M547.305 186.956H549.607V177.669H547.305V186.956Z" fill="#98ABAA"/>
<path d="M559.906 186.956L561.056 186.956V177.669L559.906 177.669V186.956Z" fill="#98ABAA"/>
<path d="M558.754 186.956H559.906V177.669H558.754V186.956Z" fill="#98ABAA"/>
<path d="M524.405 206.546H526.708V206.186H524.405V206.546Z" fill="#98ABAA"/>
<path d="M524.405 206.186H526.708V197.259H524.405V206.186Z" fill="#98ABAA"/>
<path d="M535.855 206.546H538.157L538.157 206.186H535.855L535.855 206.546Z" fill="#98ABAA"/>
<path d="M535.855 206.186H538.157V197.259H535.855V206.186Z" fill="#98ABAA"/>
<path d="M549.607 206.546H547.305V206.186L549.607 206.186V197.259V206.546Z" fill="#98ABAA"/>
<path d="M547.305 206.186L549.607 206.186V197.259H547.305V206.186Z" fill="#98ABAA"/>
<path d="M561.057 206.546H558.754V206.186L559.905 206.186V197.259H561.057V206.546Z" fill="#98ABAA"/>
<path d="M558.754 206.186L559.905 206.186V197.259L558.754 197.259V206.186Z" fill="#98ABAA"/>
<path d="M524.405 224.342H526.708V215.055H524.405V224.342Z" fill="#98ABAA"/>
<path d="M535.855 224.342H538.157V215.055H535.855V224.342Z" fill="#98ABAA"/>
<path d="M547.305 224.342H549.607V215.055H547.305V224.342Z" fill="#98ABAA"/>
<path d="M524.405 244.19H526.708V244.086L524.405 244.086V244.19Z" fill="#98ABAA"/>
<path d="M524.405 244.086L526.708 244.086V234.902H524.405V244.086Z" fill="#98ABAA"/>
<path d="M535.855 244.19H538.157V244.086H535.855V244.19Z" fill="#98ABAA"/>
<path d="M535.855 244.086H538.157V234.902H535.855V244.086Z" fill="#98ABAA"/>
<path d="M549.607 244.19H547.305V244.086H549.607V234.902V244.19Z" fill="#98ABAA"/>
<path d="M547.305 244.086H549.607V234.902H547.305V244.086Z" fill="#98ABAA"/>
<path d="M559.906 224.342H561.056V215.055H559.906V224.342Z" fill="#98ABAA"/>
<path d="M558.754 224.342H559.906V215.055H558.754V224.342Z" fill="#98ABAA"/>
<path d="M784.675 193.395H787.027V188.064H784.675V193.395Z" fill="#98ABAA"/>
<path d="M784.675 202.002H787.027V196.671H784.675V202.002Z" fill="#98ABAA"/>
<path d="M790.709 193.395H793.06V188.064H790.709V193.395Z" fill="#98ABAA"/>
</g>
</svg>
