<?xml version="1.0" encoding="utf-8"?>
<!-- Generator: Adobe Illustrator 27.0.0, SVG Export Plug-In . SVG Version: 6.00 Build 0)  -->
<svg version="1.1" id="Layer_1" xmlns="http://www.w3.org/2000/svg" xmlns:xlink="http://www.w3.org/1999/xlink" x="0px" y="0px"
	 viewBox="0 0 960 946" style="enable-background:new 0 0 960 946;" xml:space="preserve">
<style type="text/css">
	.st0{fill:#D5002A;}
	.st1{fill:#C4345E;}
	.st2{fill:#AF002A;}
	.st3{fill:#9C2C51;}
	.st4{fill:#353C4C;}
	.st5{fill:#262523;}
	.st6{fill:#F3898B;}
	.st7{fill:#191A1E;}
	.st8{fill:#292A2D;}
	.st9{fill:#404142;}
	.st10{fill:#353535;}
	.st11{fill:#E8887C;}
	.st12{fill:#FDA899;}
	.st13{fill:#401E1D;}
	.st14{fill:url(#SVGID_1_);}
	.st15{fill:#2D1212;}
	.st16{fill:url(#SVGID_00000118390039568383434110000004076466618358056850_);}
	.st17{fill:#D64442;}
	.st18{fill:#62413E;}
	.st19{fill:#542D27;}
	.st20{fill:#54322E;}
	.st21{fill:#C14859;}
	.st22{fill:url(#SVGID_00000012449537425984681650000012575679997534202032_);}
	.st23{fill:url(#SVGID_00000157269628412351007410000014986560239330760865_);}
	.st24{fill:#B87564;}
	.st25{fill:#FCC391;}
	.st26{fill:#DEE8F9;}
	.st27{fill:#939A9E;}
	.st28{fill:#D13434;}
	.st29{fill:#E24B4B;}
	.st30{fill:#0C0C0C;}
	.st31{fill:#252526;}
	.st32{fill:#CED4D8;}
	.st33{fill:#FFFFFF;}
	.st34{fill:url(#SVGID_00000085249404378214816400000007830963406085777792_);}
	.st35{fill:url(#SVGID_00000034777999983201533170000010140232350820672168_);}
	.st36{fill:url(#SVGID_00000163063001020980494430000002306164104834589111_);}
	.st37{fill:url(#SVGID_00000006665335235634141810000013829960830419671210_);}
	.st38{fill:url(#SVGID_00000182528477090892720330000007509879512531031438_);}
	.st39{fill:url(#SVGID_00000029040890330108367920000012920428880532081798_);}
	.st40{fill:none;stroke:#D5002A;stroke-miterlimit:10;}
	.st41{fill:#FFFFFF;stroke:#D5002A;stroke-width:0.75;stroke-miterlimit:10;}
</style>
<g>
	<g>
		<path class="st0" d="M337.94,740.75v-17.26h2.47v17.26H337.94z M340.11,736.58l-0.12-3.01l9.79-10.08h2.81l-7.57,7.99l-1.38,1.53
			L340.11,736.58z M350.17,740.75l-7.08-8.24l1.65-1.83l8.31,10.06H350.17z"/>
		<path class="st0" d="M362.3,727.56c1.07,0,2.01,0.21,2.82,0.62c0.81,0.41,1.45,1.04,1.91,1.87c0.46,0.84,0.69,1.9,0.69,3.18v7.52
			h-2.37v-7.25c0-1.27-0.31-2.22-0.92-2.86c-0.62-0.64-1.48-0.96-2.6-0.96c-0.84,0-1.57,0.16-2.2,0.49
			c-0.62,0.33-1.11,0.81-1.44,1.46c-0.34,0.64-0.5,1.44-0.5,2.39v6.73h-2.37v-18.3h2.37v8.75l-0.47-0.94c0.43-0.85,1.08-1.52,1.97-2
			C360.09,727.79,361.12,727.56,362.3,727.56z"/>
		<path class="st0" d="M377.72,740.9c-1.3,0-2.46-0.29-3.49-0.86c-1.03-0.58-1.84-1.37-2.43-2.38s-0.89-2.16-0.89-3.44
			c0-1.3,0.3-2.45,0.89-3.44c0.59-0.99,1.4-1.78,2.42-2.35s2.19-0.86,3.5-0.86c1.3,0,2.46,0.28,3.49,0.85
			c1.03,0.57,1.83,1.35,2.42,2.36c0.58,1,0.88,2.15,0.88,3.45s-0.29,2.45-0.88,3.45c-0.58,1-1.39,1.79-2.42,2.37
			S379.01,740.9,377.72,740.9z M373.28,725.78l3.28-3.21h2.27l3.28,3.21h-2.15l-3.25-2.71h1.97l-3.25,2.71H373.28z M377.72,738.83
			c0.84,0,1.59-0.19,2.26-0.57s1.19-0.92,1.57-1.62c0.38-0.7,0.57-1.51,0.57-2.43c0-0.94-0.19-1.75-0.57-2.43
			c-0.38-0.68-0.9-1.21-1.57-1.59s-1.42-0.57-2.26-0.57c-0.84,0-1.59,0.19-2.24,0.57c-0.66,0.38-1.18,0.91-1.58,1.59
			c-0.39,0.68-0.59,1.49-0.59,2.43c0,0.92,0.2,1.73,0.59,2.43c0.39,0.7,0.92,1.24,1.58,1.62
			C376.13,738.64,376.88,738.83,377.72,738.83z"/>
		<path class="st0" d="M394.75,727.56c1.07,0,2.01,0.21,2.82,0.62c0.81,0.41,1.45,1.04,1.91,1.87c0.46,0.84,0.69,1.9,0.69,3.18v7.52
			h-2.37v-7.25c0-1.27-0.31-2.22-0.92-2.86c-0.62-0.64-1.48-0.96-2.6-0.96c-0.84,0-1.57,0.16-2.2,0.49
			c-0.62,0.33-1.11,0.81-1.44,1.46c-0.34,0.64-0.5,1.44-0.5,2.39v6.73h-2.37v-13.07h2.27v3.53l-0.37-0.94
			c0.43-0.85,1.08-1.52,1.97-2C392.53,727.79,393.57,727.56,394.75,727.56z"/>
		<path class="st0" d="M409.99,740.21c-1.27,0-2.4-0.27-3.39-0.8c-1-0.53-1.78-1.28-2.37-2.23c-0.58-0.95-0.88-2.05-0.88-3.3
			c0-1.27,0.29-2.37,0.88-3.32c0.58-0.95,1.37-1.68,2.37-2.21c0.99-0.53,2.12-0.79,3.39-0.79c1.12,0,2.14,0.23,3.06,0.68
			c0.92,0.45,1.66,1.15,2.21,2.08c0.55,0.94,0.83,2.12,0.83,3.55c0,1.41-0.28,2.59-0.83,3.53c-0.55,0.94-1.29,1.64-2.21,2.11
			C412.13,739.97,411.11,740.21,409.99,740.21z M410.29,745.68c-1.2,0-2.36-0.17-3.49-0.51s-2.04-0.82-2.75-1.44l1.13-1.82
			c0.61,0.53,1.36,0.94,2.24,1.25c0.89,0.3,1.82,0.46,2.79,0.46c1.54,0,2.68-0.36,3.4-1.08c0.72-0.72,1.08-1.82,1.08-3.3v-2.76
			l0.25-2.59l-0.12-2.61v-3.58h2.24v11.29c0,2.3-0.58,3.99-1.73,5.08S412.51,745.68,410.29,745.68z M410.26,738.14
			c0.87,0,1.64-0.18,2.32-0.54s1.2-0.86,1.59-1.5c0.39-0.64,0.58-1.38,0.58-2.22c0-0.84-0.19-1.58-0.58-2.22
			c-0.39-0.64-0.92-1.14-1.59-1.49s-1.45-0.53-2.32-0.53c-0.87,0-1.65,0.18-2.33,0.53c-0.68,0.35-1.22,0.85-1.6,1.49
			c-0.39,0.64-0.58,1.38-0.58,2.22c0,0.84,0.19,1.58,0.58,2.22c0.39,0.64,0.92,1.14,1.6,1.5
			C408.62,737.95,409.39,738.14,410.26,738.14z"/>
		<path class="st0" d="M426.34,729.63v-1.95h8.33v1.95H426.34z M432.7,740.9c-1.32,0-2.33-0.35-3.06-1.06s-1.08-1.72-1.08-3.03
			v-11.98h2.37v11.88c0,0.71,0.18,1.25,0.53,1.63c0.35,0.38,0.86,0.57,1.52,0.57c0.74,0,1.36-0.21,1.85-0.62l0.74,1.7
			c-0.36,0.31-0.79,0.54-1.29,0.69C433.77,740.82,433.25,740.9,432.7,740.9z"/>
		<path class="st0" d="M439.24,725.78l-4.14-3.21h3.01l3.35,3.21H439.24z M438.42,740.75v-13.07h2.37v13.07H438.42z"/>
		<path class="st0" d="M461.65,727.56c1.05,0,1.98,0.21,2.79,0.62c0.8,0.41,1.43,1.04,1.89,1.87c0.45,0.84,0.68,1.9,0.68,3.18v7.52
			h-2.37v-7.25c0-1.27-0.3-2.22-0.89-2.86c-0.59-0.64-1.42-0.96-2.49-0.96c-0.79,0-1.48,0.16-2.07,0.49s-1.05,0.81-1.37,1.46
			c-0.32,0.64-0.48,1.44-0.48,2.39v6.73h-2.37v-7.25c0-1.27-0.29-2.22-0.88-2.86c-0.58-0.64-1.42-0.96-2.5-0.96
			c-0.77,0-1.45,0.16-2.05,0.49s-1.05,0.81-1.38,1.46c-0.33,0.64-0.49,1.44-0.49,2.39v6.73h-2.37v-13.07h2.27v3.48l-0.37-0.89
			c0.41-0.85,1.04-1.52,1.9-2c0.85-0.48,1.85-0.72,2.98-0.72c1.25,0,2.33,0.31,3.23,0.92s1.5,1.55,1.78,2.8l-0.96-0.39
			c0.39-1,1.08-1.81,2.07-2.42C459.19,727.86,460.34,727.56,461.65,727.56z"/>
		<path class="st0" d="M476.13,729.63v-1.95h8.33v1.95H476.13z M482.49,740.9c-1.32,0-2.33-0.35-3.06-1.06s-1.08-1.72-1.08-3.03
			v-11.98h2.37v11.88c0,0.71,0.18,1.25,0.53,1.63c0.35,0.38,0.86,0.57,1.52,0.57c0.74,0,1.36-0.21,1.85-0.62l0.74,1.7
			c-0.36,0.31-0.79,0.54-1.29,0.69C483.55,740.82,483.03,740.9,482.49,740.9z"/>
		<path class="st0" d="M495.18,727.56c1.07,0,2.01,0.21,2.82,0.62c0.81,0.41,1.45,1.04,1.91,1.87c0.46,0.84,0.69,1.9,0.69,3.18v7.52
			h-2.37v-7.25c0-1.27-0.31-2.22-0.92-2.86c-0.62-0.64-1.48-0.96-2.6-0.96c-0.84,0-1.57,0.16-2.2,0.49
			c-0.62,0.33-1.11,0.81-1.44,1.46c-0.34,0.64-0.5,1.44-0.5,2.39v6.73h-2.37v-18.3h2.37v8.75l-0.47-0.94c0.43-0.85,1.08-1.52,1.97-2
			C492.97,727.79,494,727.56,495.18,727.56z"/>
		<path class="st0" d="M508.82,740.9c-0.97,0-1.82-0.16-2.55-0.49c-0.73-0.33-1.29-0.79-1.69-1.37c-0.39-0.58-0.59-1.25-0.59-1.98
			c0-0.71,0.17-1.35,0.51-1.92s0.89-1.04,1.65-1.38c0.76-0.34,1.8-0.52,3.09-0.52h4.14v1.7h-4.04c-1.18,0-1.98,0.2-2.39,0.59
			c-0.41,0.39-0.62,0.87-0.62,1.43c0,0.64,0.25,1.15,0.76,1.54c0.51,0.39,1.22,0.58,2.12,0.58c0.89,0,1.67-0.2,2.33-0.59
			c0.67-0.39,1.15-0.97,1.44-1.73l0.47,1.63c-0.31,0.77-0.86,1.38-1.65,1.84S510.02,740.9,508.82,740.9z M513.11,740.75v-2.76
			l-0.12-0.52v-4.71c0-1-0.29-1.78-0.88-2.33c-0.58-0.55-1.46-0.83-2.63-0.83c-0.77,0-1.53,0.13-2.27,0.38
			c-0.74,0.26-1.36,0.6-1.87,1.02l-0.99-1.78c0.67-0.54,1.48-0.96,2.43-1.25c0.95-0.29,1.94-0.43,2.97-0.43
			c1.79,0,3.17,0.44,4.14,1.31c0.97,0.87,1.46,2.2,1.46,3.99v7.89H513.11z M505.52,725.78l3.3-2.47h2.22l3.3,2.47h-2.17l-3.23-2
			h1.97l-3.23,2H505.52z M512.37,723.61l2.91-2.79h2.69l-3.65,2.79H512.37z"/>
		<path class="st0" d="M520.31,745.68c-0.62,0-1.23-0.1-1.82-0.31c-0.59-0.21-1.1-0.5-1.53-0.9l1.01-1.78
			c0.33,0.31,0.69,0.55,1.08,0.71s0.81,0.25,1.26,0.25c0.58,0,1.05-0.15,1.43-0.44s0.73-0.82,1.06-1.58l0.81-1.8l0.25-0.3
			l5.13-11.86h2.32l-6.34,14.38c-0.38,0.92-0.8,1.64-1.27,2.17c-0.47,0.53-0.98,0.9-1.54,1.12S520.99,745.68,520.31,745.68z
			 M523.42,741.17l-5.97-13.49h2.46l5.08,11.64L523.42,741.17z"/>
		<path class="st0" d="M545.56,740.9c-1.27,0-2.4-0.28-3.39-0.84c-1-0.56-1.78-1.34-2.36-2.34c-0.58-1-0.86-2.17-0.86-3.5
			c0-1.33,0.29-2.49,0.86-3.49c0.58-0.99,1.36-1.77,2.36-2.33c0.99-0.56,2.12-0.84,3.39-0.84c1.1,0,2.1,0.25,2.98,0.74
			s1.6,1.23,2.13,2.22s0.8,2.22,0.8,3.7s-0.26,2.71-0.78,3.7s-1.22,1.73-2.11,2.23C547.71,740.65,546.7,740.9,545.56,740.9z
			 M545.76,738.83c0.82,0,1.57-0.19,2.23-0.57c0.67-0.38,1.19-0.92,1.58-1.62c0.39-0.7,0.58-1.51,0.58-2.43
			c0-0.94-0.19-1.75-0.58-2.43c-0.39-0.68-0.91-1.21-1.58-1.59c-0.67-0.38-1.41-0.57-2.23-0.57c-0.84,0-1.59,0.19-2.24,0.57
			c-0.66,0.38-1.18,0.91-1.58,1.59c-0.39,0.68-0.59,1.49-0.59,2.43c0,0.92,0.2,1.73,0.59,2.43c0.39,0.7,0.92,1.24,1.58,1.62
			C544.17,738.64,544.92,738.83,545.76,738.83z M550.22,740.75v-3.53l0.15-3.03l-0.25-3.03v-8.7h2.37v18.3H550.22z"/>
		<path class="st0" d="M562.48,740.9c-1.12,0-2.1-0.21-2.95-0.62c-0.85-0.41-1.5-1.04-1.97-1.89s-0.7-1.91-0.7-3.19v-7.52h2.37v7.25
			c0,1.28,0.31,2.24,0.92,2.88c0.62,0.64,1.48,0.96,2.6,0.96c0.82,0,1.54-0.17,2.15-0.51c0.61-0.34,1.08-0.83,1.41-1.48
			c0.33-0.65,0.49-1.43,0.49-2.35v-6.76h2.37v13.07h-2.24v-3.53l0.37,0.94c-0.43,0.87-1.07,1.54-1.92,2.02
			C564.51,740.66,563.55,740.9,562.48,740.9z M564.75,725.71c-0.39,0-0.74-0.08-1.05-0.25c-0.3-0.16-0.58-0.36-0.83-0.58
			c-0.25-0.22-0.48-0.42-0.71-0.58c-0.23-0.16-0.46-0.25-0.69-0.25c-0.36,0-0.65,0.14-0.88,0.41c-0.22,0.27-0.35,0.65-0.38,1.12
			h-1.33c0.03-0.92,0.26-1.65,0.69-2.19c0.43-0.54,1-0.81,1.73-0.81c0.39,0,0.75,0.09,1.06,0.26s0.59,0.37,0.84,0.59
			c0.25,0.22,0.48,0.42,0.7,0.58c0.22,0.17,0.45,0.25,0.68,0.25c0.36,0,0.66-0.13,0.89-0.39c0.23-0.26,0.35-0.62,0.37-1.08h1.33
			c-0.02,0.87-0.24,1.58-0.68,2.12C566.05,725.44,565.47,725.71,564.75,725.71z M567.56,729.48v-1.8H568c0.54,0,0.94-0.15,1.2-0.46
			c0.25-0.3,0.38-0.69,0.38-1.15c0-0.31-0.04-0.6-0.13-0.86c-0.09-0.26-0.21-0.49-0.36-0.69l1.5-0.57c0.23,0.28,0.4,0.61,0.52,0.99
			s0.17,0.78,0.17,1.21c0,0.99-0.29,1.79-0.86,2.4s-1.38,0.92-2.42,0.92H567.56z"/>
		<path class="st0" d="M580.5,740.75v-18.3h2.37v18.3H580.5z"/>
		<path class="st0" d="M588.56,725.17c-0.46,0-0.84-0.15-1.15-0.44c-0.3-0.3-0.46-0.66-0.46-1.08c0-0.44,0.15-0.81,0.46-1.11
			c0.3-0.3,0.69-0.44,1.15-0.44c0.46,0,0.84,0.14,1.15,0.43c0.3,0.29,0.46,0.64,0.46,1.07c0,0.44-0.15,0.82-0.44,1.12
			C589.43,725.01,589.04,725.17,588.56,725.17z M587.38,740.75v-13.07h2.37v13.07H587.38z"/>
		<path class="st0" d="M600.08,740.9c-1.4,0-2.63-0.29-3.69-0.86s-1.88-1.36-2.47-2.37c-0.58-1-0.88-2.15-0.88-3.45
			s0.28-2.45,0.85-3.45c0.57-1,1.35-1.79,2.34-2.36c1-0.57,2.12-0.85,3.37-0.85c1.27,0,2.38,0.28,3.35,0.84s1.73,1.34,2.28,2.35
			c0.55,1.01,0.83,2.19,0.83,3.54c0,0.1,0,0.21-0.01,0.34c-0.01,0.13-0.02,0.25-0.04,0.37H594.9v-1.7h9.89l-0.96,0.59
			c0.02-0.84-0.16-1.59-0.52-2.24c-0.36-0.66-0.86-1.17-1.49-1.54c-0.63-0.37-1.37-0.55-2.21-0.55c-0.82,0-1.55,0.18-2.19,0.55
			c-0.64,0.37-1.14,0.89-1.5,1.55c-0.36,0.67-0.54,1.43-0.54,2.28v0.39c0,0.87,0.2,1.65,0.6,2.33c0.4,0.68,0.96,1.21,1.69,1.59
			s1.55,0.57,2.49,0.57c0.77,0,1.48-0.13,2.11-0.39c0.63-0.26,1.19-0.66,1.67-1.18l1.31,1.53c-0.59,0.69-1.33,1.22-2.21,1.58
			C602.15,740.72,601.17,740.9,600.08,740.9z M595.17,725.78l3.28-3.21h2.27l3.28,3.21h-2.14l-3.25-2.71h1.97l-3.25,2.71H595.17z
			 M599.59,745.58c-0.35,0-0.64-0.12-0.89-0.35c-0.25-0.23-0.37-0.53-0.37-0.89c0-0.38,0.12-0.69,0.37-0.92
			c0.25-0.24,0.54-0.36,0.89-0.36c0.34,0,0.64,0.12,0.89,0.36c0.25,0.24,0.37,0.55,0.37,0.92c0,0.36-0.12,0.66-0.37,0.89
			C600.23,745.47,599.93,745.58,599.59,745.58z"/>
		<path class="st0" d="M614.85,740.9c-1.12,0-2.1-0.21-2.95-0.62c-0.85-0.41-1.5-1.04-1.97-1.89s-0.7-1.91-0.7-3.19v-7.52h2.37v7.25
			c0,1.28,0.31,2.24,0.92,2.88c0.62,0.64,1.48,0.96,2.6,0.96c0.82,0,1.54-0.17,2.15-0.51c0.61-0.34,1.08-0.83,1.41-1.48
			c0.33-0.65,0.49-1.43,0.49-2.35v-6.76h2.37v13.07h-2.24v-3.53l0.37,0.94c-0.43,0.87-1.07,1.54-1.92,2.02
			C616.88,740.66,615.92,740.9,614.85,740.9z"/>
	</g>
</g>
<g>
	<g>
		<rect x="398.79" y="399.83" class="st1" width="13.87" height="55.13"/>
		<g>
			<g>
				<g>
					<path class="st2" d="M335.48,294.63c0-1.2,10.35-45.5,64.03-45.5c36.11,0,68.37,23.59,68.37,57.53
						c0,23.59-17.57,38.03-40.68,47.9c-8.18,3.61-8.43,10.35-8.43,18.29v13.48h-39.72v-26.24c0-10.59,0.48-19.26,11.31-26.24
						c14.68-9.39,28.41-10.11,28.41-27.2c0-11.55-8.67-19.74-19.5-19.74c-17.33,0-25.76,14.44-28.41,24.79L335.48,294.63z
						 M426.47,427.51c0,15.17-12.28,27.44-27.68,27.44c-15.17,0-27.44-12.28-27.44-27.44c0-15.41,12.28-27.68,27.44-27.68
						C414.2,399.83,426.47,412.11,426.47,427.51z"/>
				</g>
			</g>
			<g>
				<g>
					<path class="st0" d="M349.35,294.63c0-1.2,10.35-45.5,64.03-45.5c36.11,0,68.37,23.59,68.37,57.53
						c0,23.59-17.57,38.03-40.68,47.9c-8.18,3.61-8.43,10.35-8.43,18.29v13.48h-39.72v-26.24c0-10.59,0.48-19.26,11.31-26.24
						c14.68-9.39,28.41-10.11,28.41-27.2c0-11.55-8.67-19.74-19.5-19.74c-17.33,0-25.76,14.44-28.41,24.79L349.35,294.63z
						 M440.35,427.51c0,15.17-12.28,27.44-27.68,27.44c-15.17,0-27.44-12.28-27.44-27.44c0-15.41,12.28-27.68,27.44-27.68
						C428.07,399.83,440.35,412.11,440.35,427.51z"/>
				</g>
			</g>
		</g>
		<polygon class="st3" points="335.48,294.63 349.35,294.63 384.74,311.72 370.87,311.72 		"/>
	</g>
	<g>
		<g>
			<path class="st4" d="M572.58,643.74c0,0.49,5.06,34.96,5.06,34.96h17.8l-4.08-26.79L572.58,643.74z"/>
			<rect x="628.05" y="643.74" class="st4" width="18.63" height="34.97"/>
			<path class="st5" d="M648.56,654.31H625.5c0,0-4.91-46.4-14.23-78.76c-0.98-3.4-1.88-6.96-2.7-10.62
				c-0.04-0.04-0.08-0.08-0.12-0.12c-0.27-1.23-0.54-2.47-0.79-3.72c-1.58-7.71-2.84-15.66-3.84-23.24
				c-0.03-0.23-0.06-0.46-0.09-0.7c-1.46-10.94-2.4-21.1-2.96-28.57c-0.07-0.9-0.13-1.77-0.19-2.59c-0.08-1.1-0.15-2.11-0.21-3.05
				c-0.16-2.39-0.26-4.23-0.32-5.38c-0.04-0.9-0.07-1.38-0.07-1.38h-6.38c0,0-0.02,0.3-0.05,0.87c-0.06,1.07-0.17,3.08-0.31,5.85
				c-0.05,0.95-0.1,1.98-0.16,3.09c-0.05,0.93-0.1,1.91-0.15,2.95c-0.6,11.63-1.5,29.74-2.24,47.97
				c-0.41,9.98-0.77,19.99-1.01,29.01c-0.98,36.63,4.42,71.43,4.42,71.43h-22.57c0,0-11.84-72.66-12.06-103.95
				c-0.02-3.01,0.07-5.63,0.28-7.77c1.1-10.99,1.16-27.43,0.88-42.19c-0.04-1.91-0.08-3.79-0.12-5.63
				c-0.38-15.5-1.04-27.89-1.04-27.89h77.31c-0.08,0.31-0.19,2.53-0.29,6.13c0.05,0.06,0.1,0.12,0.16,0.17
				c-0.14,4.49-0.26,11.51-0.28,19.78c0,0.2,0,0.4,0,0.61c-0.01,2.68,0,5.49,0.02,8.38c0.11,17.36,0.73,37.76,2.5,52.1
				c0,0.01,0.01,0.03,0.01,0.04c0.01,0.11,0.03,0.22,0.04,0.33c0.38,2.86,0.81,5.45,1.29,7.69
				C645.62,590.2,649.54,621.95,648.56,654.31z"/>
			<path class="st0" d="M637.3,406.64l5.04,78.13c-1.83,0.89-3.8,1.67-5.9,2.35c-22.41,7.23-58.51,2.62-76.25-0.37
				c-6.5-1.1-10.53-1.97-10.53-1.97l21.81-135.42l21.37-8.07v-17.44l17.01-1.52l0.22,17.88l26.05,9L637.3,406.64z"/>
			<polygon class="st6" points="610.06,340.19 601.42,352.73 592.83,341.28 592.83,323.83 609.84,322.3 			"/>
			<path class="st7" d="M543.06,686.85v6.03c0,0,0.56,1.89,4.71,2.26h24.31c0,0,4.33-4.15,7.35-2.64c0,0-0.57,2.45,2.26,2.64h17.15
				c0,0,2.45-0.18,2.08-2.64v-3.58c0,0-0.19-1.32-1.88-2.26c0,0-0.38-10.74-2.83-14.51c-2.45-3.77-2.45,0.38-7.35,0.94
				c-4.9,0.57-5.28,0.76-7.91-4.14c-2.64-4.9-8.86-5.28-8.86-5.28s-2.52,5.17-8.66,9.94c-1.18,0.92-2.51,1.83-3.97,2.68
				c-2.52,1.47-4.89,1.95-6.99,2.14C547.03,678.94,543.33,677.61,543.06,686.85z"/>
			<path class="st8" d="M598.84,695.14h-17.15c-2.82-0.19-2.26-2.64-2.26-2.64c-3.02-1.51-7.35,2.64-7.35,2.64h-24.31
				c-4.15-0.38-4.71-2.26-4.71-2.26v-3.34c7.01,0.18,15.76,0.41,18.66,0.52c5.09,0.18,11.49-2.64,16.02-3.4c4.52-0.75,21.3,0,21.3,0
				c1.69,0.94,1.89,2.26,1.89,2.26v3.58C601.29,694.95,598.84,695.14,598.84,695.14z"/>
			<path class="st7" d="M652.08,678.17c0,0-0.96-7.45-5.54-6.3c-4.59,1.15-2.1-4.01-6.69-4.59c-4.59-0.57-8.22-0.38-8.79,2.67
				c-0.57,3.06-2.1,2.1-4.59,1.34s-3.44,0.38-4.01,3.63c-0.57,3.25-1.91,15.48-1.91,15.48h32.86L652.08,678.17z"/>
			<path class="st8" d="M652.27,695.14h-30.21c-1.53,0-2.79-1.26-2.79-2.79v-0.3c0-1.53,1.26-2.79,2.79-2.79h30.21
				c1.53,0,2.79,1.26,2.79,2.79v0.3C655.06,693.88,653.81,695.14,652.27,695.14z"/>
			<path class="st8" d="M651.29,686.98c0.02,0.05,0.02,0.11,0.02,0.16c0,0.15-0.04,0.29-0.09,0.43c-0.12,0.3-0.38,0.57-0.72,0.79
				c-0.49,0.32-1.17,0.5-1.93,0.5h-23.07c-1.27,0-2.34-0.55-2.64-1.29c-0.05-0.13-0.09-0.28-0.09-0.43c0-0.05,0-0.11,0.02-0.16
				c-0.01-0.01,0-0.01,0-0.02c-0.01-0.13-0.02-0.27-0.02-0.4c0-1.77,0.82-3.42,2.23-4.81c2.53-2.5,6.97-4.15,12.03-4.15
				c5.52,0,10.32,1.98,12.68,4.86c1.01,1.23,1.58,2.63,1.58,4.1c0,0.13-0.01,0.27-0.02,0.4
				C651.29,686.97,651.3,686.98,651.29,686.98z"/>
			<path class="st9" d="M649.73,682.45c-2.76,1.91-7.05,3.13-11.89,3.13c-5.42,0-10.17-1.54-12.83-3.84
				c2.53-2.5,6.97-4.15,12.03-4.15C642.56,677.59,647.36,679.57,649.73,682.45z"/>
			<path class="st5" d="M617.55,342.77l-16.11,9.45l1.37,1.61l-1.4-1.09l-0.85,0.66l-15.66-9.19c0,0-6.92,10.7,2.09,23.53l7.8-7.84
				h0c0,0,0,0,0,0l2.57-2.58c4.04-2.98,7.56-0.66,9.44,1.19l1.45,1.7c0,0,0,0,0,0v0l7.01,8.23
				C624.28,355.6,617.55,342.77,617.55,342.77z"/>
			<path class="st10" d="M592.83,334.19l4.47,5.93l0.06-0.02c0.08,0.15,0.17,0.3,0.26,0.45l0.35,0.47c0.83,0.97,2.06,1.58,3.44,1.58
				c1.38,0,2.61-0.61,3.44-1.58l5.14-6.83c0,0,13.61,2.2,6.1,30l-14.68-11.45l-14.68,11.45
				C579.22,336.39,592.83,334.19,592.83,334.19z"/>
			<path class="st5" d="M600.24,500.86c0.57,7.47,2.03,25.36,3.49,36.3c0.03,0.23,0.06,0.46,0.09,0.69
				c1.01,7.57,2.27,15.53,3.84,23.24c4.06,10.48,11.01,17.25,17.98,16.37c6.89-0.87,11.9-9,13.28-19.98
				c-0.01-0.11-0.03-0.22-0.04-0.33c0-0.01,0-0.03-0.01-0.04c-1.77-14.33-2.4-43.73-2.51-61.09h-5.36l-16.84,5.87
				c2.22-9.25-1.52-16.7-11.12-0.43C603.04,501.45,600.26,500.87,600.24,500.86z"/>
			<path class="st5" d="M559.47,553.41c2.55,11.57,8.78,19.74,16.07,19.74c6.53,0,12.21-6.55,15.15-16.23
				c0.74-18.23,2.08-44.69,2.68-56.33c-2.08,1.34-4.09,2.15-6.18,1.97c-3.53-0.31-19.59-2.3-26.68-4.74
				c0.28,14.75,0.35,36.82-0.76,47.81C559.54,547.78,559.45,550.4,559.47,553.41z"/>
			<path class="st10" d="M576.48,347.45c0.35-0.16,0.7-0.3,1.06-0.4c0,0-14.2,2.9-21.03,13.72c-6.84,10.83-21.67,47.56-21.67,47.56
				h28.77c0,0-0.05-1.5-0.07-4.02c0.44,0.02,0.7,0.03,0.7,0.03l1.71-7.73l4.61-39.7c1.54-3.81,3.82-7.86,6.98-9.87L576.48,347.45z"
				/>
			<path class="st5" d="M557.24,408.33c0,0,3.87-30.33,9.68-36.33l-3.31,36.33H557.24z"/>
			<path class="st5" d="M636.43,487.11c-0.03,2.74-0.06,5.73-0.06,8.91c0,0.2,0,0.4,0,0.61c-12.51,4.35-24.77,6.09-35.99,6.33
				c-0.16-2.39-0.26-4.23-0.32-5.38c-0.04-0.9-0.07-1.38-0.07-1.38h-6.38c0,0-0.02,0.3-0.05,0.87c-0.06,1.07-0.17,3.08-0.31,5.85
				c-13.27-0.45-24.68-2.83-32.74-5.08c-0.1-3.95-0.21-7.7-0.33-11.09C577.92,489.73,614.02,494.34,636.43,487.11z"/>
			<path class="st11" d="M629.9,307.45c0,0,2.39,2.44,8.16-1.85c5.76-4.29,10.35-9.9,6.06-18.03c-4.29-8.13-22.46,7.87-22.46,7.87
				L629.9,307.45z"/>
			<path class="st11" d="M568.53,308.81c0,0-2.39,2.44-8.16-1.85c-5.76-4.29-10.35-9.9-6.06-18.03c4.29-8.13,22.46,7.87,22.46,7.87
				L568.53,308.81z"/>
			<path class="st12" d="M633.38,288.34c0,0-0.89,12.56-4.58,24.71c-2.57,8.43-9.41,12.7-17.07,14.72c-3.22,0.85-6.6,1.3-9.85,1.49
				c-0.14,0.01-0.28,0.02-0.42,0.02c-1.31,0.07-2.58,0.06-3.8-0.01c-3.33-0.2-6.35-0.91-9.17-1.96c-4.89-1.8-9.19-4.6-13.48-7.49
				c-1.87-1.26-3.33-3.27-4.47-5.6c-0.41-0.84-0.78-1.73-1.11-2.63c-2.52-6.84-2.85-14.83-2.85-14.83s-5.32-39.46,2.07-48.18
				c7.39-8.72,22.76-9.01,39.31-8.13c16.55,0.89,26.16,8.57,28.23,20.1C638.26,272.08,633.38,288.34,633.38,288.34z"/>
			<path class="st13" d="M590.51,288.31c0,0-1.29-1.92-4.66-1.96s-6.1-0.15-7.98,2.14c0,0-1.81,0.52-1.96-0.41
				c-0.15-0.92,3.77-4.36,9.64-3.58c5.87,0.78,7.91,3.36,7.72,3.81S591.61,289.3,590.51,288.31z"/>
			<path class="st13" d="M610.3,288.31c0,0,1.29-1.92,4.66-1.96c3.36-0.04,6.1-0.15,7.98,2.14c0,0,1.81,0.52,1.96-0.41
				c0.15-0.92-3.77-4.36-9.64-3.58c-5.87,0.78-7.91,3.36-7.72,3.81S609.2,289.3,610.3,288.31z"/>
			
				<radialGradient id="SVGID_1_" cx="305.0862" cy="789.4476" r="7.1389" gradientTransform="matrix(1.5318 0 0 1.7585 116.7055 -1080.1219)" gradientUnits="userSpaceOnUse">
				<stop  offset="0" style="stop-color:#F9836F"/>
				<stop  offset="0.7777" style="stop-color:#FDA899"/>
			</radialGradient>
			<ellipse class="st14" cx="584.04" cy="308.12" rx="11.95" ry="11.26"/>
			<ellipse class="st15" cx="586.08" cy="296.54" rx="3.07" ry="4.17"/>
			<path class="st6" d="M598.98,288.15c-0.01,0.02-0.01,0.05-0.02,0.07c-0.05,0.28,0.1,0.56,0.25,0.82c1.12,1.9,2.55,3.87,2.19,5.93
				c-0.32,1.87-2.07,3.44-2.75,5.26c-0.43,1.15-0.39,2.39,0.07,3.53c0.19,0.47,1.63,3.05,2.45,1.52c0.18-0.34,0.04-0.73-0.2-1.05
				c-0.23-0.32-0.56-0.61-0.77-0.94c-0.51-0.8-0.3-1.77,0.17-2.58s1.18-1.55,1.69-2.35c1.03-1.61,1.24-3.47,0.86-5.23
				c-0.38-1.76-1.34-3.43-2.54-4.97c-0.16-0.2-0.36-0.42-0.67-0.46C599.38,287.67,599.07,287.9,598.98,288.15z"/>
			
				<radialGradient id="SVGID_00000119799826364358535270000005011704641072219831_" cx="-1011.2026" cy="789.4476" r="7.139" gradientTransform="matrix(-1.4847 0 0 1.7585 -883.0191 -1080.1219)" gradientUnits="userSpaceOnUse">
				<stop  offset="0" style="stop-color:#F9836F"/>
				<stop  offset="0.7777" style="stop-color:#FDA899"/>
			</radialGradient>
			
				<ellipse style="fill:url(#SVGID_00000119799826364358535270000005011704641072219831_);" cx="618.31" cy="308.12" rx="11.59" ry="11.26"/>
			<ellipse class="st15" cx="616.5" cy="296.54" rx="3.07" ry="4.17"/>
			<path class="st6" d="M599.14,288.15c-0.01,0.02-0.01,0.05-0.02,0.07c-0.05,0.28,0.1,0.56,0.25,0.82c1.12,1.9,2.55,3.87,2.19,5.93
				c-0.32,1.87-2.07,3.44-2.75,5.26c-0.43,1.15-0.39,2.39,0.07,3.53c0.19,0.47,1.63,3.05,2.45,1.52c0.18-0.34,0.04-0.73-0.2-1.05
				c-0.23-0.32-0.56-0.61-0.77-0.94c-0.51-0.8-0.3-1.77,0.17-2.58s1.18-1.55,1.69-2.35c1.03-1.61,1.24-3.47,0.86-5.23
				c-0.38-1.76-1.34-3.43-2.54-4.97c-0.16-0.2-0.36-0.42-0.67-0.46C599.55,287.67,599.23,287.9,599.14,288.15z"/>
			<path class="st17" d="M595.71,310.99c0.11,0.14,0.21,0.29,0.32,0.42c0.58,0.75,1.47,1.22,2.39,1.46
				c0.92,0.24,1.88,0.26,2.83,0.26c0.99,0,2-0.02,2.97-0.25c0.97-0.22,1.92-0.66,2.61-1.37c0.25-0.26,0.51-0.58,0.87-0.63
				c0.46-0.06,0.87,0.41,0.87,0.88c0,0.89-0.92,1.4-1.59,1.77c-0.79,0.43-1.63,0.77-2.5,1.01c-1.74,0.48-3.59,0.58-5.37,0.28
				c-0.93-0.15-1.86-0.41-2.68-0.87c-0.82-0.47-1.54-1.15-1.92-2.01c-0.11-0.24-0.19-0.5-0.16-0.76c0.03-0.26,0.18-0.52,0.43-0.61
				c0.26-0.09,0.54,0.03,0.75,0.21C595.59,310.84,595.65,310.91,595.71,310.99z"/>
			<path class="st18" d="M643.41,267.04c-0.35,8.99-3.21,18.64-10.61,23.74c-0.01-2.07-0.02-4.14-0.04-6.2
				c-11.47-0.99-22.72-4.44-32.78-10.05c0.02,2.99,0.64,5.98,1.82,8.73c-7.96-1.49-15.3-6.03-20.2-12.49
				c-0.47,3.19-0.18,6.49,0.84,9.55c-4.79,0.93-9.96-0.31-13.81-3.32c0.62,6.06,0.55,12.18-0.22,18.22
				c-6.63-5.89-10.68-14.38-12-23.15c-0.78-5.2-0.64-10.5,0.19-15.68c0.09-0.59,0.2-1.18,0.31-1.77c0.5-2.61,0.93-5.93,2.18-8.3
				c0.56-1.04,1.21-2.1,1.89-3.13c0.53-0.8,1.08-1.58,1.61-2.34c7.21-10.2,18.76-17.28,31.17-18.8c9.37-1.15,19.05,0.76,27.41,5.14
				c7.21,3.77,13.53,9.45,17.41,16.6c0.4,0.73,0.76,1.47,1.11,2.22c1.37,3,2.33,6.18,2.94,9.44c0.33,1.78,0.56,3.58,0.69,5.39
				C643.46,262.93,643.49,264.99,643.41,267.04z"/>
			<path class="st19" d="M578.83,238.01c0,0-7.81,17.01,0.73,32.2h1.4C580.96,270.21,572.7,260.4,578.83,238.01z"/>
			<path class="st19" d="M636.73,256.69c0,0,7.2,14.09,1.95,27.03C638.68,283.73,641.3,267.43,636.73,256.69z"/>
			<path class="st19" d="M591.96,238.41c0,0-2.92,27.26,8.37,35.92l-1.36-2.53C598.97,271.79,592.26,264.01,591.96,238.41z"/>
			<path class="st19" d="M562.74,257.74c0.04-0.39-4.23,25.6,4.89,37.33C567.63,295.07,561.18,273.71,562.74,257.74z"/>
			<path class="st20" d="M619.84,233.84c0,0,15.33,16.69,13.87,37.84C633.71,271.68,632.11,251.51,619.84,233.84z"/>
			<path class="st20" d="M587.87,226.58c-6.61,2.79-13.58,5.86-17.62,11.78c-3.13,4.59-4.08,10.37-3.91,15.93
				c0.17,5.56,1.36,11.02,2.15,16.53c-1.28-8.97-1.09-17.54,2.23-26.11C573.79,236.76,580.45,230.55,587.87,226.58z"/>
			<path class="st20" d="M587.87,233.84c0,0-11.44,22.32,4.42,39.05C592.3,272.89,582.04,252.97,587.87,233.84z"/>
			<path class="st20" d="M605.68,229.32c0,0,11.53,15.19,14.16,38.55C619.84,267.86,620.72,243.92,605.68,229.32z"/>
			<path class="st19" d="M600.91,254.72c0,0,1.91,19.97,11.76,24.93C612.67,279.65,602.81,268.19,600.91,254.72z"/>
			<path class="st19" d="M610.4,246.22c0,0,5.28,29.2,13.29,36.2C623.69,282.42,613.18,261.26,610.4,246.22z"/>
			<path class="st19" d="M611.28,267.19c0,0,1.19,10.86,6.65,14.51C617.93,281.7,612.45,272.1,611.28,267.19z"/>
			<path class="st0" d="M643.91,264.01v6.71c-14.41-14.31-29.31-18.82-42.67-18.54c-0.37,0.01-0.75,0.02-1.11,0.03
				c-0.22,0.01-0.43,0.02-0.64,0.03c-0.26,0.01-0.52,0.03-0.79,0.05c-0.34,0.02-0.69,0.05-1.03,0.08c-0.22,0.02-0.44,0.03-0.65,0.06
				c-0.1,0.01-0.22,0.02-0.32,0.03c-0.25,0.02-0.5,0.05-0.75,0.08c-0.84,0.09-1.68,0.2-2.51,0.34c-0.65,0.1-1.3,0.21-1.94,0.33
				c-0.35,0.06-0.69,0.13-1.04,0.2c-0.69,0.14-1.37,0.29-2.04,0.45c-0.31,0.08-0.62,0.15-0.92,0.23c-0.39,0.1-0.77,0.2-1.16,0.31
				c-0.31,0.08-0.61,0.17-0.91,0.26c-0.26,0.07-0.51,0.15-0.76,0.22c-0.76,0.23-1.52,0.47-2.26,0.72c-0.27,0.09-0.55,0.19-0.82,0.29
				c-2.2,0.76-4.29,1.61-6.27,2.51c-0.26,0.12-0.53,0.24-0.79,0.37c-2.77,1.28-5.29,2.64-7.54,3.97c-0.22,0.13-0.44,0.26-0.66,0.4
				c-0.22,0.13-0.44,0.26-0.65,0.4c-0.22,0.13-0.43,0.26-0.63,0.39c-0.2,0.13-0.41,0.26-0.61,0.39c-2.66,1.69-4.8,3.25-6.32,4.44
				c-0.21,0.16-0.41,0.32-0.6,0.47c-0.72,0.57-1.26,1.03-1.61,1.32c-0.2,0.17-0.33,0.29-0.41,0.36c-0.02,0.02-0.03,0.03-0.04,0.04
				c-0.01,0.01-0.02,0.01-0.02,0.01l-0.01,4.02v-10.95c0-9.04,2.77-17.47,7.51-24.47c6.25-9.24,15.92-16,27.16-18.42
				c2.97-0.64,6.05-0.98,9.2-0.98h0.73c6.67,0,13.01,1.51,18.69,4.21C633.57,231.39,643.91,246.55,643.91,264.01z"/>
			<path class="st2" d="M644.12,270.93v4.01c-0.07-0.07-0.15-0.14-0.22-0.21c-0.08-0.08-0.15-0.15-0.23-0.22
				c-1.46-1.4-2.94-2.71-4.4-3.92c-4.59-3.78-9.2-6.66-13.78-8.78c-3.9-1.82-7.76-3.09-11.56-3.91c-23.5-5.1-44.47,6.87-53.86,13.51
				c-2.13,1.5-3.65,2.72-4.48,3.41c-0.06,0.05-0.11,0.1-0.16,0.14l0.01-4.02c0,0,0.01-0.01,0.02-0.01c0.01-0.01,0.02-0.02,0.04-0.04
				c0.08-0.06,0.21-0.19,0.41-0.36c0.35-0.3,0.89-0.75,1.61-1.32c0.19-0.15,0.39-0.31,0.6-0.47c1.53-1.19,3.67-2.75,6.32-4.44
				c0.2-0.13,0.41-0.26,0.61-0.39c0.21-0.13,0.42-0.26,0.63-0.39c0.21-0.13,0.43-0.26,0.65-0.4c0.22-0.13,0.44-0.26,0.66-0.4
				c2.25-1.33,4.78-2.69,7.54-3.97c0.26-0.12,0.53-0.24,0.79-0.37c1.98-0.9,4.08-1.75,6.27-2.51c0.27-0.1,0.54-0.19,0.82-0.29
				c0.74-0.25,1.5-0.49,2.26-0.72c0.25-0.08,0.5-0.15,0.76-0.22c0.3-0.09,0.6-0.17,0.91-0.26c0.38-0.11,0.77-0.21,1.16-0.31
				c0.3-0.08,0.61-0.15,0.92-0.23c0.68-0.16,1.36-0.31,2.04-0.45c0.34-0.07,0.69-0.14,1.04-0.2c0.64-0.12,1.29-0.23,1.94-0.33
				c0.83-0.13,1.67-0.24,2.51-0.34c0.25-0.03,0.49-0.06,0.75-0.08c0.1-0.01,0.22-0.02,0.32-0.03c0.22-0.02,0.44-0.04,0.65-0.06
				c0.34-0.03,0.68-0.06,1.03-0.08c0.26-0.02,0.52-0.03,0.79-0.05c0.21-0.01,0.43-0.02,0.64-0.03c0.37-0.02,0.74-0.03,1.11-0.03
				c13.36-0.27,28.25,4.23,42.67,18.54l0.01,0.01L644.12,270.93z"/>
			<path class="st21" d="M638.01,276.91c-0.62,1.14-1.53,2.1-2.87,2.63c-5.32,2.12-8.74-10.3-35.48-10.93
				c-26.75,0.62-30.17,13.05-35.49,10.93c-1.52-0.61-2.5-1.76-3.11-3.11c0.31,0.2,0.63,0.37,1,0.51
				c5.68,2.27,9.34-11.01,37.94-11.68c28.59,0.67,32.25,13.95,37.93,11.68C637.96,276.93,637.99,276.92,638.01,276.91z"/>
			<path class="st0" d="M639.25,268.09L639.25,268.09c-7.38-6.27-14.82-10.13-22.06-12.25c-16.05-4.7-31.14-0.87-42.4,4.29
				c-6.15,2.82-11.16,6.04-14.55,8.49l-0.01,0.01c0,0-0.3,1.93-0.07,4.2c0.12,1.19,0.38,2.47,0.91,3.61c0.31,0.2,0.63,0.37,1,0.51
				c5.68,2.27,9.34-11.01,37.94-11.68c28.59,0.67,32.25,13.95,37.93,11.68c0.03-0.01,0.06-0.02,0.08-0.04
				c0.8-1.46,1.11-3.21,1.2-4.72C639.34,270.2,639.25,268.09,639.25,268.09z"/>
			<path class="st6" d="M562.08,413.98c0,0-8.01,15.8-13.65,16.36c-5.64,0.56-23.13-16.36-23.13-16.36H562.08z"/>
			<g>
				
					<linearGradient id="SVGID_00000021090373519837307290000007634050170885165736_" gradientUnits="userSpaceOnUse" x1="646.9635" y1="471.3629" x2="589.3983" y2="371.657">
					<stop  offset="0" style="stop-color:#F4995B"/>
					<stop  offset="0.3784" style="stop-color:#F69D60"/>
					<stop  offset="0.8308" style="stop-color:#FCAA6F"/>
					<stop  offset="1" style="stop-color:#FFB176"/>
				</linearGradient>
				<polygon style="fill:url(#SVGID_00000021090373519837307290000007634050170885165736_);" points="566.92,458.38 669.44,458.38 
					669.44,384.64 566.92,384.64 				"/>
				
					<linearGradient id="SVGID_00000053541646888018481270000012694797894605122178_" gradientUnits="userSpaceOnUse" x1="667.1991" y1="459.6799" x2="623.1243" y2="383.3401">
					<stop  offset="0" style="stop-color:#A04B42"/>
					<stop  offset="0.2614" style="stop-color:#AD584C"/>
					<stop  offset="0.6264" style="stop-color:#B86454"/>
					<stop  offset="1" style="stop-color:#BC6857"/>
				</linearGradient>
				<polygon style="fill:url(#SVGID_00000053541646888018481270000012694797894605122178_);" points="620.88,458.38 669.44,458.38 
					669.44,384.64 620.88,384.64 				"/>
				
					<rect x="638.42" y="384.64" transform="matrix(-1 -1.224647e-16 1.224647e-16 -1 1290.3232 795.8561)" class="st24" width="13.49" height="26.58"/>
				
					<rect x="586" y="384.64" transform="matrix(-1 -1.224647e-16 1.224647e-16 -1 1185.4872 795.8561)" class="st25" width="13.49" height="26.58"/>
			</g>
			<path class="st12" d="M652.83,407.54c0,0-12.52,31.88-25.99,40.98c0,0-9.11-0.38-14.42,0s-7.97,1.71-7.59,2.85
				c0.38,1.14,8.35,3.04,8.35,3.04s-5.76,2.85-8.38,3.42c-2.62,0.57-8.88,0-8.88,0s-0.76,1.71,2.47,3.42
				c3.23,1.71,13.28,4.36,16.32,4.36s17.46-8.35,19.16-10.06c1.71-1.71,31.31-26.37,36.05-48.76c0,0,1.04-8.74-2.56-14.24
				c-3.61-5.5-8.75-12.63-8.75-12.63l-12.95,10.46C645.64,390.37,654.85,402.74,652.83,407.54z"/>
			<path class="st26" d="M492.46,383.4l-13.34-18.74h58.03l27.54,47.33c0,0,0.14,3.15-1.94,3.67h-45.43c0,0-2.78,0.35-5-3.15
				l-11.74-16.98L492.46,383.4z"/>
			<path class="st10" d="M665.79,388.21l-2.47,1.44l-15.98,9.32l-2.66,1.55c0,0-28.82-39.1-15.84-53.25c0,0,11.03-0.76,21.19,15.29
				C660.18,378.62,665.79,388.21,665.79,388.21z"/>
			<path class="st6" d="M501.83,386.16c0.5,0.02,0.83-0.47,0.78-0.99c-0.05-0.51-0.38-1-0.76-1.39c-1.32-1.35-3.21-1.78-4.95-1.99
				c-1.82-0.22-3.64-0.29-5.46-0.33c-0.04,0-0.08,0-0.11,0l-1.36-1.62c0,0-0.48,0.9-0.87,2.04c-0.44,1.32-0.72,2.89,0.19,3.47
				c1.69,1.08,1.8,3.55,3.08,4.02c0.36,0.13,0.65,0.46,0.91,0.88c0.49,1.03,0.87,2.35,1.74,2.76c0.13,0.1,0.26,0.18,0.41,0.22
				c0.03,0.01,0.07,0.03,0.1,0.04c1.19,0.72,2.5,2.38,3.83,2.31c0.07-0.03,0.14-0.06,0.22-0.08c0.08,0,0.15,0,0.23-0.01
				c0.12-0.01,0.24-0.04,0.36-0.09c0,0,0.7-0.23,1.38-0.71c0.21-0.1,0.42-0.2,0.63-0.3c0.53-0.26,1.07-0.57,1.31-1.11
				c0.25-0.54,0.06-1.38-0.54-1.7c0.79-0.1,1.41-0.62,1.71-1.33c0.19-0.44,0.25-0.96,0.15-1.48
				C504.52,387.42,503.15,386.21,501.83,386.16z"/>
			<path class="st2" d="M634.73,384.64l-5.35-12.73c0,0-2.26,7.07-2.57,12.73H634.73z"/>
		</g>
		<g>
			<path class="st27" d="M564.28,451.93l-43.2,179.62l-4.6,19.11h-12.02l4.6-19.11l8.88-36.91l32.43-134.83
				c0.65-2.72,0.74-5.31,0.33-7.68c-0.93-5.42-4.43-9.68-9.57-11.57c-1.86-0.68-3.94-1.05-6.19-1.05h-51.37
				c-8.45,0-17.01,5.24-21.83,12.63c-1.55,2.37-2.71,4.97-3.37,7.68l-5.13,21.34l-18.09,75.2l-6.52,27.11l-11.57,48.09l-4.6,19.11
				h-12.02l4.6-19.11l6.9-28.71l11.18-46.49l11.57-48.09l6.52-27.11l7.03-29.21c3.07-12.75,16.01-23.19,28.77-23.19h69.66
				C559.43,428.74,567.35,439.18,564.28,451.93z"/>
			<path class="st28" d="M243.98,650.66H463.6c4.99,0,9.06-4.08,9.06-9.06v-0.99c0-4.99-4.08-9.06-9.06-9.06H243.98
				c-4.99,0-9.06,4.08-9.06,9.06v0.99C234.92,646.58,239,650.66,243.98,650.66z"/>
			<path d="M319,655.75v-5.09h-9.61h-12.87h-9.61v5.09c-6.04,3.76-10.06,10.45-10.06,18.09c0,11.76,9.54,21.3,21.3,21.3h9.61
				c0,0,0,0,0,0c11.76,0,21.3-9.54,21.3-21.3C329.06,666.2,325.04,659.51,319,655.75z"/>
			<path class="st29" d="M565.01,636.59v9.02c0,2.78-2.46,5.05-5.47,5.05H312.93c-3.01,0-5.47-2.27-5.47-5.05v-9.02
				c0-2.77,2.46-5.05,5.47-5.05h246.62C562.55,631.55,565.01,633.82,565.01,636.59z"/>
			<path class="st27" d="M341.43,650.66v22.54c0,5.82-4.76,10.58-10.58,10.58h-1.32c-5.82,0-10.58-4.76-10.58-10.58v-22.54H341.43z"
				/>
			<path class="st30" d="M351.49,673.84c0-8.3-4.76-15.49-11.69-19.01v-2.29h-9.61c-11.76,0-21.3,9.54-21.3,21.3
				c0,11.76,9.54,21.3,21.3,21.3h9.61v-2.29C346.73,689.33,351.49,682.14,351.49,673.84z"/>
			
				<ellipse transform="matrix(0.7071 -0.7071 0.7071 0.7071 -376.9493 437.635)" class="st31" cx="339.8" cy="673.84" rx="21.3" ry="21.3"/>
			<path class="st32" d="M351.04,650.66v22.54c0,5.82-4.76,10.58-10.58,10.58h-1.32c-5.82,0-10.58-4.76-10.58-10.58v-22.54H351.04z"
				/>
			
				<ellipse transform="matrix(0.2298 -0.9732 0.9732 0.2298 -394.0813 849.7277)" class="st33" cx="339.8" cy="673.84" rx="6.88" ry="6.88"/>
			<path d="M470.11,655.75v-5.09h-9.61h-12.87h-9.61v5.09c-6.04,3.76-10.06,10.45-10.06,18.09c0,11.76,9.54,21.3,21.3,21.3h9.61
				c0,0,0,0,0,0c11.76,0,21.3-9.54,21.3-21.3C480.16,666.2,476.14,659.51,470.11,655.75z"/>
			<path class="st27" d="M492.52,650.66v22.54c0,5.82-4.76,10.58-10.58,10.58h-1.32c-5.82,0-10.58-4.76-10.58-10.58v-22.54H492.52z"
				/>
			<path class="st30" d="M502.58,673.84c0-8.3-4.76-15.49-11.69-19.01v-2.29h-9.61c-11.76,0-21.3,9.54-21.3,21.3
				s9.54,21.3,21.3,21.3h9.61v-2.29C497.82,689.33,502.58,682.14,502.58,673.84z"/>
			
				<ellipse transform="matrix(0.2298 -0.9732 0.9732 0.2298 -277.7055 996.7762)" class="st31" cx="490.89" cy="673.84" rx="21.3" ry="21.3"/>
			<path class="st32" d="M502.13,650.66v22.54c0,5.82-4.76,10.58-10.58,10.58h-1.32c-5.82,0-10.58-4.76-10.58-10.58v-22.54H502.13z"
				/>
			
				<ellipse transform="matrix(0.9239 -0.3827 0.3827 0.9239 -220.4991 239.1472)" class="st33" cx="490.89" cy="673.84" rx="6.88" ry="6.88"/>
			<g>
				
					<linearGradient id="SVGID_00000100350570873284934030000008326682722472691625_" gradientUnits="userSpaceOnUse" x1="384.6109" y1="647.3244" x2="322.9729" y2="540.5643">
					<stop  offset="0" style="stop-color:#F4995B"/>
					<stop  offset="0.3784" style="stop-color:#F69D60"/>
					<stop  offset="0.8308" style="stop-color:#FCAA6F"/>
					<stop  offset="1" style="stop-color:#FFB176"/>
				</linearGradient>
				<polygon style="fill:url(#SVGID_00000100350570873284934030000008326682722472691625_);" points="295.64,631.54 411.94,631.54 
					411.94,556.34 295.64,556.34 				"/>
				
					<linearGradient id="SVGID_00000075881922873697866570000016724781393215043740_" gradientUnits="userSpaceOnUse" x1="407.5647" y1="634.072" x2="361.2293" y2="553.8167">
					<stop  offset="0" style="stop-color:#A04B42"/>
					<stop  offset="0.2614" style="stop-color:#AD584C"/>
					<stop  offset="0.6264" style="stop-color:#B86454"/>
					<stop  offset="1" style="stop-color:#BC6857"/>
				</linearGradient>
				<polygon style="fill:url(#SVGID_00000075881922873697866570000016724781393215043740_);" points="356.85,631.54 411.94,631.54 
					411.94,556.34 356.85,556.34 				"/>
				
					<rect x="376.75" y="556.34" transform="matrix(-1 -1.224647e-16 1.224647e-16 -1 768.794 1139.7949)" class="st24" width="15.3" height="27.11"/>
				
					<rect x="317.29" y="556.34" transform="matrix(-1 -1.224647e-16 1.224647e-16 -1 649.8751 1139.7949)" class="st25" width="15.3" height="27.11"/>
			</g>
			<g>
				
					<linearGradient id="SVGID_00000112604312922971565440000014935744941480177289_" gradientUnits="userSpaceOnUse" x1="434.9946" y1="572.1231" x2="373.3567" y2="465.3631">
					<stop  offset="0" style="stop-color:#F4995B"/>
					<stop  offset="0.3784" style="stop-color:#F69D60"/>
					<stop  offset="0.8308" style="stop-color:#FCAA6F"/>
					<stop  offset="1" style="stop-color:#FFB176"/>
				</linearGradient>
				<polygon style="fill:url(#SVGID_00000112604312922971565440000014935744941480177289_);" points="346.03,556.34 462.33,556.34 
					462.33,481.14 346.03,481.14 				"/>
				
					<linearGradient id="SVGID_00000034070776280064566070000002931229648039242126_" gradientUnits="userSpaceOnUse" x1="457.9485" y1="558.8707" x2="411.6131" y2="478.6155">
					<stop  offset="0" style="stop-color:#A04B42"/>
					<stop  offset="0.2614" style="stop-color:#AD584C"/>
					<stop  offset="0.6264" style="stop-color:#B86454"/>
					<stop  offset="1" style="stop-color:#BC6857"/>
				</linearGradient>
				<polygon style="fill:url(#SVGID_00000034070776280064566070000002931229648039242126_);" points="407.24,556.34 462.33,556.34 
					462.33,481.14 407.24,481.14 				"/>
				
					<rect x="427.13" y="481.14" transform="matrix(-1 -1.224647e-16 1.224647e-16 -1 869.5616 989.3925)" class="st24" width="15.3" height="27.11"/>
				
					<rect x="367.67" y="481.14" transform="matrix(-1 -1.224647e-16 1.224647e-16 -1 750.6426 989.3925)" class="st25" width="15.3" height="27.11"/>
			</g>
			<g>
				
					<linearGradient id="SVGID_00000054238599986217922390000003440129656550284695_" gradientUnits="userSpaceOnUse" x1="490.606" y1="647.3247" x2="428.968" y2="540.5646">
					<stop  offset="0" style="stop-color:#F4995B"/>
					<stop  offset="0.3784" style="stop-color:#F69D60"/>
					<stop  offset="0.8308" style="stop-color:#FCAA6F"/>
					<stop  offset="1" style="stop-color:#FFB176"/>
				</linearGradient>
				<polygon style="fill:url(#SVGID_00000054238599986217922390000003440129656550284695_);" points="401.64,631.55 517.94,631.55 
					517.94,556.34 401.64,556.34 				"/>
				
					<linearGradient id="SVGID_00000094580815459265450220000011598851881786653335_" gradientUnits="userSpaceOnUse" x1="513.5598" y1="634.0723" x2="467.2245" y2="553.8171">
					<stop  offset="0" style="stop-color:#A04B42"/>
					<stop  offset="0.2614" style="stop-color:#AD584C"/>
					<stop  offset="0.6264" style="stop-color:#B86454"/>
					<stop  offset="1" style="stop-color:#BC6857"/>
				</linearGradient>
				<polygon style="fill:url(#SVGID_00000094580815459265450220000011598851881786653335_);" points="462.85,631.55 517.94,631.55 
					517.94,556.34 462.85,556.34 				"/>
				
					<rect x="482.74" y="556.34" transform="matrix(-1 -1.224647e-16 1.224647e-16 -1 980.7843 1139.7955)" class="st24" width="15.3" height="27.11"/>
				
					<rect x="423.28" y="556.34" transform="matrix(-1 -1.224647e-16 1.224647e-16 -1 861.8652 1139.7955)" class="st25" width="15.3" height="27.11"/>
			</g>
		</g>
	</g>
	<g>
		<path class="st40" d="M682.58,203.75c15.96-5.89,33.67,2.27,39.56,18.23c5.89,15.96-2.27,33.67-18.23,39.56
			c-9.04,3.33-18.63,2.16-26.33-2.38l-10.49,5.08l2.29-12.12c-2.1-2.57-3.82-5.53-5.04-8.82
			C658.46,227.36,666.62,209.64,682.58,203.75z"/>
		<g>
			<path class="st0" d="M692.89,216.15c-8.81,0-10.51,7.27-10.51,7.47l5.81,2.81c0.43-1.7,1.82-4.07,4.66-4.07
				c1.78,0,3.2,1.34,3.2,3.24c0,2.81-2.25,2.92-4.66,4.47c-1.78,1.15-1.86,2.57-1.86,4.31v4.31h6.52v-2.21c0-1.3,0.04-2.41,1.38-3
				c3.79-1.62,6.68-3.99,6.68-7.86C704.11,220.02,698.82,216.15,692.89,216.15z"/>
			<path class="st0" d="M692.77,240.89c-2.49,0-4.51,2.02-4.51,4.54c0,2.49,2.02,4.51,4.51,4.51c2.53,0,4.54-2.02,4.54-4.51
				C697.32,242.91,695.3,240.89,692.77,240.89z"/>
		</g>
	</g>
</g>
<line class="st41" x1="218.41" y1="696.14" x2="741.06" y2="696.14"/>
</svg>
