 <svg
      xmlns="http://www.w3.org/2000/svg"
      viewBox="0 0 40 40"
      width="40"
      height="40"
      fill="none"
    >
      <rect width="40" height="40" rx="4" fill="#058E49"></rect>
      <path
        d="M3 25.2743C3.49142 25.0593 4.02379 25.0286 4.55616 24.9979C5.88341 24.8954 7.2176 24.9263 8.53869 25.09C8.73442 25.1052 8.92724 25.1465 9.11201 25.2129C9.1632 25.2436 9.22463 25.2538 9.23487 25.3255C9.24511 25.3972 9.1632 25.4279 9.10178 25.4483C8.88078 25.5273 8.64997 25.5756 8.41584 25.5917C6.74706 25.7657 5.08853 25.7964 3.42999 25.5302C3.27981 25.5008 3.13488 25.449 3 25.3767L3 25.2743Z"
        fill="#030303"
      ></path>
      <path d="M24.1311 4V4.05119H22.9026V4H24.1311Z" fill="#766A66"></path>
      <path
        d="M22.9025 4.05115H24.1311C25.5644 4.14329 26.9056 4.52209 28.0317 5.4435C28.7279 6.01682 29.2193 6.72323 29.4343 7.60369C29.4458 7.66736 29.4765 7.72599 29.5222 7.77173C29.568 7.81747 29.6266 7.84815 29.6903 7.85964C30.4749 8.04831 31.2319 8.33735 31.9426 8.71962C32.2639 8.88805 32.5518 9.11354 32.7923 9.38508C33.2018 9.8765 33.1814 10.4703 32.7309 10.931C32.2804 11.3917 32.045 11.4429 31.6354 11.6067C31.2259 11.7705 31.0416 11.8422 30.7448 11.9446C30.6321 11.9753 30.6117 12.0265 30.6219 12.1391C30.8983 14.3812 30.0179 16.1728 28.431 17.6675C28.2058 17.8825 28.1853 18.1078 28.3798 18.3535C28.431 18.4149 28.4617 18.3944 28.5027 18.3637C28.5436 18.333 28.8405 18.2204 29.0248 18.2204H36.0787L36.4472 18.1999C36.8056 18.1794 37.0001 18.3739 37.0001 18.722V25.6019C36.9899 26.7792 37.1229 26.4721 36.2118 27.1683L33.9594 28.8678C33.8524 28.9535 33.7177 28.9972 33.5806 28.9906H26.107C26.0594 28.9873 26.0116 28.9949 25.9673 29.0126C25.923 29.0303 25.8833 29.0578 25.851 29.093C25.5823 29.3822 25.2876 29.646 24.9706 29.8813C24.8887 29.9428 24.8682 29.9939 24.9296 30.0861C25.6975 31.3146 26.4551 32.5432 27.2127 33.7717C27.2844 33.8843 27.3355 33.8946 27.4482 33.8331L28.7484 33.1574C29.1476 32.9629 29.6186 33.1472 29.8438 33.5772C30.0691 34.0072 29.9564 34.5088 29.5469 34.7238L27.397 35.8398C26.9465 36.065 26.496 35.9217 26.2094 35.4507C25.404 34.1608 24.602 32.8708 23.8035 31.5808C23.6601 31.3351 23.5578 31.0177 23.353 30.8949C23.1483 30.772 22.8411 31.0075 22.5852 31.0792C20.9062 31.5091 19.2886 31.2839 17.7222 30.598C17.5072 30.5058 17.415 30.5365 17.3024 30.7311C17.067 31.1201 16.811 31.4887 16.5653 31.8675C16.3196 32.2463 15.951 32.4306 15.4494 32.3282L12.5725 31.7344C12.3678 31.6832 12.2756 31.7344 12.1835 31.9289C11.9173 32.5125 11.6204 33.0858 11.3337 33.6591C11.0471 34.2324 10.5454 34.386 10.0028 34.13C9.88254 34.0745 9.77486 33.995 9.6864 33.8964C9.59793 33.7978 9.53054 33.6822 9.48836 33.5566C9.44618 33.431 9.4301 33.2982 9.44111 33.1661C9.45211 33.0341 9.48997 32.9057 9.55236 32.7889C10.0131 31.9084 10.4635 31.0177 10.873 30.1066C11.0573 29.6766 11.3849 29.5128 11.8456 29.6049L15.0296 30.2704C15.2037 30.3113 15.306 30.2908 15.3879 30.127C15.4698 29.9632 15.7667 29.7073 15.736 29.5332C15.7053 29.3592 15.4084 29.2363 15.2241 29.0828C13.9956 28.0795 13.0639 26.8816 12.6032 25.3459C12.0914 23.6055 12.3268 21.9265 13.0537 20.2987C13.7398 18.7615 14.7654 17.3999 16.0534 16.3161C16.1967 16.2035 16.2479 16.1114 16.166 15.9169C15.7753 14.9017 15.6968 13.7929 15.9408 12.7329C15.9613 12.6305 15.9817 12.5588 15.8691 12.4872C15.3265 12.0981 15.1218 11.5248 15.0399 10.8798C14.8556 9.40556 15.4084 8.16678 16.3605 7.0918C17.7017 5.54588 19.4524 4.69613 21.4181 4.24567C21.9067 4.14003 22.4032 4.07497 22.9025 4.05115ZM25.503 22.8581C25.503 22.1722 25.503 21.5579 25.4927 20.9334C25.4863 20.8291 25.5076 20.7249 25.5543 20.6315C25.601 20.538 25.6716 20.4585 25.7589 20.401C26.3015 20.0222 26.8236 19.623 27.356 19.2135C27.6017 19.0292 27.3663 18.8449 27.3048 18.6811C27.2434 18.5173 27.1205 18.6504 27.0386 18.6913C25.247 19.6946 23.3428 20.0837 21.3157 19.7765C19.5445 19.5001 18.0396 18.722 16.9236 17.2887C16.811 17.1454 16.7496 17.1659 16.637 17.2683C15.5164 18.2608 14.6225 19.4829 14.0161 20.8515C13.4735 22.1005 13.2687 23.4007 13.5963 24.7521C13.9854 26.3493 14.9784 27.5266 16.2582 28.489C16.3913 28.5913 16.4322 28.5197 16.4936 28.4173L17.8143 26.4004C18.1419 25.8988 18.7255 25.7555 19.176 26.0524C19.6264 26.3493 19.7595 26.9533 19.4319 27.4549L18.1726 29.3899C18.1215 29.482 18.06 29.5537 18.2136 29.6151C19.4421 30.1168 20.7116 30.3523 22.0426 30.0656C23.3735 29.7789 24.4792 28.9906 25.3903 27.9668C25.4707 27.8733 25.5111 27.752 25.503 27.629V25.264C25.5098 25.1969 25.497 25.1292 25.4661 25.0693C25.4352 25.0093 25.3876 24.9596 25.3289 24.9262L23.0561 23.3291C22.6159 23.0219 22.5442 22.5203 22.8514 22.0801C22.9156 21.9794 23.0004 21.8934 23.1001 21.8277C23.1998 21.762 23.3123 21.718 23.4301 21.6987C23.548 21.6794 23.6686 21.6851 23.7841 21.7156C23.8996 21.746 24.0073 21.8004 24.1004 21.8753L25.503 22.8581ZM23.4861 5.12612C21.9067 5.13827 20.3577 5.56169 18.9917 6.35467C17.9167 6.97918 17.0158 7.78797 16.4629 8.92438C16.1075 9.60489 16.0199 10.3938 16.2172 11.1358C16.2684 11.3098 16.3401 11.3917 16.5448 11.3815C17.2103 11.361 17.886 11.2893 18.5412 11.2177C20.1322 11.0257 21.7064 10.7143 23.2506 10.286C24.9569 9.82533 26.6055 9.17277 28.1648 8.34082C28.3696 8.23844 28.4515 8.13606 28.3798 7.89035C28.1341 7.04061 27.6017 6.43657 26.8748 5.98611C25.851 5.35136 24.7146 5.1466 23.4861 5.12612ZM25.7999 18.077L25.7794 18.0463H25.4313C24.3154 18.077 23.2916 17.8109 22.4726 16.9816C22.063 16.5721 22.063 16.5618 22.534 16.2342L22.5749 16.2138C22.6773 16.1011 22.7592 16.1114 22.8616 16.2445C23.2407 16.7224 23.7781 17.0491 24.3768 17.1659C25.2061 17.3502 26.0251 17.2068 26.8441 17.0328C27.6632 16.8587 28.1955 16.439 28.6255 15.7838C29.2603 14.8316 29.6288 13.8078 29.5776 12.651C29.5572 12.3336 29.5572 12.3336 29.25 12.4257C26.4858 13.2243 23.6806 13.7874 20.7833 13.7259C19.6951 13.7187 18.6132 13.5602 17.5686 13.255C17.3843 13.1936 17.1489 12.9991 17.0158 13.1219C16.8827 13.2448 16.9236 13.5007 16.9134 13.7055C16.852 15.5278 17.6608 16.8997 19.176 17.8313C20.6912 18.763 22.5442 18.9575 24.3563 18.5582C24.8547 18.455 25.3392 18.2935 25.7999 18.077ZM26.3834 25.6633V27.9259C26.3834 28.0692 26.4346 28.0999 26.5677 28.0999H32.9971C33.1404 28.0999 33.1814 28.059 33.1814 27.9259V21.4658C33.1814 21.3225 33.1404 21.2917 32.9971 21.2917H26.5677C26.4039 21.2815 26.3834 21.3429 26.3834 21.4863C26.3937 21.8651 26.3834 22.2439 26.3834 22.6124C26.3834 22.981 26.3015 23.2369 26.4244 23.4622C26.5472 23.6874 26.8646 23.8 27.0898 23.9843C27.1415 24.0284 27.2053 24.056 27.2729 24.0633C27.3405 24.0706 27.4087 24.0573 27.4686 24.0253L29.2193 23.4007C29.6698 23.2472 30.1202 23.4826 30.2943 23.9536C30.4683 24.4245 30.2943 24.9262 29.8438 25.1002L27.397 25.9705C27.2682 26.0256 27.1263 26.0423 26.9883 26.0187C26.8503 25.9951 26.722 25.9321 26.6189 25.8374L26.3834 25.6633ZM18.5719 12.3438V12.3848L18.8893 12.4564C20.3738 12.7226 21.8583 12.6714 23.353 12.5179C25.3602 12.2872 27.3413 11.869 29.2705 11.2689C30.0691 11.0231 30.8778 10.7774 31.6252 10.3782C32.045 10.1632 32.045 10.071 31.6457 9.82531C30.97 9.4158 30.2431 9.17009 29.4957 8.94485C29.3831 8.9039 29.3217 8.96533 29.25 9.00628C28.9122 9.18033 28.5948 9.37485 28.2569 9.54889C25.4825 10.9617 22.5237 11.7807 19.4524 12.2107L18.5719 12.3438ZM36.1094 19.5411C35.4644 20.0325 34.8604 20.4932 34.2563 20.9334C34.195 20.9723 34.1455 21.0271 34.113 21.0921C34.0805 21.157 34.0664 21.2296 34.0721 21.302C34.0823 23.3393 34.0823 25.3767 34.0823 27.414C34.0823 27.4754 34.0516 27.5573 34.1232 27.629L35.9456 26.2674C36.0034 26.233 36.0503 26.1831 36.0811 26.1234C36.1119 26.0637 36.1252 25.9965 36.1196 25.9295C36.1094 23.8922 36.1094 21.8548 36.1094 19.8175V19.5411ZM35.1573 19.1418L35.0856 19.1111H29.1476C29.032 19.1109 28.9199 19.1507 28.8303 19.2237L27.4584 20.2577C27.4174 20.2884 27.3253 20.2987 27.3458 20.401C29.1169 20.401 30.8983 20.3703 32.6695 20.4113C33.2428 20.4215 33.7137 20.2987 34.1437 19.9096C34.5737 19.5206 34.8092 19.3977 35.1573 19.1418Z"
        fill="#010101"
      ></path>
      <path
        d="M10.4122 11.9958C9.52146 11.9753 8.63076 11.9753 7.7503 11.8115C7.5865 11.7808 7.32031 11.7808 7.32031 11.617C7.32031 11.4532 7.57626 11.4429 7.72983 11.4122C8.38066 11.285 9.0426 11.2232 9.70574 11.2279C10.7705 11.2075 11.8352 11.2075 12.8897 11.3713C13.0352 11.3957 13.1788 11.4299 13.3197 11.4736C13.3914 11.4941 13.504 11.5044 13.504 11.5965C13.504 11.6886 13.3914 11.7296 13.3095 11.7501C13.0187 11.8318 12.7202 11.8833 12.4188 11.9036C11.7533 11.9753 11.0776 11.9753 10.4122 11.9958Z"
        fill="#030303"
      ></path>
      <path
        d="M9.12238 15.0569C8.06788 15.0569 7.1567 15.0365 6.26601 14.8624C6.12268 14.8317 5.88721 14.8419 5.88721 14.6679C5.88721 14.4939 6.12268 14.5143 6.26601 14.4836C6.92784 14.361 7.59953 14.2993 8.27263 14.2993C9.37833 14.2789 10.4943 14.2686 11.5897 14.4631C11.7106 14.4878 11.8302 14.5186 11.948 14.5553C12.0095 14.5758 12.0811 14.5962 12.0811 14.6781C12.0811 14.76 11.9992 14.7805 11.948 14.801C11.5377 14.9164 11.1148 14.9817 10.6888 14.9955C10.1685 15.0489 9.64528 15.0694 9.12238 15.0569Z"
        fill="#030303"
      ></path>
      <path
        d="M8.37494 27.5881C9.40897 27.5778 10.3918 27.5881 11.3746 27.7826C11.5077 27.8133 11.733 27.8133 11.7227 27.9669C11.7125 28.1204 11.4975 28.1307 11.3644 28.1511C10.6837 28.2878 9.99059 28.353 9.29635 28.3457C8.2009 28.3661 7.10544 28.3661 6.02023 28.1819L5.64143 28.0795C5.59024 28.059 5.52881 28.0283 5.52881 27.9669C5.52881 27.9054 5.59024 27.8747 5.64143 27.8542C5.89564 27.7645 6.1608 27.7094 6.42974 27.6904C7.07544 27.6166 7.72506 27.5824 8.37494 27.5881Z"
        fill="#030303"
      ></path>
      <path
        d="M25.5028 22.8582L24.1002 21.8754C24.0072 21.8005 23.8994 21.746 23.7839 21.7156C23.6684 21.6852 23.5478 21.6795 23.43 21.6988C23.3121 21.7181 23.1996 21.762 23.0999 21.8278C23.0002 21.8935 22.9154 21.9794 22.8512 22.0801C22.544 22.5203 22.6157 23.022 23.0559 23.3291L25.3287 24.9262C25.3874 24.9596 25.435 25.0093 25.4659 25.0693C25.4968 25.1293 25.5096 25.197 25.5028 25.2641V27.629C25.5109 27.7521 25.4705 27.8734 25.3902 27.9669C24.479 28.9907 23.4143 29.7688 22.0424 30.0657C20.6705 30.3626 19.442 30.1168 18.2134 29.6152C18.0598 29.5538 18.1213 29.4821 18.1725 29.39L19.4317 27.455C19.7593 26.9533 19.6467 26.38 19.1758 26.0524C18.7048 25.7248 18.1418 25.8988 17.8141 26.4005L16.4935 28.4174C16.432 28.5197 16.3911 28.5914 16.258 28.489C14.9782 27.5267 13.9852 26.3493 13.5961 24.7522C13.2685 23.4008 13.4733 22.1006 14.0159 20.8516C14.6223 19.4829 15.5162 18.2609 16.6368 17.2683C16.7494 17.1659 16.8108 17.1454 16.9234 17.2888C18.0394 18.7221 19.5443 19.5002 21.3155 19.7766C23.3426 20.0837 25.2468 19.6947 27.0385 18.6914C27.1204 18.6504 27.2432 18.4866 27.3047 18.6811C27.3661 18.8757 27.6016 19.0292 27.3558 19.2135C26.8235 19.623 26.3013 20.0223 25.7587 20.4011C25.6714 20.4586 25.6009 20.538 25.5541 20.6315C25.5074 20.725 25.4861 20.8292 25.4925 20.9335C25.5028 21.558 25.5028 22.1722 25.5028 22.8582Z"
        fill="#058E49"
      ></path>
      <path
        d="M23.4859 5.12622C24.7144 5.1467 25.8508 5.35145 26.8746 5.9862C27.6015 6.43667 28.1339 7.0407 28.3796 7.89045C28.4512 8.13616 28.3693 8.23854 28.1646 8.34091C26.6053 9.17286 24.9567 9.82543 23.2504 10.2861C21.7062 10.7144 20.1319 11.0258 18.541 11.2178C17.8858 11.2894 17.2101 11.3611 16.5446 11.3816C16.3398 11.3918 16.2682 11.3099 16.217 11.1359C16.0196 10.3939 16.1073 9.60498 16.4627 8.92447C17.0155 7.78807 17.9165 6.97928 18.9915 6.35477C20.3574 5.56178 21.9065 5.13836 23.4859 5.12622Z"
        fill="#058E49"
      ></path>
      <path
        d="M25.7998 18.077C25.3396 18.2969 24.8551 18.4619 24.3562 18.5684C22.5441 18.9677 20.7832 18.8346 19.1759 17.8415C17.5685 16.8484 16.8519 15.538 16.9133 13.7157C16.9235 13.5109 16.9031 13.2345 17.0157 13.1321C17.1283 13.0297 17.3842 13.2038 17.5685 13.2652C18.6131 13.5704 19.695 13.7289 20.7832 13.7361C23.6805 13.7976 26.4857 13.2345 29.2499 12.4359C29.5571 12.3438 29.5571 12.3438 29.5775 12.6612C29.6287 13.818 29.2602 14.8418 28.6254 15.7939C28.1954 16.4492 27.6324 16.8792 26.844 17.043C26.0557 17.2068 25.206 17.3603 24.3767 17.1761C23.778 17.0593 23.2406 16.7325 22.8615 16.2546C22.7591 16.1216 22.6772 16.1113 22.5748 16.2239L22.5339 16.2444C22.0629 16.572 22.0629 16.5823 22.4725 16.9918C23.2915 17.821 24.3153 18.0872 25.4312 18.0565H25.7793L25.7998 18.077ZM28.3285 14.3606C28.3327 14.2894 28.3227 14.218 28.2992 14.1505C28.2757 14.0831 28.2391 14.021 28.1916 13.9677C28.144 13.9145 28.0864 13.8711 28.0221 13.8402C27.9577 13.8092 27.8879 13.7912 27.8166 13.7873C27.7472 13.7858 27.6783 13.7986 27.6141 13.8251C27.5499 13.8516 27.492 13.8911 27.4438 13.9411C27.3957 13.9912 27.3585 14.0507 27.3346 14.1158C27.3106 14.181 27.3005 14.2504 27.3047 14.3197C27.302 14.391 27.3133 14.4621 27.3381 14.529C27.3629 14.5958 27.4006 14.6572 27.4491 14.7095C27.4976 14.7618 27.5559 14.804 27.6207 14.8337C27.6855 14.8635 27.7556 14.8801 27.8269 14.8828C27.8949 14.8843 27.9626 14.8717 28.0255 14.8458C28.0884 14.8198 28.1453 14.781 28.1924 14.7319C28.2396 14.6829 28.2761 14.6245 28.2995 14.5606C28.3229 14.4967 28.3328 14.4286 28.3285 14.3606ZM22.9741 15.0568C22.9713 15.2017 23.0256 15.3419 23.1251 15.4472C23.2247 15.5526 23.3617 15.6146 23.5065 15.6199C23.5764 15.6187 23.6454 15.6032 23.7091 15.5744C23.7728 15.5455 23.83 15.5039 23.877 15.4521C23.924 15.4003 23.9599 15.3394 23.9824 15.2731C24.005 15.2069 24.0138 15.1368 24.0081 15.0671C24.0055 14.9195 23.945 14.7789 23.8396 14.6755C23.7343 14.5721 23.5926 14.5142 23.4451 14.5142C23.1686 14.5244 22.9741 14.7599 22.9741 15.0568Z"
        fill="#FDFDFD"
      ></path>
      <path
        d="M26.3833 25.6634L26.6188 25.8374C26.7219 25.9322 26.8502 25.9952 26.9882 26.0188C27.1262 26.0424 27.2681 26.0256 27.3969 25.9705L29.8437 25.1003C30.2942 24.9263 30.4785 24.4451 30.2942 23.9537C30.1099 23.4622 29.6697 23.2472 29.2192 23.4008L27.4685 24.0253C27.4086 24.0574 27.3404 24.0706 27.2728 24.0633C27.2052 24.056 27.1414 24.0285 27.0897 23.9844C26.8645 23.8001 26.5369 23.6875 26.4243 23.4622C26.3116 23.237 26.3833 22.8992 26.3833 22.6125C26.3833 22.3258 26.3936 21.8651 26.3833 21.4863C26.3833 21.343 26.4038 21.2816 26.5676 21.2918H32.997C33.1403 21.2918 33.1813 21.3225 33.1813 21.4658V27.9259C33.1813 28.059 33.1403 28.1 32.997 28.1H26.5676C26.4345 28.1 26.3833 28.0693 26.3833 27.9259V25.6634Z"
        fill="#EF8129"
      ></path>
      <path
        d="M18.5718 12.3439L19.4522 12.2108C22.5236 11.7808 25.4823 10.9618 28.2568 9.54894C28.5947 9.37489 28.912 9.18037 29.2499 9.00633C29.3216 8.96538 29.383 8.90395 29.4956 8.9449C30.243 9.17014 30.9698 9.41584 31.6455 9.82536C32.0448 10.0711 32.0448 10.1632 31.6251 10.3782C30.8777 10.7775 30.0689 11.0232 29.2704 11.2689C27.3412 11.869 25.36 12.2872 23.3529 12.5179C21.8581 12.6715 20.3736 12.7227 18.8892 12.4565L18.5718 12.3848V12.3439Z"
        fill="#766A66"
      ></path>
      <path
        d="M36.1094 19.5411V19.8176C36.1094 21.8549 36.1094 23.8922 36.1196 25.9296C36.1252 25.9965 36.1118 26.0637 36.0811 26.1235C36.0503 26.1832 36.0033 26.2331 35.9456 26.2674L34.1232 27.6291C34.0516 27.5574 34.0823 27.4755 34.0823 27.4141C34.0823 25.3767 34.0823 23.3394 34.072 21.3021C34.0663 21.2297 34.0805 21.1571 34.113 21.0922C34.1454 21.0272 34.195 20.9724 34.2563 20.9335C34.8603 20.4933 35.4644 20.0326 36.1094 19.5411Z"
        fill="#EF8129"
      ></path>
      <path
        d="M35.1572 19.1419C34.8091 19.3978 34.4508 19.6333 34.1437 19.9097C33.8365 20.1861 33.2427 20.4216 32.6694 20.4114C30.8982 20.3704 29.1169 20.4011 27.3457 20.4011C27.3252 20.2987 27.4174 20.2885 27.4583 20.2578L28.8302 19.2238C28.9198 19.1508 29.032 19.111 29.1476 19.1111H35.0855L35.1572 19.1419Z"
        fill="#EF8129"
      ></path>
      <path
        d="M28.3287 14.3608C28.333 14.4287 28.3231 14.4968 28.2996 14.5607C28.2762 14.6247 28.2398 14.683 28.1926 14.7321C28.1454 14.7812 28.0886 14.82 28.0257 14.8459C27.9627 14.8719 27.8951 14.8845 27.827 14.8829C27.7558 14.8803 27.6857 14.8636 27.6209 14.8339C27.5561 14.8042 27.4977 14.7619 27.4492 14.7096C27.4007 14.6573 27.363 14.596 27.3383 14.5291C27.3135 14.4622 27.3022 14.3911 27.3049 14.3199C27.3006 14.2506 27.3108 14.1811 27.3347 14.116C27.3587 14.0508 27.3959 13.9913 27.444 13.9413C27.4921 13.8913 27.5501 13.8518 27.6143 13.8253C27.6784 13.7988 27.7474 13.7859 27.8168 13.7875C27.8881 13.7914 27.9579 13.8094 28.0223 13.8403C28.0866 13.8713 28.1442 13.9146 28.1917 13.9679C28.2393 14.0211 28.2759 14.0833 28.2994 14.1507C28.3229 14.2181 28.3328 14.2895 28.3287 14.3608Z"
        fill="#030303"
      ></path>
      <path
        d="M22.974 15.0569C22.974 14.76 23.1685 14.5245 23.4449 14.5143C23.5925 14.5143 23.7342 14.5722 23.8395 14.6756C23.9448 14.779 24.0053 14.9196 24.008 15.0671C24.0136 15.1369 24.0049 15.207 23.9823 15.2732C23.9597 15.3394 23.9238 15.4003 23.8768 15.4521C23.8298 15.5039 23.7727 15.5456 23.709 15.5744C23.6453 15.6033 23.5763 15.6188 23.5063 15.62C23.3615 15.6146 23.2246 15.5526 23.125 15.4473C23.0254 15.342 22.9712 15.2018 22.974 15.0569Z"
        fill="#030303"
      ></path>
    </svg>